<?xml version="1.0" encoding="UTF-8" standalone="no"?>
<!-- Created with Inkscape (http://www.inkscape.org/) -->

<svg
   xmlns:ns0="http://www.iki.fi/pav/software/textext/"
   xmlns:dc="http://purl.org/dc/elements/1.1/"
   xmlns:cc="http://creativecommons.org/ns#"
   xmlns:rdf="http://www.w3.org/1999/02/22-rdf-syntax-ns#"
   xmlns:svg="http://www.w3.org/2000/svg"
   xmlns="http://www.w3.org/2000/svg"
   xmlns:xlink="http://www.w3.org/1999/xlink"
   xmlns:sodipodi="http://sodipodi.sourceforge.net/DTD/sodipodi-0.dtd"
   xmlns:inkscape="http://www.inkscape.org/namespaces/inkscape"
   width="241.40433"
   height="142.59334"
   id="svg2"
   sodipodi:version="0.32"
   inkscape:version="0.48.4 r9939"
   version="1.0"
   sodipodi:docname="residu_orth.svg"
   inkscape:output_extension="org.inkscape.output.svg.inkscape"
   sodipodi:modified="true">
  <sodipodi:namedview
     id="base"
     pagecolor="#ffffff"
     bordercolor="#666666"
     borderopacity="1.0"
     gridtolerance="10000"
     guidetolerance="10"
     objecttolerance="10"
     inkscape:pageopacity="0.0"
     inkscape:pageshadow="2"
     inkscape:zoom="1.979899"
     inkscape:cx="239.73973"
     inkscape:cy="118.51517"
     inkscape:document-units="px"
     inkscape:current-layer="layer1"
     width="439.93px"
     height="282.68px"
     inkscape:window-width="1215"
     inkscape:window-height="776"
     inkscape:window-x="65"
     inkscape:window-y="24"
     showgrid="false"
     fit-margin-top="0"
     fit-margin-left="0"
     fit-margin-right="0"
     fit-margin-bottom="0"
     inkscape:window-maximized="1"
     inkscape:snap-object-midpoints="true"
     inkscape:object-nodes="true"
     inkscape:snap-smooth-nodes="true"
     inkscape:object-paths="true"
     inkscape:snap-nodes="true"
     inkscape:snap-global="true"
     inkscape:snap-bbox="true"
     inkscape:bbox-nodes="true"
     inkscape:snap-bbox-edge-midpoints="true"
     inkscape:snap-bbox-midpoints="true" />
  <defs
     id="defs4">
    <inkscape:path-effect
       is_visible="true"
       id="path-effect5143"
       effect="spiro" />
    <inkscape:path-effect
       is_visible="true"
       id="path-effect5139"
       effect="spiro" />
    <inkscape:path-effect
       is_visible="true"
       id="path-effect4514"
       effect="spiro" />
    <inkscape:path-effect
       is_visible="true"
       id="path-effect4510"
       effect="spiro" />
    <marker
       inkscape:stockid="Arrow1Lstart"
       orient="auto"
       refY="0"
       refX="0"
       id="Arrow1Lstart"
       style="overflow:visible">
      <path
         inkscape:connector-curvature="0"
         id="path4982"
         d="M 0,0 5,-5 -12.5,0 5,5 0,0 z"
         style="fill-rule:evenodd;stroke:#000000;stroke-width:1pt;marker-start:none"
         transform="matrix(0.8,0,0,0.8,10,0)" />
    </marker>
    <linearGradient
       inkscape:collect="always"
       id="linearGradient3971">
      <stop
         style="stop-color:#000000;stop-opacity:1;"
         offset="0"
         id="stop3973" />
      <stop
         style="stop-color:#000000;stop-opacity:0;"
         offset="1"
         id="stop3975" />
    </linearGradient>
    <marker
       inkscape:stockid="Arrow1Lend"
       orient="auto"
       refY="0"
       refX="0"
       id="Arrow1Lend"
       style="overflow:visible">
      <path
         inkscape:connector-curvature="0"
         id="path8287"
         d="M 0,0 5,-5 -12.5,0 5,5 0,0 z"
         style="fill-rule:evenodd;stroke:#000000;stroke-width:1pt"
         transform="matrix(-0.8,0,0,-0.8,-10,0)" />
    </marker>
    <linearGradient
       id="linearGradient6481">
      <stop
         style="stop-color:#000000;stop-opacity:0.89552242;"
         offset="0"
         id="stop6483" />
      <stop
         style="stop-color:#000000;stop-opacity:0;"
         offset="1"
         id="stop6485" />
    </linearGradient>
    <linearGradient
       id="linearGradient4895">
      <stop
         style="stop-color:#000000;stop-opacity:0;"
         offset="0"
         id="stop4897" />
      <stop
         id="stop4899"
         offset="0.56533259"
         style="stop-color:#000000;stop-opacity:0.3298969;" />
      <stop
         style="stop-color:#000000;stop-opacity:1;"
         offset="1"
         id="stop4901" />
    </linearGradient>
    <linearGradient
       id="linearGradient4395">
      <stop
         style="stop-color:#ffffff;stop-opacity:0;"
         offset="0"
         id="stop4397" />
      <stop
         style="stop-color:#ffffff;stop-opacity:0.72164947;"
         offset="1"
         id="stop4401" />
    </linearGradient>
    <linearGradient
       id="linearGradient4375">
      <stop
         id="stop4377"
         offset="0"
         style="stop-color:#ffffff;stop-opacity:0;" />
      <stop
         id="stop4389"
         offset="0"
         style="stop-color:#ffffff;stop-opacity:1;" />
    </linearGradient>
    <linearGradient
       id="linearGradient3270">
      <stop
         id="stop3272"
         offset="0"
         style="stop-color:#000000;stop-opacity:0;" />
      <stop
         style="stop-color:#000000;stop-opacity:0.3298969;"
         offset="0.11872732"
         id="stop3274" />
      <stop
         id="stop3276"
         offset="1"
         style="stop-color:#000000;stop-opacity:1;" />
    </linearGradient>
    <linearGradient
       id="linearGradient3256">
      <stop
         style="stop-color:#000000;stop-opacity:0;"
         offset="0"
         id="stop3258" />
      <stop
         id="stop3264"
         offset="0.44444445"
         style="stop-color:#000000;stop-opacity:0.3298969;" />
      <stop
         style="stop-color:#000000;stop-opacity:1;"
         offset="1"
         id="stop3260" />
    </linearGradient>
    <linearGradient
       id="linearGradient13506">
      <stop
         style="stop-color:#0000a0;stop-opacity:1;"
         offset="0"
         id="stop13508" />
      <stop
         id="stop4369"
         offset="1"
         style="stop-color:#0000a0;stop-opacity:0.81443298;" />
      <stop
         style="stop-color:#0000a0;stop-opacity:0;"
         offset="1"
         id="stop13510" />
    </linearGradient>
    <linearGradient
       id="linearGradient10817">
      <stop
         id="stop10819"
         offset="0"
         style="stop-color:#0076e4;stop-opacity:1;" />
      <stop
         style="stop-color:#0075e4;stop-opacity:0.74901961;"
         offset="0"
         id="stop10821" />
      <stop
         id="stop10823"
         offset="0"
         style="stop-color:#0075e4;stop-opacity:0.62352941;" />
      <stop
         style="stop-color:#0075e4;stop-opacity:0.49803922;"
         offset="0"
         id="stop10825" />
      <stop
         id="stop10827"
         offset="0"
         style="stop-color:#0074e4;stop-opacity:0.24705882;" />
      <stop
         style="stop-color:#0074e4;stop-opacity:0.12156863;"
         offset="0"
         id="stop10829" />
      <stop
         id="stop10831"
         offset="1"
         style="stop-color:#0074e4;stop-opacity:0;" />
    </linearGradient>
    <linearGradient
       id="linearGradient9903">
      <stop
         style="stop-color:#0076e4;stop-opacity:1;"
         offset="0"
         id="stop9905" />
      <stop
         id="stop10805"
         offset="0"
         style="stop-color:#0075e4;stop-opacity:0.74901961;" />
      <stop
         style="stop-color:#0075e4;stop-opacity:0.62352941;"
         offset="0"
         id="stop10807" />
      <stop
         id="stop10797"
         offset="0"
         style="stop-color:#0075e4;stop-opacity:0.49803922;" />
      <stop
         style="stop-color:#0074e4;stop-opacity:0.24705882;"
         offset="0"
         id="stop10799" />
      <stop
         id="stop10801"
         offset="0"
         style="stop-color:#0074e4;stop-opacity:0.12156863;" />
      <stop
         style="stop-color:#0074e4;stop-opacity:0;"
         offset="1"
         id="stop9907" />
    </linearGradient>
    <linearGradient
       id="linearGradient8098">
      <stop
         style="stop-color:black;stop-opacity:1;"
         offset="0"
         id="stop8100" />
      <stop
         style="stop-color:black;stop-opacity:0;"
         offset="1"
         id="stop8102" />
    </linearGradient>
    <pattern
       patternUnits="userSpaceOnUse"
       width="289.57143"
       height="238.1429"
       patternTransform="translate(222.3571,703.2907)"
       id="pattern3653">
      <path
         d="M 511.42857 853.79077 A 94.285713 87.14286 0 1 1  322.85714,853.79077 A 94.285713 87.14286 0 1 1  511.42857 853.79077 z"
         sodipodi:ry="87.14286"
         sodipodi:rx="94.285713"
         sodipodi:cy="853.79077"
         sodipodi:cx="417.14285"
         id="path3651"
         style="fill:#d40000;fill-opacity:1;stroke:black;stroke-opacity:1"
         sodipodi:type="arc"
         transform="translate(-222.3571,-703.2907)" />
      <path
         d="M 417.14286 780.93359 A 97.14286 77.14286 0 1 1  222.85714,780.93359 A 97.14286 77.14286 0 1 1  417.14286 780.93359 z"
         sodipodi:ry="77.14286"
         sodipodi:rx="97.14286"
         sodipodi:cy="780.93359"
         sodipodi:cx="320"
         id="path3649"
         style="fill:green;fill-opacity:1;stroke:black;stroke-opacity:1"
         sodipodi:type="arc"
         transform="translate(-222.3571,-703.2907)" />
    </pattern>
    <linearGradient
       inkscape:collect="always"
       xlink:href="#linearGradient8098"
       id="linearGradient8104"
       x1="200.17738"
       y1="324.58551"
       x2="242.14578"
       y2="270.93362"
       gradientUnits="userSpaceOnUse" />
    <linearGradient
       inkscape:collect="always"
       xlink:href="#linearGradient9903"
       id="linearGradient10835"
       x1="745.92059"
       y1="238.87488"
       x2="626.4408"
       y2="40.547947"
       gradientUnits="userSpaceOnUse"
       spreadMethod="reflect" />
    <radialGradient
       inkscape:collect="always"
       xlink:href="#linearGradient13506"
       id="radialGradient13514"
       cx="407.14285"
       cy="243.79076"
       fx="407.14285"
       fy="243.79076"
       r="15.714286"
       gradientTransform="matrix(1,0,0,1.090909,0,-22.16279)"
       gradientUnits="userSpaceOnUse" />
    <linearGradient
       inkscape:collect="always"
       xlink:href="#linearGradient8098"
       id="linearGradient13517"
       gradientUnits="userSpaceOnUse"
       x1="200.17738"
       y1="324.58551"
       x2="242.14578"
       y2="270.93362" />
    <radialGradient
       inkscape:collect="always"
       xlink:href="#linearGradient3270-2"
       id="radialGradient3378-9"
       cx="245.99532"
       cy="260.60535"
       fx="245.99532"
       fy="260.60535"
       r="60.5"
       gradientTransform="matrix(1.6764059,-1.3380873,0.9953377,1.6972987,-435.99901,121.67178)"
       gradientUnits="userSpaceOnUse" />
    <linearGradient
       id="linearGradient3270-2">
      <stop
         id="stop3272-9"
         offset="0"
         style="stop-color:#000000;stop-opacity:0;" />
      <stop
         style="stop-color:#000000;stop-opacity:0.3298969;"
         offset="0.5"
         id="stop3274-5" />
      <stop
         id="stop3276-8"
         offset="1"
         style="stop-color:#000000;stop-opacity:1;" />
    </linearGradient>
    <marker
       inkscape:stockid="Arrow1Lend"
       orient="auto"
       refY="0"
       refX="0"
       id="Arrow1Lend-4"
       style="overflow:visible">
      <path
         inkscape:connector-curvature="0"
         id="path8287-4"
         d="M 0,0 5,-5 -12.5,0 5,5 0,0 z"
         style="fill-rule:evenodd;stroke:#000000;stroke-width:1pt"
         transform="matrix(-0.8,0,0,-0.8,-10,0)" />
    </marker>
    <marker
       inkscape:stockid="Arrow1Lend"
       orient="auto"
       refY="0"
       refX="0"
       id="Arrow1Lend-43"
       style="overflow:visible">
      <path
         inkscape:connector-curvature="0"
         id="path8287-3"
         d="M 0,0 5,-5 -12.5,0 5,5 0,0 z"
         style="fill-rule:evenodd;stroke:#000000;stroke-width:1pt"
         transform="matrix(-0.8,0,0,-0.8,-10,0)" />
    </marker>
    <linearGradient
       inkscape:collect="always"
       xlink:href="#linearGradient3971"
       id="linearGradient3977"
       x1="-388.31567"
       y1="-81.153305"
       x2="-55.530956"
       y2="189.38156"
       gradientUnits="userSpaceOnUse"
       gradientTransform="matrix(0.9987903,-0.0491725,0.0491725,0.9987903,61.699133,587.82555)" />
    <marker
       inkscape:stockid="Arrow1Lend"
       orient="auto"
       refY="0"
       refX="0"
       id="Arrow1Lend-0"
       style="overflow:visible">
      <path
         id="path3780"
         d="M 0,0 5,-5 -12.5,0 5,5 0,0 z"
         style="fill-rule:evenodd;stroke:#000000;stroke-width:1pt"
         transform="matrix(-0.8,0,0,-0.8,-10,0)"
         inkscape:connector-curvature="0" />
    </marker>
    <marker
       inkscape:stockid="Arrow1Lend"
       orient="auto"
       refY="0"
       refX="0"
       id="marker13649"
       style="overflow:visible">
      <path
         id="path13651"
         d="M 0,0 5,-5 -12.5,0 5,5 0,0 z"
         style="fill-rule:evenodd;stroke:#000000;stroke-width:1pt"
         transform="matrix(-0.8,0,0,-0.8,-10,0)"
         inkscape:connector-curvature="0" />
    </marker>
    <marker
       inkscape:stockid="Arrow1Lend"
       orient="auto"
       refY="0"
       refX="0"
       id="Arrow1Lend-5"
       style="overflow:visible">
      <path
         id="path8287-38"
         d="M 0,0 5,-5 -12.5,0 5,5 0,0 z"
         style="fill-rule:evenodd;stroke:#000000;stroke-width:1pt"
         transform="matrix(-0.8,0,0,-0.8,-10,0)"
         inkscape:connector-curvature="0" />
    </marker>
    <marker
       inkscape:stockid="Arrow1Lend"
       orient="auto"
       refY="0"
       refX="0"
       id="marker4239"
       style="overflow:visible">
      <path
         id="path4241"
         d="M 0,0 5,-5 -12.5,0 5,5 0,0 z"
         style="fill-rule:evenodd;stroke:#000000;stroke-width:1pt"
         transform="matrix(-0.8,0,0,-0.8,-10,0)"
         inkscape:connector-curvature="0" />
    </marker>
    <marker
       inkscape:stockid="Arrow1Lend"
       orient="auto"
       refY="0"
       refX="0"
       id="Arrow1Lend-8"
       style="overflow:visible">
      <path
         id="path8287-43"
         d="M 0,0 5,-5 -12.5,0 5,5 0,0 z"
         style="fill-rule:evenodd;stroke:#000000;stroke-width:1pt"
         transform="matrix(-0.8,0,0,-0.8,-10,0)"
         inkscape:connector-curvature="0" />
    </marker>
    <marker
       inkscape:stockid="Arrow1Lend"
       orient="auto"
       refY="0"
       refX="0"
       id="Arrow1Lend-00"
       style="overflow:visible">
      <path
         id="path8287-47"
         d="M 0,0 5,-5 -12.5,0 5,5 0,0 z"
         style="fill-rule:evenodd;stroke:#000000;stroke-width:1pt"
         transform="matrix(-0.8,0,0,-0.8,-10,0)"
         inkscape:connector-curvature="0" />
    </marker>
    <marker
       inkscape:stockid="Arrow1Lend"
       orient="auto"
       refY="0"
       refX="0"
       id="Arrow1Lend-00-6"
       style="overflow:visible">
      <path
         id="path8287-47-6"
         d="M 0,0 5,-5 -12.5,0 5,5 0,0 z"
         style="fill-rule:evenodd;stroke:#000000;stroke-width:1pt"
         transform="matrix(-0.8,0,0,-0.8,-10,0)"
         inkscape:connector-curvature="0" />
    </marker>
    <linearGradient
       y2="189.38156"
       x2="-55.530956"
       y1="-81.153305"
       x1="-388.31567"
       gradientTransform="matrix(0.9987903,-0.0491725,0.0491725,0.9987903,61.699133,587.82555)"
       gradientUnits="userSpaceOnUse"
       id="linearGradient3548"
       xlink:href="#linearGradient3971"
       inkscape:collect="always" />
  </defs>
  <metadata
     id="metadata7">
    <rdf:RDF>
      <cc:Work
         rdf:about="">
        <dc:format>image/svg+xml</dc:format>
        <dc:type
           rdf:resource="http://purl.org/dc/dcmitype/StillImage" />
        <dc:title />
      </cc:Work>
    </rdf:RDF>
  </metadata>
  <g
     inkscape:label="Layer 1"
     inkscape:groupmode="layer"
     id="layer1"
     transform="translate(208.32607,-582.89237)">
    <path
       style="fill:url(#linearGradient3548);fill-opacity:1;stroke:none"
       d="m -208.12767,633.18904 55.99108,69.05114 185.214853,23.24553 -58.91853,-66.88427 z"
       id="path3969"
       inkscape:connector-curvature="0"
       sodipodi:nodetypes="ccccc" />
    <path
       sodipodi:nodetypes="cc"
       inkscape:connector-curvature="0"
       inkscape:original-d="m -158.6924,664.2973 115.714285,17.14287"
       inkscape:path-effect="#path-effect4510"
       id="path4508"
       d="m -158.6924,664.2973 115.714285,17.14287"
       style="fill:none;stroke:#000000;stroke-width:0.60500002;stroke-linecap:butt;stroke-linejoin:miter;stroke-miterlimit:4;stroke-opacity:1;stroke-dasharray:none" />
    <path
       inkscape:connector-curvature="0"
       inkscape:original-d="M -77.62097,698.58302 -123.6924,646.79731"
       inkscape:path-effect="#path-effect4514"
       id="path4512"
       d="M -77.62097,698.58302 -123.6924,646.79731"
       style="fill:none;stroke:#000000;stroke-width:0.60500002;stroke-linecap:butt;stroke-linejoin:miter;stroke-miterlimit:4;stroke-opacity:1;stroke-dasharray:none" />
    <path
       transform="translate(-245.1135,560.62675)"
       inkscape:connector-curvature="0"
       inkscape:original-d="m 140.4112,107.17066 2.02031,-5.93465 3.6618,4.92449"
       inkscape:path-effect="#path-effect5139"
       id="path5137"
       d="m 140.4112,107.17066 2.02031,-5.93465 3.6618,4.92449"
       style="fill:none;stroke:#000000;stroke-width:0.60500002;stroke-linecap:butt;stroke-linejoin:miter;stroke-miterlimit:4;stroke-opacity:1;stroke-dasharray:none" />
    <path
       sodipodi:nodetypes="ccc"
       transform="translate(-245.1135,560.62675)"
       inkscape:connector-curvature="0"
       inkscape:original-d="m 146.09331,106.28677 6.37659,0.94702 -1.70463,5.80838"
       inkscape:path-effect="#path-effect5143"
       id="path5141"
       d="m 146.09331,106.28677 6.37659,0.94702 -1.70463,5.80838"
       style="fill:none;stroke:#000000;stroke-width:0.60500002;stroke-linecap:butt;stroke-linejoin:miter;stroke-miterlimit:4;stroke-opacity:1;stroke-dasharray:none" />
    <g
       transform="translate(-391.03203,577.69661)"
       ns0:text="$\\mathbf{x}_1$"
       ns0:preamble=""
       id="g4726">
      <defs
         id="defs4728">
        <g
           id="g4730">
          <symbol
             overflow="visible"
             id="textext-07954b65-0"
             style="overflow:visible">
            <path
               style="stroke:none"
               d=""
               id="path4733"
               inkscape:connector-curvature="0" />
          </symbol>
          <symbol
             overflow="visible"
             id="textext-07954b65-1"
             style="overflow:visible">
            <path
               style="stroke:none"
               d="M 3.453125,-2.453125 4.609375,-3.75 C 4.75,-3.890625 4.8125,-3.953125 5.625,-3.953125 l 0,-0.46875 c -0.34375,0.015625 -0.859375,0.03125 -0.90625,0.03125 -0.25,0 -0.75,-0.03125 -1.03125,-0.03125 l 0,0.46875 c 0.140625,0 0.265625,0.015625 0.375,0.078125 -0.03125,0.0625 -0.03125,0.09375 -0.078125,0.125 l -0.828125,0.9375 -0.984375,-1.140625 0.40625,0 0,-0.46875 c -0.265625,0 -0.890625,0.03125 -1.21875,0.03125 -0.3125,0 -0.765625,-0.03125 -1.09375,-0.03125 l 0,0.46875 0.71875,0 1.546875,1.828125 -1.3125,1.46875 c -0.15625,0.1875 -0.515625,0.1875 -1,0.1875 l 0,0.46875 c 0.34375,-0.015625 0.875,-0.03125 0.921875,-0.03125 0.25,0 0.828125,0.015625 1.015625,0.03125 l 0,-0.46875 c -0.171875,0 -0.359375,-0.046875 -0.359375,-0.109375 0,-0.015625 0,-0.015625 0.0625,-0.09375 l 0.96875,-1.09375 1.09375,1.296875 -0.390625,0 0,0.46875 c 0.265625,-0.015625 0.875,-0.03125 1.203125,-0.03125 0.3125,0 0.765625,0.015625 1.09375,0.03125 l 0,-0.46875 -0.703125,0 z m 0,0"
               id="path4736"
               inkscape:connector-curvature="0" />
          </symbol>
          <symbol
             overflow="visible"
             id="textext-07954b65-2"
             style="overflow:visible">
            <path
               style="stroke:none"
               d=""
               id="path4739"
               inkscape:connector-curvature="0" />
          </symbol>
          <symbol
             overflow="visible"
             id="textext-07954b65-3"
             style="overflow:visible">
            <path
               style="stroke:none"
               d="m 2.328125,-4.4375 c 0,-0.1875 0,-0.1875 -0.203125,-0.1875 -0.453125,0.4375 -1.078125,0.4375 -1.359375,0.4375 l 0,0.25 c 0.15625,0 0.625,0 1,-0.1875 l 0,3.546875 c 0,0.234375 0,0.328125 -0.6875,0.328125 l -0.265625,0 0,0.25 c 0.125,0 0.984375,-0.03125 1.234375,-0.03125 0.21875,0 1.09375,0.03125 1.25,0.03125 l 0,-0.25 -0.265625,0 c -0.703125,0 -0.703125,-0.09375 -0.703125,-0.328125 z m 0,0"
               id="path4742"
               inkscape:connector-curvature="0" />
          </symbol>
        </g>
      </defs>
      <g
         id="textext-07954b65-4">
        <g
           style="fill:#000000;fill-opacity:1"
           id="g4745">
          <use
             xlink:href="#textext-07954b65-1"
             x="223.43201"
             y="134.765"
             id="use4747"
             width="744.09448"
             height="1052.3622" />
        </g>
        <g
           style="fill:#000000;fill-opacity:1"
           id="g4749">
          <use
             xlink:href="#textext-07954b65-3"
             x="229.479"
             y="136.259"
             id="use4751"
             width="744.09448"
             height="1052.3622" />
        </g>
      </g>
    </g>
    <path
       sodipodi:nodetypes="cc"
       transform="translate(-245.1135,560.62675)"
       inkscape:connector-curvature="0"
       id="path5169"
       d="M 37.187433,72.810918 217.07786,97.498732"
       style="fill:none;stroke:#000000;stroke-width:0.80000001;stroke-linecap:butt;stroke-linejoin:miter;stroke-miterlimit:4;stroke-opacity:1;stroke-dasharray:none;marker-end:url(#Arrow1Lend-00)" />
    <path
       sodipodi:nodetypes="cc"
       inkscape:connector-curvature="0"
       id="path5169-5"
       d="m -207.75483,633.40896 55.00436,68.07415"
       style="fill:none;stroke:#000000;stroke-width:0.80000001;stroke-linecap:round;stroke-linejoin:miter;stroke-miterlimit:4;stroke-opacity:1;stroke-dasharray:none;marker-end:url(#Arrow1Lend-00)" />
    <g
       id="g7472"
       transform="translate(-251.2864,513.30426)"
       ns0:preamble=""
       ns0:text="$\\mathbf{x}_2$">
      <defs
         id="defs7474">
        <g
           id="g7476">
          <symbol
             style="overflow:visible"
             id="textext-22f85945-0"
             overflow="visible">
            <path
               inkscape:connector-curvature="0"
               id="path7479"
               d=""
               style="stroke:none" />
          </symbol>
          <symbol
             style="overflow:visible"
             id="textext-22f85945-1"
             overflow="visible">
            <path
               inkscape:connector-curvature="0"
               id="path7482"
               d="M 3.453125,-2.453125 4.609375,-3.75 C 4.75,-3.890625 4.8125,-3.953125 5.625,-3.953125 l 0,-0.46875 c -0.34375,0.015625 -0.859375,0.03125 -0.90625,0.03125 -0.25,0 -0.75,-0.03125 -1.03125,-0.03125 l 0,0.46875 c 0.140625,0 0.265625,0.015625 0.375,0.078125 -0.03125,0.0625 -0.03125,0.09375 -0.078125,0.125 l -0.828125,0.9375 -0.984375,-1.140625 0.40625,0 0,-0.46875 c -0.265625,0 -0.890625,0.03125 -1.21875,0.03125 -0.3125,0 -0.765625,-0.03125 -1.09375,-0.03125 l 0,0.46875 0.71875,0 1.546875,1.828125 -1.3125,1.46875 c -0.15625,0.1875 -0.515625,0.1875 -1,0.1875 l 0,0.46875 c 0.34375,-0.015625 0.875,-0.03125 0.921875,-0.03125 0.25,0 0.828125,0.015625 1.015625,0.03125 l 0,-0.46875 c -0.171875,0 -0.359375,-0.046875 -0.359375,-0.109375 0,-0.015625 0,-0.015625 0.0625,-0.09375 l 0.96875,-1.09375 1.09375,1.296875 -0.390625,0 0,0.46875 c 0.265625,-0.015625 0.875,-0.03125 1.203125,-0.03125 0.3125,0 0.765625,0.015625 1.09375,0.03125 l 0,-0.46875 -0.703125,0 z m 0,0"
               style="stroke:none" />
          </symbol>
          <symbol
             style="overflow:visible"
             id="textext-22f85945-2"
             overflow="visible">
            <path
               inkscape:connector-curvature="0"
               id="path7485"
               d=""
               style="stroke:none" />
          </symbol>
          <symbol
             style="overflow:visible"
             id="textext-22f85945-3"
             overflow="visible">
            <path
               inkscape:connector-curvature="0"
               id="path7488"
               d="m 3.515625,-1.265625 -0.234375,0 c -0.015625,0.15625 -0.09375,0.5625 -0.1875,0.625 -0.046875,0.046875 -0.578125,0.046875 -0.6875,0.046875 l -1.28125,0 c 0.734375,-0.640625 0.984375,-0.84375 1.390625,-1.171875 0.515625,-0.40625 1,-0.84375 1,-1.5 0,-0.84375 -0.734375,-1.359375 -1.625,-1.359375 -0.859375,0 -1.453125,0.609375 -1.453125,1.25 0,0.34375 0.296875,0.390625 0.375,0.390625 0.15625,0 0.359375,-0.125 0.359375,-0.375 0,-0.125 -0.046875,-0.375 -0.40625,-0.375 C 0.984375,-4.21875 1.453125,-4.375 1.78125,-4.375 c 0.703125,0 1.0625,0.546875 1.0625,1.109375 0,0.609375 -0.4375,1.078125 -0.65625,1.328125 L 0.515625,-0.265625 C 0.4375,-0.203125 0.4375,-0.1875 0.4375,0 l 2.875,0 z m 0,0"
               style="stroke:none" />
          </symbol>
        </g>
      </defs>
      <g
         id="textext-22f85945-4">
        <g
           id="g7491"
           style="fill:#000000;fill-opacity:1">
          <use
             height="227"
             width="280"
             id="use7493"
             y="134.765"
             x="223.43201"
             xlink:href="#textext-22f85945-1" />
        </g>
        <g
           id="g7495"
           style="fill:#000000;fill-opacity:1">
          <use
             height="227"
             width="280"
             id="use7497"
             y="136.259"
             x="229.479"
             xlink:href="#textext-22f85945-3" />
        </g>
      </g>
    </g>
    <path
       style="fill:none;stroke:#000000;stroke-width:1;stroke-linecap:butt;stroke-linejoin:miter;stroke-miterlimit:4;stroke-opacity:1;stroke-dasharray:1, 1;stroke-dashoffset:0;marker-end:none"
       d="M 144.45681,112.06342 167.09375,29.1875"
       id="path7945"
       inkscape:connector-curvature="0"
       transform="translate(-245.1135,560.62675)" />
    <g
       id="g8555">
      <path
         style="font-size:medium;font-style:normal;font-variant:normal;font-weight:normal;font-stretch:normal;text-indent:0;text-align:start;text-decoration:none;line-height:normal;letter-spacing:normal;word-spacing:normal;text-transform:none;direction:ltr;block-progression:tb;writing-mode:lr-tb;text-anchor:start;baseline-shift:baseline;color:#000000;fill:#0000d7;fill-opacity:1;fill-rule:nonzero;stroke:none;stroke-width:0.80000001;marker:none;visibility:visible;display:inline;overflow:visible;enable-background:accumulate;font-family:Sans;-inkscape-font-specification:Sans"
         d="m -79.676,590.37675 -127.90912,42.80165 0.25,0.75 127.90912,-42.80165 z"
         id="path8351"
         inkscape:connector-curvature="0"
         sodipodi:nodetypes="ccccc" />
      <path
         inkscape:connector-curvature="0"
         style="fill:#0000d7;fill-opacity:1;fill-rule:evenodd;stroke:#0000d7;stroke-width:0.64000001pt;stroke-opacity:1"
         d="m -87.159732,593.26225 -2.035781,4.04173 9.632673,-6.54917 -11.638623,0.47166 4.041731,2.03578 z"
         id="path8561" />
    </g>
    <path
       transform="translate(-245.1135,560.62675)"
       inkscape:connector-curvature="0"
       id="path8576"
       d="M 144.45681,112.06342 37.433715,73.114646"
       style="fill:none;stroke:#000000;stroke-width:1;stroke-linecap:butt;stroke-linejoin:miter;stroke-miterlimit:4;stroke-opacity:1;stroke-dasharray:1, 1;stroke-dashoffset:0;marker-end:none"
       sodipodi:nodetypes="cc" />
    <g
       ns0:text="$\\mathbf{y}$"
       ns0:preamble=""
       transform="translate(-324.80745,452.54925)"
       id="g8776">
      <defs
         id="defs8778">
        <g
           id="g8780">
          <symbol
             style="overflow:visible"
             overflow="visible"
             id="textext-f29ea369-0">
            <path
               inkscape:connector-curvature="0"
               style="stroke:none"
               d=""
               id="path8783" />
          </symbol>
          <symbol
             style="overflow:visible"
             overflow="visible"
             id="textext-f29ea369-1">
            <path
               inkscape:connector-curvature="0"
               style="stroke:none"
               d="m 5.046875,-3.75 c 0.0625,-0.140625 0.09375,-0.203125 0.734375,-0.203125 l 0,-0.46875 C 5.546875,-4.40625 5.25,-4.390625 5,-4.390625 c -0.25,0 -0.703125,-0.03125 -0.90625,-0.03125 l 0,0.46875 c 0.015625,0 0.46875,0 0.46875,0.109375 0,0.015625 -0.046875,0.109375 -0.0625,0.125 l -1.140625,2.453125 -1.265625,-2.6875 0.53125,0 0,-0.46875 c -0.328125,0.015625 -1.21875,0.03125 -1.234375,0.03125 -0.28125,0 -0.71875,-0.03125 -1.125,-0.03125 l 0,0.46875 0.625,0 L 2.765625,0 2.53125,0.484375 C 2.3125,0.953125 2,1.640625 1.28125,1.640625 1.140625,1.640625 1.125,1.625 1.046875,1.59375 1.140625,1.5625 1.359375,1.421875 1.359375,1.0625 1.359375,0.734375 1.125,0.5 0.78125,0.5 0.515625,0.5 0.21875,0.6875 0.21875,1.078125 0.21875,1.578125 0.6875,2 1.28125,2 2.046875,2 2.625,1.375 2.90625,0.8125 z m 0,0"
               id="path8786" />
          </symbol>
        </g>
      </defs>
      <g
         id="textext-f29ea369-2">
        <g
           style="fill:#000000;fill-opacity:1"
           id="g8789">
          <use
             height="227"
             width="280"
             xlink:href="#textext-f29ea369-1"
             x="223.43201"
             y="134.765"
             id="use8791" />
        </g>
      </g>
    </g>
    <g
       id="g9146"
       transform="translate(-334.92238,549.52189)"
       ns0:preamble=""
       ns0:text="$\\hat{\\mathbf{y}}$">
      <defs
         id="defs9148">
        <g
           id="g9150">
          <symbol
             style="overflow:visible"
             id="textext-b45abcc3-0"
             overflow="visible">
            <path
               inkscape:connector-curvature="0"
               id="path9153"
               d=""
               style="stroke:none" />
          </symbol>
          <symbol
             style="overflow:visible"
             id="textext-b45abcc3-1"
             overflow="visible">
            <path
               inkscape:connector-curvature="0"
               id="path9156"
               d="M 2.5,-6.921875 1.15625,-5.5625 1.328125,-5.390625 2.5,-6.40625 3.640625,-5.390625 3.8125,-5.5625 z m 0,0"
               style="stroke:none" />
          </symbol>
          <symbol
             style="overflow:visible"
             id="textext-b45abcc3-2"
             overflow="visible">
            <path
               inkscape:connector-curvature="0"
               id="path9159"
               d=""
               style="stroke:none" />
          </symbol>
          <symbol
             style="overflow:visible"
             id="textext-b45abcc3-3"
             overflow="visible">
            <path
               inkscape:connector-curvature="0"
               id="path9162"
               d="m 5.046875,-3.75 c 0.0625,-0.140625 0.09375,-0.203125 0.734375,-0.203125 l 0,-0.46875 C 5.546875,-4.40625 5.25,-4.390625 5,-4.390625 c -0.25,0 -0.703125,-0.03125 -0.90625,-0.03125 l 0,0.46875 c 0.015625,0 0.46875,0 0.46875,0.109375 0,0.015625 -0.046875,0.109375 -0.0625,0.125 l -1.140625,2.453125 -1.265625,-2.6875 0.53125,0 0,-0.46875 c -0.328125,0.015625 -1.21875,0.03125 -1.234375,0.03125 -0.28125,0 -0.71875,-0.03125 -1.125,-0.03125 l 0,0.46875 0.625,0 L 2.765625,0 2.53125,0.484375 C 2.3125,0.953125 2,1.640625 1.28125,1.640625 1.140625,1.640625 1.125,1.625 1.046875,1.59375 1.140625,1.5625 1.359375,1.421875 1.359375,1.0625 1.359375,0.734375 1.125,0.5 0.78125,0.5 0.515625,0.5 0.21875,0.6875 0.21875,1.078125 0.21875,1.578125 0.6875,2 1.28125,2 2.046875,2 2.625,1.375 2.90625,0.8125 z m 0,0"
               style="stroke:none" />
          </symbol>
        </g>
      </defs>
      <g
         id="textext-b45abcc3-4">
        <g
           id="g9165"
           style="fill:#000000;fill-opacity:1">
          <use
             height="227"
             width="280"
             id="use9167"
             y="134.62601"
             x="224.04401"
             xlink:href="#textext-b45abcc3-1" />
        </g>
        <g
           id="g9169"
           style="fill:#000000;fill-opacity:1">
          <use
             height="227"
             width="280"
             id="use9171"
             y="134.765"
             x="223.43201"
             xlink:href="#textext-b45abcc3-3" />
        </g>
      </g>
    </g>
    <g
       id="g3311"
       transform="translate(-306.65048,492.53998)"
       ns0:preamble="/home/jo/Documents/Mes_papiers/Fercoq/latex/dyn_screen_lasso/mindgap_fig.sty"
       ns0:text="$\\mathbf{r}$">
      <defs
         id="defs3313">
        <g
           id="g3315">
          <symbol
             id="textext-444ff7d6-0"
             overflow="visible">
            <path
               id="path3318"
               d=""
               style="stroke:none;" />
          </symbol>
          <symbol
             id="textext-444ff7d6-1"
             overflow="visible">
            <path
               id="path3321"
               d="M 2.03125 -3.359375 L 2.03125 -4.484375 L 0.375 -4.40625 L 0.375 -3.9375 C 0.984375 -3.9375 1.0625 -3.9375 1.0625 -3.546875 L 1.0625 -0.46875 L 0.375 -0.46875 L 0.375 0 C 0.71875 -0.015625 1.171875 -0.03125 1.625 -0.03125 C 2 -0.03125 2.640625 -0.03125 3 0 L 3 -0.46875 L 2.140625 -0.46875 L 2.140625 -2.21875 C 2.140625 -2.90625 2.375 -4.125 3.375 -4.125 C 3.375 -4.109375 3.1875 -3.953125 3.1875 -3.671875 C 3.1875 -3.265625 3.515625 -3.0625 3.796875 -3.0625 C 4.09375 -3.0625 4.40625 -3.265625 4.40625 -3.671875 C 4.40625 -4.203125 3.875 -4.484375 3.34375 -4.484375 C 2.65625 -4.484375 2.25 -3.984375 2.03125 -3.359375 Z M 2.03125 -3.359375 "
               style="stroke:none;" />
          </symbol>
        </g>
      </defs>
      <g
         id="textext-444ff7d6-2">
        <g
           id="g3324"
           style="fill:rgb(0%,0%,0%);fill-opacity:1;">
          <use
             id="use3326"
             y="134.765"
             x="223.432"
             xlink:href="#textext-444ff7d6-1" />
        </g>
      </g>
    </g>
  </g>
</svg>
