<?xml version="1.0" encoding="UTF-8" standalone="no"?>
<!-- Created with Inkscape (http://www.inkscape.org/) -->

<svg
   xmlns:ns0="http://www.iki.fi/pav/software/textext/"
   xmlns:dc="http://purl.org/dc/elements/1.1/"
   xmlns:cc="http://creativecommons.org/ns#"
   xmlns:rdf="http://www.w3.org/1999/02/22-rdf-syntax-ns#"
   xmlns:svg="http://www.w3.org/2000/svg"
   xmlns="http://www.w3.org/2000/svg"
   xmlns:xlink="http://www.w3.org/1999/xlink"
   xmlns:sodipodi="http://sodipodi.sourceforge.net/DTD/sodipodi-0.dtd"
   xmlns:inkscape="http://www.inkscape.org/namespaces/inkscape"
   sodipodi:docname="dome.svg"
   inkscape:version="0.48.5 r"
   version="1.1"
   id="svg2"
   height="175.27702"
   width="236.6683">
  <sodipodi:namedview
     id="base"
     pagecolor="#ffffff"
     bordercolor="#666666"
     borderopacity="1.0"
     inkscape:pageopacity="0.0"
     inkscape:pageshadow="2"
     inkscape:zoom="2.054538"
     inkscape:cx="145.9288"
     inkscape:cy="109.46997"
     inkscape:document-units="px"
     inkscape:current-layer="layer1"
     showgrid="false"
     inkscape:snap-center="true"
     inkscape:window-width="1280"
     inkscape:window-height="725"
     inkscape:window-x="0"
     inkscape:window-y="24"
     inkscape:window-maximized="1"
     fit-margin-top="0"
     fit-margin-left="0"
     fit-margin-right="0"
     fit-margin-bottom="0" />
  <defs
     id="defs4">
    <marker
       style="overflow:visible"
       id="Arrow1Send"
       refX="0"
       refY="0"
       orient="auto"
       inkscape:stockid="Arrow1Send">
      <path
         inkscape:connector-curvature="0"
         transform="matrix(-0.2,0,0,-0.2,-1.2,0)"
         style="fill-rule:evenodd;stroke:#000000;stroke-width:1pt"
         d="M 0,0 5,-5 -12.5,0 5,5 0,0 z"
         id="path4102" />
    </marker>
    <marker
       style="overflow:visible"
       id="Arrow1Sstart"
       refX="0"
       refY="0"
       orient="auto"
       inkscape:stockid="Arrow1Sstart">
      <path
         inkscape:connector-curvature="0"
         transform="matrix(0.2,0,0,0.2,1.2,0)"
         style="fill-rule:evenodd;stroke:#000000;stroke-width:1pt"
         d="M 0,0 5,-5 -12.5,0 5,5 0,0 z"
         id="path4099" />
    </marker>
    <marker
       style="overflow:visible"
       id="Arrow1Lstart"
       refX="0"
       refY="0"
       orient="auto"
       inkscape:stockid="Arrow1Lstart">
      <path
         inkscape:connector-curvature="0"
         transform="matrix(0.8,0,0,0.8,10,0)"
         style="fill-rule:evenodd;stroke:#000000;stroke-width:1pt"
         d="M 0,0 5,-5 -12.5,0 5,5 0,0 z"
         id="path4087" />
    </marker>
    <marker
       style="overflow:visible"
       id="Arrow1Sstart-8"
       refX="0"
       refY="0"
       orient="auto"
       inkscape:stockid="Arrow1Sstart">
      <path
         transform="matrix(0.2,0,0,0.2,1.2,0)"
         style="fill-rule:evenodd;stroke:#000000;stroke-width:1pt"
         d="M 0,0 5,-5 -12.5,0 5,5 0,0 z"
         id="path4099-3"
         inkscape:connector-curvature="0" />
    </marker>
    <marker
       style="overflow:visible"
       id="Arrow1Send-7"
       refX="0"
       refY="0"
       orient="auto"
       inkscape:stockid="Arrow1Send">
      <path
         transform="matrix(-0.2,0,0,-0.2,-1.2,0)"
         style="fill-rule:evenodd;stroke:#000000;stroke-width:1pt"
         d="M 0,0 5,-5 -12.5,0 5,5 0,0 z"
         id="path4102-2"
         inkscape:connector-curvature="0" />
    </marker>
    <marker
       style="overflow:visible"
       id="Arrow1Sstart-1"
       refX="0"
       refY="0"
       orient="auto"
       inkscape:stockid="Arrow1Sstart">
      <path
         transform="matrix(0.2,0,0,0.2,1.2,0)"
         style="fill-rule:evenodd;stroke:#000000;stroke-width:1pt"
         d="M 0,0 5,-5 -12.5,0 5,5 0,0 z"
         id="path4099-9"
         inkscape:connector-curvature="0" />
    </marker>
    <marker
       style="overflow:visible"
       id="Arrow1Send-2"
       refX="0"
       refY="0"
       orient="auto"
       inkscape:stockid="Arrow1Send">
      <path
         transform="matrix(-0.2,0,0,-0.2,-1.2,0)"
         style="fill-rule:evenodd;stroke:#000000;stroke-width:1pt"
         d="M 0,0 5,-5 -12.5,0 5,5 0,0 z"
         id="path4102-9"
         inkscape:connector-curvature="0" />
    </marker>
  </defs>
  <metadata
     id="metadata7">
    <rdf:RDF>
      <cc:Work
         rdf:about="">
        <dc:format>image/svg+xml</dc:format>
        <dc:type
           rdf:resource="http://purl.org/dc/dcmitype/StillImage" />
        <dc:title />
      </cc:Work>
    </rdf:RDF>
  </metadata>
  <g
     transform="translate(-187.625,-375.68031)"
     id="layer1"
     inkscape:groupmode="layer"
     inkscape:label="Layer 1">
    <path
       transform="matrix(1.7633594,-0.42237078,0.42237078,1.7633594,-535.90823,-278.03981)"
       d="m 392.94934,494.75797 c 0,20.64199 -16.73364,37.37564 -37.37564,37.37564 -20.642,0 -37.37564,-16.73365 -37.37564,-37.37564 0,-20.642 16.73364,-37.37565 37.37564,-37.37565 20.642,0 37.37564,16.73365 37.37564,37.37565 z"
       sodipodi:ry="37.375645"
       sodipodi:rx="37.375645"
       sodipodi:cy="494.75797"
       sodipodi:cx="355.5737"
       id="path2998"
       style="fill:#56b4e9;fill-opacity:1;stroke:#000000;stroke-width:0.82724917;stroke-miterlimit:4;stroke-opacity:1;stroke-dasharray:none"
       sodipodi:type="arc" />
    <rect
       transform="matrix(0.97249177,-0.23293726,0.23293726,0.97249177,0,0)"
       y="538.93579"
       x="78.743134"
       height="46.467152"
       width="217.33253"
       id="rect4025"
       style="fill:#ff8a00;fill-opacity:1;stroke:none" />
    <path
       transform="matrix(0.64598316,-0.15472989,0.15472989,0.64598316,89.79753,199.75925)"
       d="m 224.75895,431.62344 c 0,2.23157 -1.80904,4.04061 -4.04061,4.04061 -2.23157,0 -4.04061,-1.80904 -4.04061,-4.04061 0,-2.23156 1.80904,-4.04061 4.04061,-4.04061 2.23157,0 4.04061,1.80905 4.04061,4.04061 z"
       sodipodi:ry="4.0406103"
       sodipodi:rx="4.0406103"
       sodipodi:cy="431.62344"
       sodipodi:cx="220.71834"
       id="path3002"
       style="fill:#000000;fill-opacity:1;stroke:none"
       sodipodi:type="arc" />
    <path
       sodipodi:nodetypes="cc"
       inkscape:connector-curvature="0"
       id="path3008"
       d="m 283.44678,378.81556 31.48777,131.45858"
       style="fill:none;stroke:#000000;stroke-width:1;stroke-linecap:butt;stroke-linejoin:miter;stroke-miterlimit:4;stroke-opacity:1;stroke-dasharray:2, 2;stroke-dashoffset:0" />
    <path
       inkscape:connector-curvature="0"
       id="path3780"
       d="M 187.73082,471.1199 410.59501,417.73809"
       style="fill:none;stroke:#000000;stroke-width:1;stroke-linecap:butt;stroke-linejoin:miter;stroke-miterlimit:4;stroke-opacity:1;stroke-dasharray:2, 2;stroke-dashoffset:0" />
    <g
       id="g3792"
       ns0:preamble=""
       ns0:text="$c$"
       transform="matrix(1.2,0,0,1.2,16.548746,276.096)">
      <defs
         id="defs3794">
        <g
           id="g3796">
          <symbol
             id="textext-2f24d870-0"
             overflow="visible"
             style="overflow:visible">
            <path
               id="path3799"
               d=""
               style="stroke:none"
               inkscape:connector-curvature="0" />
          </symbol>
          <symbol
             id="textext-2f24d870-1"
             overflow="visible"
             style="overflow:visible">
            <path
               id="path3802"
               d="m 3.953125,-3.78125 c -0.171875,0 -0.296875,0 -0.4375,0.125 -0.171875,0.15625 -0.1875,0.328125 -0.1875,0.390625 0,0.25 0.1875,0.359375 0.375,0.359375 0.28125,0 0.546875,-0.25 0.546875,-0.640625 0,-0.484375 -0.46875,-0.859375 -1.171875,-0.859375 -1.34375,0 -2.671875,1.421875 -2.671875,2.828125 0,0.90625 0.578125,1.6875 1.625,1.6875 1.421875,0 2.25,-1.0625 2.25,-1.171875 0,-0.0625 -0.046875,-0.140625 -0.109375,-0.140625 -0.0625,0 -0.078125,0.03125 -0.140625,0.109375 -0.78125,0.984375 -1.875,0.984375 -1.984375,0.984375 -0.625,0 -0.90625,-0.484375 -0.90625,-1.09375 0,-0.40625 0.203125,-1.375 0.546875,-1.984375 0.3125,-0.578125 0.859375,-1 1.40625,-1 0.328125,0 0.71875,0.125 0.859375,0.40625 z m 0,0"
               style="stroke:none"
               inkscape:connector-curvature="0" />
          </symbol>
        </g>
      </defs>
      <g
         id="textext-2f24d870-2">
        <g
           id="g3805"
           style="fill:#000000;fill-opacity:1">
          <use
             id="use3807"
             y="134.765"
             x="223.43201"
             xlink:href="#textext-2f24d870-1"
             width="744.09448"
             height="1052.3622" />
        </g>
      </g>
    </g>
    <g
       ns0:text="$r$"
       ns0:preamble=""
       transform="matrix(1.2,0,0,1.2,46.892631,259.24418)"
       id="g3980">
      <defs
         id="defs3982">
        <g
           id="g3984">
          <symbol
             style="overflow:visible"
             overflow="visible"
             id="textext-5b5dd250-0">
            <path
               inkscape:connector-curvature="0"
               style="stroke:none"
               d=""
               id="path3987" />
          </symbol>
          <symbol
             style="overflow:visible"
             overflow="visible"
             id="textext-5b5dd250-1">
            <path
               inkscape:connector-curvature="0"
               style="stroke:none"
               d="m 0.875,-0.59375 c -0.03125,0.15625 -0.09375,0.390625 -0.09375,0.4375 0,0.171875 0.140625,0.265625 0.296875,0.265625 0.125,0 0.296875,-0.078125 0.375,-0.28125 C 1.46875,-0.203125 1.796875,-1.5625 1.84375,-1.75 c 0.078125,-0.328125 0.265625,-1.015625 0.3125,-1.296875 0.046875,-0.125 0.328125,-0.59375 0.5625,-0.8125 0.078125,-0.0625 0.375,-0.328125 0.796875,-0.328125 0.265625,0 0.40625,0.125 0.421875,0.125 -0.296875,0.046875 -0.515625,0.28125 -0.515625,0.546875 0,0.15625 0.109375,0.34375 0.375,0.34375 0.265625,0 0.546875,-0.234375 0.546875,-0.59375 0,-0.34375 -0.3125,-0.640625 -0.828125,-0.640625 C 2.875,-4.40625 2.4375,-3.921875 2.25,-3.640625 2.15625,-4.09375 1.796875,-4.40625 1.328125,-4.40625 0.875,-4.40625 0.6875,-4.015625 0.59375,-3.84375 0.421875,-3.5 0.296875,-2.90625 0.296875,-2.875 c 0,0.109375 0.09375,0.109375 0.109375,0.109375 0.109375,0 0.109375,-0.015625 0.171875,-0.234375 0.171875,-0.703125 0.375,-1.1875 0.734375,-1.1875 0.15625,0 0.296875,0.078125 0.296875,0.453125 0,0.21875 -0.03125,0.328125 -0.15625,0.84375 z m 0,0"
               id="path3990" />
          </symbol>
        </g>
      </defs>
      <g
         id="textext-5b5dd250-2">
        <g
           style="fill:#000000;fill-opacity:1"
           id="g3993">
          <use
             height="1052.3622"
             width="744.09448"
             xlink:href="#textext-5b5dd250-1"
             x="223.43201"
             y="134.765"
             id="use3995" />
        </g>
      </g>
    </g>
    <path
       sodipodi:nodetypes="cc"
       inkscape:connector-curvature="0"
       id="path4081"
       d="m 390.98495,422.94123 8.06422,33.85772"
       style="fill:none;stroke:#000000;stroke-width:1px;stroke-linecap:butt;stroke-linejoin:miter;stroke-opacity:1;marker-start:none;marker-mid:none;marker-end:url(#Arrow1Send-2)" />
    <path
       transform="matrix(-0.64598316,0.15472989,-0.15472989,-0.64598316,411.71111,679.29652)"
       d="m 224.75895,431.62344 c 0,2.23157 -1.80904,4.04061 -4.04061,4.04061 -2.23157,0 -4.04061,-1.80904 -4.04061,-4.04061 0,-2.23156 1.80904,-4.04061 4.04061,-4.04061 2.23157,0 4.04061,1.80905 4.04061,4.04061 z"
       sodipodi:ry="4.0406103"
       sodipodi:rx="4.0406103"
       sodipodi:cy="431.62344"
       sodipodi:cx="220.71834"
       id="path3002-7"
       style="fill:#000000;fill-opacity:1;stroke:none"
       sodipodi:type="arc" />
    <path
       sodipodi:nodetypes="cc"
       inkscape:connector-curvature="0"
       id="path4081-9"
       d="m 202.34573,434.62677 -7.7171,-32.21822"
       style="fill:none;stroke:#000000;stroke-width:1px;stroke-linecap:butt;stroke-linejoin:miter;stroke-opacity:1;marker-start:url(#Arrow1Sstart);marker-mid:none;marker-end:url(#Arrow1Send)" />
    <path
       sodipodi:nodetypes="cc"
       inkscape:connector-curvature="0"
       id="path4081-99"
       d="m 348.14111,400.05834 -46.08957,41.03197"
       style="fill:none;stroke:#000000;stroke-width:1px;stroke-linecap:butt;stroke-linejoin:miter;stroke-opacity:1;marker-start:url(#Arrow1Sstart);marker-mid:none;marker-end:url(#Arrow1Send)" />
    <g
       id="g5664"
       transform="matrix(1.2,0,0,1.2,-60.237328,281.84219)"
       ns0:preamble=""
       ns0:text="$0$">
      <defs
         id="defs5666">
        <g
           id="g5668">
          <symbol
             id="textext-7008435c-0"
             overflow="visible"
             style="overflow:visible">
            <path
               id="path5671"
               d=""
               style="stroke:none"
               inkscape:connector-curvature="0" />
          </symbol>
          <symbol
             id="textext-7008435c-1"
             overflow="visible"
             style="overflow:visible">
            <path
               id="path5674"
               d="m 4.578125,-3.1875 c 0,-0.796875 -0.046875,-1.59375 -0.390625,-2.328125 -0.453125,-0.96875 -1.28125,-1.125 -1.6875,-1.125 -0.609375,0 -1.328125,0.265625 -1.75,1.1875 -0.3125,0.6875 -0.359375,1.46875 -0.359375,2.265625 0,0.75 0.03125,1.640625 0.453125,2.40625 0.421875,0.796875 1.15625,1 1.640625,1 0.53125,0 1.296875,-0.203125 1.734375,-1.15625 0.3125,-0.6875 0.359375,-1.46875 0.359375,-2.25 z M 2.484375,0 C 2.09375,0 1.5,-0.25 1.328125,-1.203125 1.21875,-1.796875 1.21875,-2.71875 1.21875,-3.3125 c 0,-0.640625 0,-1.296875 0.078125,-1.828125 0.1875,-1.1875 0.9375,-1.28125 1.1875,-1.28125 0.328125,0 0.984375,0.1875 1.171875,1.171875 0.109375,0.5625 0.109375,1.3125 0.109375,1.9375 0,0.75 0,1.421875 -0.109375,2.0625 C 3.5,-0.296875 2.9375,0 2.484375,0 z m 0,0"
               style="stroke:none"
               inkscape:connector-curvature="0" />
          </symbol>
        </g>
      </defs>
      <g
         id="textext-7008435c-2">
        <g
           id="g5677"
           style="fill:#000000;fill-opacity:1">
          <use
             id="use5679"
             y="134.765"
             x="223.43201"
             xlink:href="#textext-7008435c-1"
             width="744.09448"
             height="1052.3622" />
        </g>
      </g>
    </g>
    <g
       ns0:text="$w$"
       ns0:preamble=""
       transform="matrix(1.2,0,0,1.2,-71.444859,237.94927)"
       id="g5870">
      <defs
         id="defs5872">
        <g
           id="g5874">
          <symbol
             style="overflow:visible"
             overflow="visible"
             id="textext-8b467ed8-0">
            <path
               inkscape:connector-curvature="0"
               style="stroke:none"
               d=""
               id="path5877" />
          </symbol>
          <symbol
             style="overflow:visible"
             overflow="visible"
             id="textext-8b467ed8-1">
            <path
               inkscape:connector-curvature="0"
               style="stroke:none"
               d="M 4.609375,-3.375 C 4.65625,-3.59375 4.75,-3.96875 4.75,-4.03125 c 0,-0.171875 -0.140625,-0.265625 -0.28125,-0.265625 -0.125,0 -0.296875,0.078125 -0.375,0.28125 -0.03125,0.0625 -0.5,1.96875 -0.5625,2.234375 C 3.453125,-1.484375 3.4375,-1.3125 3.4375,-1.125 c 0,0.109375 0,0.125 0.015625,0.171875 -0.234375,0.53125 -0.53125,0.84375 -0.921875,0.84375 -0.796875,0 -0.796875,-0.734375 -0.796875,-0.90625 0,-0.3125 0.046875,-0.703125 0.515625,-1.9375 0.109375,-0.296875 0.171875,-0.4375 0.171875,-0.640625 0,-0.4375 -0.328125,-0.8125 -0.8125,-0.8125 -0.953125,0 -1.3125,1.453125 -1.3125,1.53125 0,0.109375 0.09375,0.109375 0.109375,0.109375 0.109375,0 0.109375,-0.03125 0.15625,-0.1875 C 0.84375,-3.875 1.21875,-4.1875 1.578125,-4.1875 c 0.09375,0 0.25,0.015625 0.25,0.328125 0,0.25 -0.109375,0.53125 -0.1875,0.703125 -0.4375,1.171875 -0.546875,1.625 -0.546875,2.015625 0,0.90625 0.65625,1.25 1.40625,1.25 0.171875,0 0.640625,0 1.03125,-0.703125 0.265625,0.640625 0.953125,0.703125 1.25,0.703125 0.75,0 1.1875,-0.625 1.453125,-1.21875 0.328125,-0.78125 0.65625,-2.125 0.65625,-2.59375 0,-0.546875 -0.265625,-0.703125 -0.4375,-0.703125 -0.25,0 -0.5,0.265625 -0.5,0.484375 0,0.125 0.0625,0.1875 0.140625,0.265625 0.109375,0.109375 0.359375,0.359375 0.359375,0.84375 0,0.34375 -0.28125,1.3125 -0.546875,1.828125 -0.25,0.53125 -0.609375,0.875 -1.09375,0.875 -0.46875,0 -0.734375,-0.296875 -0.734375,-0.875 0,-0.265625 0.0625,-0.578125 0.109375,-0.71875 z m 0,0"
               id="path5880" />
          </symbol>
        </g>
      </defs>
      <g
         id="textext-8b467ed8-2">
        <g
           style="fill:#000000;fill-opacity:1"
           id="g5883">
          <use
             height="1052.3622"
             width="744.09448"
             xlink:href="#textext-8b467ed8-1"
             x="223.43201"
             y="134.765"
             id="use5885" />
        </g>
      </g>
    </g>
    <path
       sodipodi:open="true"
       sodipodi:end="2.545991"
       sodipodi:start="0.59327812"
       sodipodi:type="arc"
       style="fill:#0000ff;fill-opacity:1;stroke:#000000;stroke-width:0.82724917;stroke-miterlimit:4;stroke-opacity:1;stroke-dasharray:none"
       id="path5978"
       sodipodi:cx="355.5737"
       sodipodi:cy="494.75797"
       sodipodi:rx="37.375645"
       sodipodi:ry="37.375645"
       d="m 386.56231,515.65401 c -11.54057,17.11454 -34.77012,21.63313 -51.88466,10.09257 -3.95705,-2.6683 -7.36644,-6.06978 -10.04392,-10.02062"
       transform="matrix(1.7633594,-0.42237078,0.42237078,1.7633594,-535.90823,-278.03981)" />
    <path
       style="fill:none;stroke:#ff0000;stroke-width:1.5;stroke-linecap:butt;stroke-linejoin:miter;stroke-miterlimit:4;stroke-opacity:1;stroke-dasharray:none"
       d="m 196.53831,507.8904 222.8642,-53.38181"
       id="path4077"
       inkscape:connector-curvature="0" />
    <g
       style="fill:#ffffff"
       ns0:text="$D(c,r,\\alpha,w)$"
       ns0:preamble=""
       transform="matrix(1.2,0,0,1.2,2.8208199,338.81813)"
       id="g6390">
      <defs
         id="defs6392">
        <g
           id="g6394">
          <symbol
             style="overflow:visible"
             overflow="visible"
             id="textext-02b40dd7-0">
            <path
               inkscape:connector-curvature="0"
               style="stroke:none"
               d=""
               id="path6397" />
          </symbol>
          <symbol
             style="overflow:visible"
             overflow="visible"
             id="textext-02b40dd7-1">
            <path
               inkscape:connector-curvature="0"
               style="stroke:none"
               d="m 1.578125,-0.78125 c -0.09375,0.390625 -0.109375,0.46875 -0.90625,0.46875 -0.15625,0 -0.265625,0 -0.265625,0.1875 C 0.40625,0 0.484375,0 0.671875,0 l 3.3125,0 c 2.0625,0 4.03125,-2.109375 4.03125,-4.28125 0,-1.40625 -0.84375,-2.53125 -2.34375,-2.53125 l -3.34375,0 c -0.1875,0 -0.296875,0 -0.296875,0.1875 0,0.125 0.078125,0.125 0.28125,0.125 0.125,0 0.3125,0.015625 0.421875,0.015625 0.171875,0.03125 0.21875,0.046875 0.21875,0.171875 0,0.03125 0,0.0625 -0.03125,0.1875 z M 3.734375,-6.125 C 3.828125,-6.46875 3.84375,-6.5 4.28125,-6.5 l 1.0625,0 c 0.96875,0 1.796875,0.53125 1.796875,1.84375 0,0.484375 -0.1875,2.125 -1.046875,3.21875 -0.28125,0.375 -1.0625,1.125 -2.296875,1.125 l -1.125,0 c -0.140625,0 -0.15625,0 -0.21875,0 -0.09375,-0.015625 -0.125,-0.03125 -0.125,-0.109375 0,-0.03125 0,-0.046875 0.046875,-0.21875 z m 0,0"
               id="path6400" />
          </symbol>
          <symbol
             style="overflow:visible"
             overflow="visible"
             id="textext-02b40dd7-2">
            <path
               inkscape:connector-curvature="0"
               style="stroke:none"
               d="m 3.953125,-3.78125 c -0.171875,0 -0.296875,0 -0.4375,0.125 -0.171875,0.15625 -0.1875,0.328125 -0.1875,0.390625 0,0.25 0.1875,0.359375 0.375,0.359375 0.28125,0 0.546875,-0.25 0.546875,-0.640625 0,-0.484375 -0.46875,-0.859375 -1.171875,-0.859375 -1.34375,0 -2.671875,1.421875 -2.671875,2.828125 0,0.90625 0.578125,1.6875 1.625,1.6875 1.421875,0 2.25,-1.0625 2.25,-1.171875 0,-0.0625 -0.046875,-0.140625 -0.109375,-0.140625 -0.0625,0 -0.078125,0.03125 -0.140625,0.109375 -0.78125,0.984375 -1.875,0.984375 -1.984375,0.984375 -0.625,0 -0.90625,-0.484375 -0.90625,-1.09375 0,-0.40625 0.203125,-1.375 0.546875,-1.984375 0.3125,-0.578125 0.859375,-1 1.40625,-1 0.328125,0 0.71875,0.125 0.859375,0.40625 z m 0,0"
               id="path6403" />
          </symbol>
          <symbol
             style="overflow:visible"
             overflow="visible"
             id="textext-02b40dd7-3">
            <path
               inkscape:connector-curvature="0"
               style="stroke:none"
               d="m 2.03125,-0.015625 c 0,-0.65625 -0.25,-1.046875 -0.640625,-1.046875 -0.328125,0 -0.53125,0.25 -0.53125,0.53125 C 0.859375,-0.265625 1.0625,0 1.390625,0 1.5,0 1.640625,-0.046875 1.734375,-0.125 1.765625,-0.15625 1.78125,-0.15625 1.78125,-0.15625 c 0.015625,0 0.015625,0 0.015625,0.140625 0,0.75 -0.34375,1.34375 -0.671875,1.671875 -0.109375,0.109375 -0.109375,0.125 -0.109375,0.15625 0,0.078125 0.046875,0.109375 0.09375,0.109375 0.109375,0 0.921875,-0.765625 0.921875,-1.9375 z m 0,0"
               id="path6406" />
          </symbol>
          <symbol
             style="overflow:visible"
             overflow="visible"
             id="textext-02b40dd7-4">
            <path
               inkscape:connector-curvature="0"
               style="stroke:none"
               d="m 0.875,-0.59375 c -0.03125,0.15625 -0.09375,0.390625 -0.09375,0.4375 0,0.171875 0.140625,0.265625 0.296875,0.265625 0.125,0 0.296875,-0.078125 0.375,-0.28125 C 1.46875,-0.203125 1.796875,-1.5625 1.84375,-1.75 c 0.078125,-0.328125 0.265625,-1.015625 0.3125,-1.296875 0.046875,-0.125 0.328125,-0.59375 0.5625,-0.8125 0.078125,-0.0625 0.375,-0.328125 0.796875,-0.328125 0.265625,0 0.40625,0.125 0.421875,0.125 -0.296875,0.046875 -0.515625,0.28125 -0.515625,0.546875 0,0.15625 0.109375,0.34375 0.375,0.34375 0.265625,0 0.546875,-0.234375 0.546875,-0.59375 0,-0.34375 -0.3125,-0.640625 -0.828125,-0.640625 C 2.875,-4.40625 2.4375,-3.921875 2.25,-3.640625 2.15625,-4.09375 1.796875,-4.40625 1.328125,-4.40625 0.875,-4.40625 0.6875,-4.015625 0.59375,-3.84375 0.421875,-3.5 0.296875,-2.90625 0.296875,-2.875 c 0,0.109375 0.09375,0.109375 0.109375,0.109375 0.109375,0 0.109375,-0.015625 0.171875,-0.234375 0.171875,-0.703125 0.375,-1.1875 0.734375,-1.1875 0.15625,0 0.296875,0.078125 0.296875,0.453125 0,0.21875 -0.03125,0.328125 -0.15625,0.84375 z m 0,0"
               id="path6409" />
          </symbol>
          <symbol
             style="overflow:visible"
             overflow="visible"
             id="textext-02b40dd7-5">
            <path
               inkscape:connector-curvature="0"
               style="stroke:none"
               d="m 4.75,-2.359375 c 0,-1.5625 -0.921875,-2.046875 -1.65625,-2.046875 -1.375,0 -2.6875,1.421875 -2.6875,2.828125 0,0.9375 0.59375,1.6875 1.625,1.6875 0.625,0 1.34375,-0.234375 2.09375,-0.84375 0.125,0.53125 0.453125,0.84375 0.90625,0.84375 0.53125,0 0.84375,-0.546875 0.84375,-0.703125 0,-0.078125 -0.0625,-0.109375 -0.125,-0.109375 -0.0625,0 -0.09375,0.03125 -0.125,0.109375 -0.1875,0.484375 -0.546875,0.484375 -0.5625,0.484375 -0.3125,0 -0.3125,-0.78125 -0.3125,-1.015625 0,-0.203125 0,-0.234375 0.109375,-0.34375 C 5.796875,-2.65625 6,-3.8125 6,-3.8125 6,-3.84375 5.984375,-3.921875 5.875,-3.921875 c -0.09375,0 -0.09375,0.03125 -0.140625,0.21875 -0.1875,0.625 -0.515625,1.375 -0.984375,1.96875 z m -0.65625,1.375 c -0.890625,0.765625 -1.65625,0.875 -2.046875,0.875 -0.59375,0 -0.90625,-0.453125 -0.90625,-1.09375 0,-0.484375 0.265625,-1.5625 0.578125,-2.0625 C 2.1875,-4 2.734375,-4.1875 3.078125,-4.1875 c 0.984375,0 0.984375,1.3125 0.984375,2.078125 0,0.375 0,0.953125 0.03125,1.125 z m 0,0"
               id="path6412" />
          </symbol>
          <symbol
             style="overflow:visible"
             overflow="visible"
             id="textext-02b40dd7-6">
            <path
               inkscape:connector-curvature="0"
               style="stroke:none"
               d="M 4.609375,-3.375 C 4.65625,-3.59375 4.75,-3.96875 4.75,-4.03125 c 0,-0.171875 -0.140625,-0.265625 -0.28125,-0.265625 -0.125,0 -0.296875,0.078125 -0.375,0.28125 -0.03125,0.0625 -0.5,1.96875 -0.5625,2.234375 C 3.453125,-1.484375 3.4375,-1.3125 3.4375,-1.125 c 0,0.109375 0,0.125 0.015625,0.171875 -0.234375,0.53125 -0.53125,0.84375 -0.921875,0.84375 -0.796875,0 -0.796875,-0.734375 -0.796875,-0.90625 0,-0.3125 0.046875,-0.703125 0.515625,-1.9375 0.109375,-0.296875 0.171875,-0.4375 0.171875,-0.640625 0,-0.4375 -0.328125,-0.8125 -0.8125,-0.8125 -0.953125,0 -1.3125,1.453125 -1.3125,1.53125 0,0.109375 0.09375,0.109375 0.109375,0.109375 0.109375,0 0.109375,-0.03125 0.15625,-0.1875 C 0.84375,-3.875 1.21875,-4.1875 1.578125,-4.1875 c 0.09375,0 0.25,0.015625 0.25,0.328125 0,0.25 -0.109375,0.53125 -0.1875,0.703125 -0.4375,1.171875 -0.546875,1.625 -0.546875,2.015625 0,0.90625 0.65625,1.25 1.40625,1.25 0.171875,0 0.640625,0 1.03125,-0.703125 0.265625,0.640625 0.953125,0.703125 1.25,0.703125 0.75,0 1.1875,-0.625 1.453125,-1.21875 0.328125,-0.78125 0.65625,-2.125 0.65625,-2.59375 0,-0.546875 -0.265625,-0.703125 -0.4375,-0.703125 -0.25,0 -0.5,0.265625 -0.5,0.484375 0,0.125 0.0625,0.1875 0.140625,0.265625 0.109375,0.109375 0.359375,0.359375 0.359375,0.84375 0,0.34375 -0.28125,1.3125 -0.546875,1.828125 -0.25,0.53125 -0.609375,0.875 -1.09375,0.875 -0.46875,0 -0.734375,-0.296875 -0.734375,-0.875 0,-0.265625 0.0625,-0.578125 0.109375,-0.71875 z m 0,0"
               id="path6415" />
          </symbol>
          <symbol
             style="overflow:visible"
             overflow="visible"
             id="textext-02b40dd7-7">
            <path
               inkscape:connector-curvature="0"
               style="stroke:none"
               d=""
               id="path6418" />
          </symbol>
          <symbol
             style="overflow:visible"
             overflow="visible"
             id="textext-02b40dd7-8">
            <path
               inkscape:connector-curvature="0"
               style="stroke:none"
               d="m 3.296875,2.390625 c 0,-0.03125 0,-0.046875 -0.171875,-0.21875 C 1.890625,0.921875 1.5625,-0.96875 1.5625,-2.5 c 0,-1.734375 0.375,-3.46875 1.609375,-4.703125 0.125,-0.125 0.125,-0.140625 0.125,-0.171875 0,-0.078125 -0.03125,-0.109375 -0.09375,-0.109375 -0.109375,0 -1,0.6875 -1.59375,1.953125 -0.5,1.09375 -0.625,2.203125 -0.625,3.03125 0,0.78125 0.109375,1.984375 0.65625,3.125 C 2.25,1.84375 3.09375,2.5 3.203125,2.5 c 0.0625,0 0.09375,-0.03125 0.09375,-0.109375 z m 0,0"
               id="path6421" />
          </symbol>
          <symbol
             style="overflow:visible"
             overflow="visible"
             id="textext-02b40dd7-9">
            <path
               inkscape:connector-curvature="0"
               style="stroke:none"
               d="m 2.875,-2.5 c 0,-0.765625 -0.109375,-1.96875 -0.65625,-3.109375 -0.59375,-1.21875 -1.453125,-1.875 -1.546875,-1.875 -0.0625,0 -0.109375,0.046875 -0.109375,0.109375 0,0.03125 0,0.046875 0.1875,0.234375 0.984375,0.984375 1.546875,2.5625 1.546875,4.640625 0,1.71875 -0.359375,3.46875 -1.59375,4.71875 C 0.5625,2.34375 0.5625,2.359375 0.5625,2.390625 0.5625,2.453125 0.609375,2.5 0.671875,2.5 0.765625,2.5 1.671875,1.8125 2.25,0.546875 2.765625,-0.546875 2.875,-1.65625 2.875,-2.5 z m 0,0"
               id="path6424" />
          </symbol>
        </g>
      </defs>
      <g
         style="fill:#ffffff"
         id="textext-02b40dd7-10">
        <g
           style="fill:#ffffff;fill-opacity:1"
           id="g6427">
          <use
             style="fill:#ffffff"
             height="1052.3622"
             width="744.09448"
             xlink:href="#textext-02b40dd7-1"
             x="223.43201"
             y="134.765"
             id="use6429" />
        </g>
        <g
           style="fill:#ffffff;fill-opacity:1"
           id="g6431">
          <use
             style="fill:#ffffff"
             height="1052.3622"
             width="744.09448"
             xlink:href="#textext-02b40dd7-8"
             x="231.957"
             y="134.765"
             id="use6433" />
        </g>
        <g
           style="fill:#ffffff;fill-opacity:1"
           id="g6435">
          <use
             style="fill:#ffffff"
             height="1052.3622"
             width="744.09448"
             xlink:href="#textext-02b40dd7-2"
             x="235.83099"
             y="134.765"
             id="use6437" />
          <use
             style="fill:#ffffff"
             height="1052.3622"
             width="744.09448"
             xlink:href="#textext-02b40dd7-3"
             x="240.14281"
             y="134.765"
             id="use6439" />
        </g>
        <g
           style="fill:#ffffff;fill-opacity:1"
           id="g6441">
          <use
             style="fill:#ffffff"
             height="1052.3622"
             width="744.09448"
             xlink:href="#textext-02b40dd7-4"
             x="244.57417"
             y="134.765"
             id="use6443" />
        </g>
        <g
           style="fill:#ffffff;fill-opacity:1"
           id="g6445">
          <use
             style="fill:#ffffff"
             height="1052.3622"
             width="744.09448"
             xlink:href="#textext-02b40dd7-3"
             x="248.79034"
             y="134.765"
             id="use6447" />
        </g>
        <g
           style="fill:#ffffff;fill-opacity:1"
           id="g6449">
          <use
             style="fill:#ffffff"
             height="1052.3622"
             width="744.09448"
             xlink:href="#textext-02b40dd7-5"
             x="253.21175"
             y="134.765"
             id="use6451" />
        </g>
        <g
           style="fill:#ffffff;fill-opacity:1"
           id="g6453">
          <use
             style="fill:#ffffff"
             height="1052.3622"
             width="744.09448"
             xlink:href="#textext-02b40dd7-3"
             x="259.62466"
             y="134.765"
             id="use6455" />
        </g>
        <g
           style="fill:#ffffff;fill-opacity:1"
           id="g6457">
          <use
             style="fill:#ffffff"
             height="1052.3622"
             width="744.09448"
             xlink:href="#textext-02b40dd7-6"
             x="264.05603"
             y="134.765"
             id="use6459" />
        </g>
        <g
           style="fill:#ffffff;fill-opacity:1"
           id="g6461">
          <use
             style="fill:#ffffff"
             height="1052.3622"
             width="744.09448"
             xlink:href="#textext-02b40dd7-9"
             x="271.45499"
             y="134.765"
             id="use6463" />
        </g>
      </g>
    </g>
    <g
       id="g4239"
       transform="matrix(1.2,0,0,1.2,128.91466,271.66447)"
       ns0:preamble="/home/jo/Documents/Mes_papiers/Fercoq/latex/dyn_screen_lasso/mindgap_fig.sty"
       ns0:text="$\\alpha r w$">
      <defs
         id="defs4241">
        <g
           id="g4243">
          <symbol
             id="textext-5f4dde1d-0"
             overflow="visible"
             style="overflow:visible">
            <path
               id="path4246"
               d=""
               style="stroke:none"
               inkscape:connector-curvature="0" />
          </symbol>
          <symbol
             id="textext-5f4dde1d-1"
             overflow="visible"
             style="overflow:visible">
            <path
               id="path4249"
               d="m 4.75,-2.359375 c 0,-1.5625 -0.921875,-2.046875 -1.65625,-2.046875 -1.375,0 -2.6875,1.421875 -2.6875,2.828125 0,0.9375 0.59375,1.6875 1.625,1.6875 0.625,0 1.34375,-0.234375 2.09375,-0.84375 0.125,0.53125 0.453125,0.84375 0.90625,0.84375 0.53125,0 0.84375,-0.546875 0.84375,-0.703125 0,-0.078125 -0.0625,-0.109375 -0.125,-0.109375 -0.0625,0 -0.09375,0.03125 -0.125,0.109375 -0.1875,0.484375 -0.546875,0.484375 -0.5625,0.484375 -0.3125,0 -0.3125,-0.78125 -0.3125,-1.015625 0,-0.203125 0,-0.234375 0.109375,-0.34375 C 5.796875,-2.65625 6,-3.8125 6,-3.8125 6,-3.84375 5.984375,-3.921875 5.875,-3.921875 c -0.09375,0 -0.09375,0.03125 -0.140625,0.21875 -0.1875,0.625 -0.515625,1.375 -0.984375,1.96875 z m -0.65625,1.375 c -0.890625,0.765625 -1.65625,0.875 -2.046875,0.875 -0.59375,0 -0.90625,-0.453125 -0.90625,-1.09375 0,-0.484375 0.265625,-1.5625 0.578125,-2.0625 C 2.1875,-4 2.734375,-4.1875 3.078125,-4.1875 c 0.984375,0 0.984375,1.3125 0.984375,2.078125 0,0.375 0,0.953125 0.03125,1.125 z m 0,0"
               style="stroke:none"
               inkscape:connector-curvature="0" />
          </symbol>
          <symbol
             id="textext-5f4dde1d-2"
             overflow="visible"
             style="overflow:visible">
            <path
               id="path4252"
               d="m 0.875,-0.59375 c -0.03125,0.15625 -0.09375,0.390625 -0.09375,0.4375 0,0.171875 0.140625,0.265625 0.296875,0.265625 0.125,0 0.296875,-0.078125 0.375,-0.28125 C 1.46875,-0.203125 1.796875,-1.5625 1.84375,-1.75 c 0.078125,-0.328125 0.265625,-1.015625 0.3125,-1.296875 0.046875,-0.125 0.328125,-0.59375 0.5625,-0.8125 0.078125,-0.0625 0.375,-0.328125 0.796875,-0.328125 0.265625,0 0.40625,0.125 0.421875,0.125 -0.296875,0.046875 -0.515625,0.28125 -0.515625,0.546875 0,0.15625 0.109375,0.34375 0.375,0.34375 0.265625,0 0.546875,-0.234375 0.546875,-0.59375 0,-0.34375 -0.3125,-0.640625 -0.828125,-0.640625 C 2.875,-4.40625 2.4375,-3.921875 2.25,-3.640625 2.15625,-4.09375 1.796875,-4.40625 1.328125,-4.40625 0.875,-4.40625 0.6875,-4.015625 0.59375,-3.84375 0.421875,-3.5 0.296875,-2.90625 0.296875,-2.875 c 0,0.109375 0.09375,0.109375 0.109375,0.109375 0.109375,0 0.109375,-0.015625 0.171875,-0.234375 0.171875,-0.703125 0.375,-1.1875 0.734375,-1.1875 0.15625,0 0.296875,0.078125 0.296875,0.453125 0,0.21875 -0.03125,0.328125 -0.15625,0.84375 z m 0,0"
               style="stroke:none"
               inkscape:connector-curvature="0" />
          </symbol>
          <symbol
             id="textext-5f4dde1d-3"
             overflow="visible"
             style="overflow:visible">
            <path
               id="path4255"
               d="M 4.609375,-3.375 C 4.65625,-3.59375 4.75,-3.96875 4.75,-4.03125 c 0,-0.171875 -0.140625,-0.265625 -0.28125,-0.265625 -0.125,0 -0.296875,0.078125 -0.375,0.28125 -0.03125,0.0625 -0.5,1.96875 -0.5625,2.234375 C 3.453125,-1.484375 3.4375,-1.3125 3.4375,-1.125 c 0,0.109375 0,0.125 0.015625,0.171875 -0.234375,0.53125 -0.53125,0.84375 -0.921875,0.84375 -0.796875,0 -0.796875,-0.734375 -0.796875,-0.90625 0,-0.3125 0.046875,-0.703125 0.515625,-1.9375 0.109375,-0.296875 0.171875,-0.4375 0.171875,-0.640625 0,-0.4375 -0.328125,-0.8125 -0.8125,-0.8125 -0.953125,0 -1.3125,1.453125 -1.3125,1.53125 0,0.109375 0.09375,0.109375 0.109375,0.109375 0.109375,0 0.109375,-0.03125 0.15625,-0.1875 C 0.84375,-3.875 1.21875,-4.1875 1.578125,-4.1875 c 0.09375,0 0.25,0.015625 0.25,0.328125 0,0.25 -0.109375,0.53125 -0.1875,0.703125 -0.4375,1.171875 -0.546875,1.625 -0.546875,2.015625 0,0.90625 0.65625,1.25 1.40625,1.25 0.171875,0 0.640625,0 1.03125,-0.703125 0.265625,0.640625 0.953125,0.703125 1.25,0.703125 0.75,0 1.1875,-0.625 1.453125,-1.21875 0.328125,-0.78125 0.65625,-2.125 0.65625,-2.59375 0,-0.546875 -0.265625,-0.703125 -0.4375,-0.703125 -0.25,0 -0.5,0.265625 -0.5,0.484375 0,0.125 0.0625,0.1875 0.140625,0.265625 0.109375,0.109375 0.359375,0.359375 0.359375,0.84375 0,0.34375 -0.28125,1.3125 -0.546875,1.828125 -0.25,0.53125 -0.609375,0.875 -1.09375,0.875 -0.46875,0 -0.734375,-0.296875 -0.734375,-0.875 0,-0.265625 0.0625,-0.578125 0.109375,-0.71875 z m 0,0"
               style="stroke:none"
               inkscape:connector-curvature="0" />
          </symbol>
        </g>
      </defs>
      <g
         id="textext-5f4dde1d-4">
        <g
           id="g4258"
           style="fill:#000000;fill-opacity:1">
          <use
             id="use4260"
             y="134.765"
             x="223.43201"
             xlink:href="#textext-5f4dde1d-1"
             width="236.6683"
             height="175.27702" />
        </g>
        <g
           id="g4262"
           style="fill:#000000;fill-opacity:1">
          <use
             id="use4264"
             y="134.765"
             x="229.84492"
             xlink:href="#textext-5f4dde1d-2"
             width="236.6683"
             height="175.27702" />
        </g>
        <g
           id="g4266"
           style="fill:#000000;fill-opacity:1">
          <use
             id="use4268"
             y="134.765"
             x="234.60904"
             xlink:href="#textext-5f4dde1d-3"
             width="236.6683"
             height="175.27702" />
        </g>
      </g>
    </g>
  </g>
</svg>
