<?xml version="1.0" encoding="UTF-8" standalone="no"?>
<!-- Created with Inkscape (http://www.inkscape.org/) -->

<svg
   xmlns:dc="http://purl.org/dc/elements/1.1/"
   xmlns:cc="http://creativecommons.org/ns#"
   xmlns:rdf="http://www.w3.org/1999/02/22-rdf-syntax-ns#"
   xmlns:svg="http://www.w3.org/2000/svg"
   xmlns="http://www.w3.org/2000/svg"
   xmlns:sodipodi="http://sodipodi.sourceforge.net/DTD/sodipodi-0.dtd"
   xmlns:inkscape="http://www.inkscape.org/namespaces/inkscape"
   version="1.1"
   id="svg2"
   width="482"
   height="562"
   viewBox="0 0 482 562"
   sodipodi:docname="IMAG.svg"
   inkscape:version="0.92.3 (2405546, 2018-03-11)">
  <metadata
     id="metadata8">
    <rdf:RDF>
      <cc:Work
         rdf:about="">
        <dc:format>image/svg+xml</dc:format>
        <dc:type
           rdf:resource="http://purl.org/dc/dcmitype/StillImage" />
        <dc:title></dc:title>
      </cc:Work>
    </rdf:RDF>
  </metadata>
  <defs
     id="defs6" />
  <sodipodi:namedview
     pagecolor="#ffffff"
     bordercolor="#666666"
     borderopacity="1"
     objecttolerance="10"
     gridtolerance="10"
     guidetolerance="10"
     inkscape:pageopacity="0"
     inkscape:pageshadow="2"
     inkscape:window-width="1853"
     inkscape:window-height="1016"
     id="namedview4"
     showgrid="false"
     inkscape:zoom="0.59386904"
     inkscape:cx="819.29153"
     inkscape:cy="-0.24525382"
     inkscape:window-x="67"
     inkscape:window-y="27"
     inkscape:window-maximized="1"
     inkscape:current-layer="svg2" />
  <rect
     style="opacity:1;fill:#ffffff;fill-opacity:1;stroke:#5d5e9c;stroke-width:1;stroke-linejoin:round;stroke-miterlimit:4;stroke-dasharray:none;stroke-dashoffset:0;stroke-opacity:1"
     id="rect876"
     width="562.41357"
     height="626.40076"
     x="-26.941967"
     y="-22.303905" />
  <path
     style="opacity:1;fill:#e0e3f4;fill-opacity:1;stroke:#5d5e9c;stroke-width:1;stroke-linejoin:round;stroke-miterlimit:4;stroke-dasharray:none;stroke-dashoffset:0;stroke-opacity:1"
     d="m 340.12641,70.344053 c -26.70387,6.18385 -51.42959,19.22489 -77.33326,28.10691 -61.1204,24.118127 -122.88714,46.768287 -183.51905,72.027617 -4.338251,3.95389 7.377289,2.98778 9.031084,3.44339 69.181786,2.91752 138.470876,4.65179 207.678746,5.77516 14.77996,-33.42616 31.66116,-66.10158 44.11616,-100.463407 2.05215,-2.46932 -4.59638,-7.45161 1.05901,-4.86416 3.96777,0.88244 2.50988,-5.28033 -1.03269,-4.02551 z"
     id="path841"
     inkscape:connector-curvature="0" />
  <path
     style="opacity:1;fill:#e0e3f4;fill-opacity:1;stroke:#5d5e9c;stroke-width:0.84193647;stroke-linejoin:round;stroke-miterlimit:4;stroke-dasharray:none;stroke-dashoffset:0;stroke-opacity:1"
     d="m 77.187517,177.34998 c -5.014285,-0.59537 -9.368748,2.50124 -12.680023,5.8804 4.635369,25.33595 9.517568,50.63536 14.270165,75.93215 5.059092,29.79026 11.439215,59.34315 16.676676,89.09454 4.567945,16.61676 5.649415,33.94996 9.539175,50.73764 2.11635,9.72996 3.26596,19.86666 5.9948,29.36416 3.68711,-1.2025 5.14793,-6.2186 7.89416,-8.8186 27.7615,-37.28678 55.77681,-74.41187 82.75049,-112.26897 1.98678,-2.41086 2.21946,-5.52325 3.03065,-8.30425 7.81031,-4.15519 11.83803,-13.03557 17.58621,-19.46156 15.6217,-20.50583 30.40618,-41.63379 46.29825,-61.93369 7.21901,-10.53899 15.43869,-20.4456 22.41402,-31.10194 0.87464,-3.3976 -4.64239,-2.39136 -6.46416,-2.86784 -47.58495,-2.62712 -95.25952,-3.04501 -142.86907,-5.1206 -21.47597,-0.55164 -42.957142,-1.12032 -64.441343,-1.13144 z m -3.634139,4.69972 c 2.255708,0.22495 -1.071583,2.71083 -0.774516,0.25981 0.185841,-0.22154 0.506237,-0.25545 0.774516,-0.25981 z m 6.314523,3.47627 c 3.534411,0.37768 -3.137172,0.5935 -0.281193,0.0115 l 0.277905,-0.0115 z m 12.471184,5.79818 c 2.677868,-0.18899 -3.593086,2.82327 -1.56712,0.47853 0.455143,-0.31765 1.013813,-0.47908 1.56712,-0.47853 z m 127.444845,2.5291 c 2.39744,2.38842 -3.11383,1.22932 0,0 z m -8.94558,9.24486 c 2.68356,0.79891 -2.84462,2.37744 -0.68571,0.1332 0.21556,-0.0936 0.45175,-0.13288 0.68571,-0.1332 z m -9.22512,8.42759 c 1.36966,1.7383 -2.81118,2.15754 0,0 z m -6.03004,6.21914 c 1.54794,1.64501 -1.29403,2.70647 -0.59528,0.32231 0.13836,-0.17402 0.35586,-0.36131 0.59528,-0.32231 z m -8.68576,9.03273 c 2.02992,0.88769 -2.21262,3.335 -1.10011,0.56239 0.25253,-0.33909 0.66586,-0.59508 1.10011,-0.56239 z m -22.62869,0.74985 c 1.94627,-0.36399 1.58387,2.7857 -0.15293,0.64461 -0.79275,-0.56589 -1.11828,-0.63879 0.15293,-0.64461 z m 14.15999,5.8804 c 1.77202,0.14354 5.5736,0.42507 5.60414,2.69354 -1.7815,1.34039 -5.37299,4.30873 -6.76984,3.0609 -0.69435,-1.98681 -3.00631,-6.27706 1.1657,-5.75444 z m 11.31188,2.52581 c 2.90759,0.27659 -0.86535,2.81298 -1.14286,0.60679 0.1684,-0.44935 0.70831,-0.60207 1.14286,-0.60679 z m 21.13392,2.53403 c 1.36966,1.73831 -2.81118,2.15755 0,0 z m -6.87033,0.83372 c 3.02281,0.4635 -0.84026,2.63219 -0.70052,0.21541 0.18324,-0.1796 0.45641,-0.21281 0.70052,-0.21541 z m 12.3758,0.0164 c 1.81711,1.11492 -0.7455,2.1624 -0.49989,0.0954 0.12765,-0.1336 0.3339,-0.11763 0.49989,-0.0954 z m 20.45972,2.50937 c 3.02281,0.4635 -0.84026,2.63219 -0.70051,0.21541 0.18324,-0.1796 0.4564,-0.21281 0.70051,-0.21541 z m -62.35921,0.31243 c 0.85904,0.77429 -0.26588,3.00829 -0.14964,0.77945 0.0417,-0.21765 -0.008,-0.63022 0.14964,-0.77945 z m -2.68696,5.59757 c 2.39744,2.38842 -3.11383,1.22932 0,0 z m 14.66154,6.16652 c 2.45399,0.66475 -0.53046,2.13929 -0.34862,0.14471 0.0643,-0.12402 0.21641,-0.17859 0.34862,-0.14471 z m 3.25098,6.01853 c 0.68728,0.79171 -0.22623,3.69759 -0.15293,1.16753 0.0273,-0.35496 -0.031,-0.90054 0.15293,-1.16753 z m -26.76765,0.31573 c 2.55857,0.85677 -1.37306,2.69617 -1.07545,0.65611 0.2005,-0.37881 0.6188,-0.7366 1.07545,-0.65611 z m 29.78515,7.64649 c 1.54183,0.56405 -0.0682,3.82701 -0.54431,1.0738 -0.0843,-0.37862 8e-5,-1.12473 0.54431,-1.0738 z m -36.13585,3.51574 c 2.02992,0.88769 -2.21263,3.335 -1.10011,0.56239 0.25252,-0.33909 0.66586,-0.59508 1.10011,-0.56239 z m 39.14346,2.43044 c 1.06667,1.07663 -1.13568,3.678 -0.72683,1.18233 0.18794,-0.40528 0.34797,-0.92696 0.72683,-1.18233 z m 3.00433,6.74207 c 2.39745,2.38842 -3.11382,1.22932 0,0 z m 1.46024,6.74536 c 1.47042,0.0986 2.1576,2.57348 0.12662,0.63309 -0.32148,-0.15727 -1.05705,-0.8214 -0.12662,-0.63309 z m 2.51594,5.97084 c 2.20703,0.65539 -3.05976,0.48903 -0.21541,0.003 l 0.21377,-0.003 z m -60.99599,0.31079 c 0.68728,0.79171 -0.22624,3.69759 -0.15293,1.16753 0.0273,-0.35496 -0.031,-0.90055 0.15293,-1.16753 z m -11.75258,17.26628 c 2.9076,0.27659 -0.86535,2.81297 -1.14286,0.60678 0.16841,-0.44935 0.70832,-0.60207 1.14286,-0.60678 z m -2.733,6.12377 c 2.15633,1.31035 -2.12706,3.31648 -1.50464,0.96526 0.26438,-0.55483 0.84486,-1.09866 1.50464,-0.96526 z m -7.7912,12.50736 c 3.53441,0.37767 -3.13718,0.5935 -0.2812,0.0115 l 0.27791,-0.0115 z m -3.44668,5.88862 c 2.20703,0.65539 -3.05977,0.48903 -0.21542,0.003 l 0.21377,-0.003 z m -3.93014,5.80476 c 0.96526,1.19398 -1.87227,2.06774 -0.71038,0.20226 0.18951,-0.17471 0.45706,-0.25177 0.71038,-0.20226 z m -3.26743,4.54679 c 1.57721,1.13167 -0.89864,4.53077 -1.02611,1.45529 0.1046,-0.54497 0.38803,-1.38724 1.02611,-1.45529 z"
     id="path845"
     inkscape:connector-curvature="0" />
  <path
     style="fill:#323882;fill-opacity:1;stroke:#5d5e9c;stroke-opacity:1"
     d="m 0,516.09037 v -3.0991 l 35.25,0.092 c 19.3875,0.051 39.879889,0.071 45.538643,0.045 l 10.288642,-0.047 -3.855764,-3.75 c -2.120671,-2.0625 -5.585946,-5.1 -7.700611,-6.75 -2.114664,-1.65 -5.027335,-4.1298 -6.472601,-5.5107 -1.445266,-1.381 -4.841453,-4.306 -7.547083,-6.5 -2.705631,-2.1941 -5.641016,-4.6643 -6.523078,-5.4893 -0.882063,-0.825 -3.726544,-3.2454 -6.321068,-5.3786 -2.594525,-2.1332 -8.191264,-6.8953 -12.437199,-10.5825 L 32.5,462.41657 l 0.330344,-5.4174 c 0.181689,-2.9796 0.744189,-5.8449 1.25,-6.3674 0.505811,-0.5225 0.957628,-5.2475 1.004039,-10.5 0.04641,-5.2525 0.507177,-12.25 1.023926,-15.55 0.516748,-3.3 1.352126,-12.255 1.856395,-19.89992 0.504269,-7.64495 1.357867,-15.06995 1.896885,-16.5 0.539018,-1.43004 1.206362,-8.52806 1.482986,-15.77337 0.276624,-7.24531 0.987259,-14.07823 1.579189,-15.18426 0.59193,-1.10603 1.114208,-6.20305 1.160619,-11.32671 0.04641,-5.12366 0.508473,-12.01574 1.026805,-15.31574 0.518333,-3.3 1.348059,-12.4702 1.843837,-20.37822 0.495777,-7.90802 1.383715,-14.86052 1.973194,-15.45 0.609385,-0.60938 1.103277,-5.40763 1.144784,-11.12178 0.04015,-5.5275 0.50615,-12.525 1.035552,-15.55 0.529402,-3.025 1.3699,-11.75496 1.867775,-19.39992 0.497874,-7.64495 1.346241,-15.06995 1.885259,-16.5 0.539018,-1.43004 1.205759,-8.45008 1.481648,-15.60008 0.275888,-7.15 0.986523,-14.26679 1.579189,-15.8151 C 58.515092,199.21837 59,193.77302 59,188.66589 c 0,-12.42563 0.853809,-14.57 6.906915,-17.34692 2.682155,-1.23046 5.360077,-2.2372 5.950938,-2.2372 0.590861,0 2.55206,-0.62958 4.35822,-1.39906 1.80616,-0.76948 5.308927,-2.168 7.783927,-3.10782 2.475,-0.93982 5.694431,-2.33525 7.154292,-3.10094 1.459861,-0.7657 3.335893,-1.39218 4.168961,-1.39218 0.833067,0 2.788636,-0.63918 4.345707,-1.4204 1.55707,-0.78122 4.85604,-2.19234 7.33104,-3.13582 2.475,-0.94348 5.91801,-2.3293 7.65113,-3.0796 1.73312,-0.7503 3.75812,-1.37849 4.5,-1.39598 0.74188,-0.0175 2.22238,-0.6925 3.29,-1.5 1.06762,-0.80751 2.86762,-1.48251 4,-1.5 1.13238,-0.0175 2.93238,-0.6925 4,-1.5 1.06762,-0.80751 2.71865,-1.4682 3.66896,-1.4682 0.95031,0 3.0018,-0.63918 4.55887,-1.4204 1.55707,-0.78122 4.85604,-2.19234 7.33104,-3.13582 2.475,-0.94348 5.91801,-2.3293 7.65113,-3.0796 1.73312,-0.7503 3.75812,-1.37849 4.5,-1.39598 0.74188,-0.0175 2.22238,-0.6925 3.29,-1.5 1.06762,-0.80751 2.71865,-1.4682 3.66896,-1.4682 0.95031,0 3.0018,-0.63918 4.55887,-1.4204 1.55707,-0.78122 4.85604,-2.17975 7.33104,-3.10783 2.475,-0.92808 5.69443,-2.3139 7.15429,-3.07959 1.45986,-0.7657 3.33589,-1.39218 4.16896,-1.39218 0.83307,0 2.78864,-0.63918 4.34571,-1.4204 2.61248,-1.31075 4.62466,-2.11152 15.83104,-6.30016 2.2,-0.8223 5.19443,-2.12157 6.65429,-2.88726 1.45986,-0.7657 3.59736,-1.39218 4.75,-1.39218 1.15264,0 2.09571,-0.41425 2.09571,-0.92054 0,-0.5063 1.4625,-1.21006 3.25,-1.5639 3.09646,-0.61295 7.0701,-2.20416 12.90429,-5.16741 1.45986,-0.74148 3.48486,-1.36246 4.5,-1.37995 1.01514,-0.0175 2.71922,-0.6925 3.78684,-1.5 1.06762,-0.80751 2.71865,-1.4682 3.66896,-1.4682 0.95031,0 3.0018,-0.647467 4.55887,-1.438817 5.30756,-2.69746 10.13056,-4.56118 11.8036,-4.56118 0.91866,0 2.3453,-0.675 3.1703,-1.5 0.825,-0.825 2.81785,-1.5 4.42857,-1.5 1.61071,0 2.92857,-0.44143 2.92857,-0.98095 0,-0.53952 1.2375,-1.2521 2.75,-1.58352 2.69766,-0.5911 7.13436,-2.41073 12.40429,-5.08739 1.45986,-0.74148 3.32092,-1.34814 4.1357,-1.34814 0.81477,0 2.77033,-0.67223 4.3457,-1.49384 1.57537,-0.82161 3.53931,-1.51092 4.36431,-1.53181 0.825,-0.0209 2.37351,-0.69865 3.44113,-1.50616 1.06762,-0.8075 2.71865,-1.46819 3.66896,-1.46819 0.95031,0 3.0018,-0.63073 4.55887,-1.40162 5.37447,-2.66085 10.40387,-4.59838 11.9364,-4.59838 0.84562,0 2.2125,-0.675 3.0375,-1.5 0.825,-0.825 2.50285,-1.5 3.72857,-1.5 1.22571,0 2.65607,-0.38714 3.17857,-0.86032 0.5225,-0.47317 3.32837,-1.69277 6.23526,-2.71022 6.323,-2.21313 6.45649,-2.15403 17.37311,7.69254 4.0379,3.64211 8.91663,7.91602 10.84163,9.4976 1.925,1.58157 4.6204,3.88917 5.98978,5.12799 1.36938,1.23883 2.98465,2.25241 3.58949,2.25241 0.60483,0 1.53781,1.0125 2.07329,2.25 0.61836,1.42905 1.07475,79.438167 1.25085,213.802587 0.26233,200.16411 0.18339,211.63051 -1.46648,213.00001 -1.50559,1.2497 -27.87591,1.4889 -193.09033,1.7512 L 0,519.18947 Z m 160,-4.6146 c 0,-1.6156 -7.4509,-12.764 -12.14959,-18.1788 -1.56773,-1.8066 -2.85041,-3.7889 -2.85041,-4.405 0,-0.6165 -0.85466,-0.3467 -1.90072,0.6 -1.42542,1.2899 -2.08879,1.4158 -2.65278,0.5032 -0.43165,-0.6984 -0.0479,-1.7317 0.90072,-2.4254 0.90903,-0.6646 1.65278,-1.4701 1.65278,-1.79 0,-0.6722 -11.96155,-18.7883 -15.25228,-23.1 -1.21816,-1.5961 -2.67223,-3.7146 -3.23127,-4.7079 -1.91105,-3.3953 -12.78667,-19.0175 -14.27662,-20.5074 -1.64073,-1.6407 -5.48509,-1.18 -10.05719,1.2054 -1.475452,0.7698 -3.443582,1.4023 -4.373623,1.4057 -0.930041,0 -1.969098,0.4562 -2.309017,1.0062 -0.339919,0.55 -1.378976,1.0028 -2.309017,1.0062 -0.930041,0 -2.979921,0.6783 -4.55529,1.5 -1.575369,0.8216 -3.307361,1.4938 -3.848871,1.4938 -0.54151,0 -2.402572,0.6281 -4.135693,1.3959 -1.733121,0.7677 -5.851129,2.4029 -9.151129,3.6337 -7.243762,2.7018 -8.969301,3.3866 -13.5,5.3581 -4.701151,2.0456 -11.959502,4.6491 -14.870569,5.3339 -2.29493,0.5399 -2.268884,0.6004 0.816313,1.8976 2.238451,0.9412 3.092745,1.9023 2.870569,3.2295 -0.205382,1.2269 1.157924,3.1216 3.887378,5.4027 2.312031,1.9322 4.849315,4.1286 5.638409,4.8809 0.789094,0.7522 2.497433,2.2281 3.796309,3.2798 3.003384,2.4317 16.197934,13.8994 16.861591,14.6548 0.275,0.313 2.975,2.4962 6,4.8516 3.025,2.3554 7.208534,5.8499 9.296742,7.7656 7.034233,6.453 6.256526,6.3294 39.453258,6.2715 26.27697,-0.046 30.25,-0.251 30.25,-1.5616 z m -25.5,-22.394 c -0.39915,-0.6459 -0.27574,-1.6243 0.27426,-2.1743 0.66667,-0.6666 1.24192,-0.6085 1.72574,0.1743 0.39915,0.6458 0.27574,1.6243 -0.27426,2.1743 -0.66667,0.6666 -1.24192,0.6085 -1.72574,-0.1743 z m -8.97205,-2.9113 c -1.72881,-0.6756 -1.60617,-0.8406 0.99431,-1.3377 3.2762,-0.6263 4.81763,-0.11 3.93503,1.3181 -0.67233,1.0879 -2.1806,1.0939 -4.92934,0.02 z m -11.98524,-3.0196 c -0.85152,-1.3778 0.79746,-2.0544 3.36828,-1.3821 1.69411,0.443 1.92477,0.8018 0.92354,1.4364 -1.76585,1.1194 -3.58064,1.0964 -4.29182,-0.054 z m -5.81035,-1.9846 c -0.36166,-1.383 -0.0718,-2.0845 0.86126,-2.0845 1.59508,0 1.76166,0.8912 0.5298,2.8345 -0.64317,1.0147 -0.97661,0.8349 -1.39106,-0.75 z m -7.23673,-1.0916 c -0.759275,-1.2285 1.99283,-2.4271 3.47279,-1.5124 0.58531,0.3617 0.80531,1.0766 0.48887,1.5886 -0.76324,1.2349 -3.18006,1.1885 -3.96166,-0.076 z m -11.42016,-2.9463 c -0.958519,-0.5924 -0.916992,-0.8934 0.181368,-1.3149 0.783491,-0.3007 1.983952,-0.2009 2.667692,0.2217 0.958519,0.5923 0.916992,0.8934 -0.181368,1.3149 -0.783491,0.3007 -1.983952,0.2009 -2.667692,-0.2217 z M 95,477.08177 c -1.281897,-0.8284 -1.245547,-0.9716 0.25,-0.9847 0.9625,-0.01 1.75,0.4347 1.75,0.9847 0,1.2196 -0.112787,1.2196 -2,0 z m -20.484287,-2.9746 c -0.808114,-1.3075 1.493452,-2.4162 2.638637,-1.2711 0.640113,0.6402 0.447558,1.1845 -0.555108,1.5692 -0.844355,0.324 -1.781944,0.1899 -2.083529,-0.2981 z m 5.049048,0.079 c -0.304301,-0.4923 0.0066,-1.1011 0.690983,-1.3527 1.752922,-0.6445 3.867774,0.2391 3.19147,1.3333 -0.724279,1.172 -3.162629,1.1841 -3.882453,0.019 z m -11.432666,-2.4456 c -0.928726,-1.119 -0.861989,-1.5488 0.310357,-1.9987 1.808813,-0.6941 3.162638,1.1344 1.828034,2.469 -0.606999,0.607 -1.386581,0.4356 -2.138391,-0.4703 z m -5.622014,-1.6755 c 0.345464,-0.5589 1.047021,-0.7574 1.559017,-0.441 1.387044,0.8573 1.128411,1.4573 -0.628115,1.4573 -0.857459,0 -1.276365,-0.4573 -0.930902,-1.0163 z M 54,468.09587 c -1.482345,-0.9719 -1.33669,-1.0141 3.5,-1.0141 0.275,0 0.52377,0.3375 0.552821,0.75 0.08334,1.1834 -2.403485,1.3454 -4.052821,0.2641 z m -6.5,-3.0141 c -0.339919,-0.55 0.110081,-1 1,-1 0.889919,0 1.339919,0.45 1,1 -0.339919,0.55 -0.789919,1 -1,1 -0.210081,0 -0.660081,-0.45 -1,-1 z m 174.02177,47 c -1.57122,-0.275 -3.04382,-1.0623 -3.27243,-1.7495 -0.59992,-1.8034 2.49384,-2.6886 5.15652,-1.4754 1.31385,0.5987 2.86465,0.6757 3.66339,0.1821 0.86362,-0.5338 1.96912,-0.3275 2.93641,0.5479 0.85324,0.7722 2.66352,1.4299 4.02284,1.4616 1.35933,0.032 3.69435,0.071 5.18894,0.088 1.49459,0.017 2.98365,0.4614 3.30902,0.9878 0.34889,0.5645 9.9897,0.9572 23.50062,0.9572 h 22.90905 l 1.33613,-2.5501 1.33614,-2.5501 1.36478,2.5501 c 1.2925,2.4151 1.79887,2.5501 9.56094,2.5501 6.72446,0 8.65992,-0.3648 10.77893,-2.0316 l 2.58276,-2.0316 1.08728,2.0316 c 1.05639,1.9739 1.95277,2.0316 31.55209,2.0316 16.75565,0 30.49329,-0.3375 30.52809,-0.75 0.64304,-7.6221 0.55606,-40.0927 -0.11073,-41.3387 -0.93079,-1.7392 -1.88404,-1.9305 -18.95254,-3.8034 -7.69861,-0.8447 -8.65136,-0.7588 -10.10538,0.9119 -1.54576,1.7761 -1.6797,1.745 -3.60658,-0.8376 -2.14783,-2.8787 -1.93505,-2.8398 -33.71162,-6.1613 -5.45797,-0.5705 -11.53297,-1.445 -13.5,-1.9434 -1.96703,-0.4984 -7.61247,-1.2183 -12.54541,-1.5998 -4.93295,-0.3815 -10.01033,-1.0896 -11.28307,-1.5735 -1.50799,-0.5734 -2.97775,-0.4654 -4.2193,0.31 -1.48311,0.9262 -2.42689,0.9106 -4.25985,-0.07 -2.75643,-1.4752 -10.39891,-2.7948 -24.11727,-4.1643 -5.41666,-0.5408 -10.25124,-1.2322 -10.7435,-1.5364 -0.89483,-0.553 -18.44246,-2.761 -35.40802,-4.4554 -4.95,-0.4943 -10.125,-1.1942 -11.5,-1.5554 -2.46497,-0.6473 -18.40532,-2.6705 -35,-4.4422 -4.675,-0.4992 -10.3,-1.3501 -12.5,-1.8911 -5.59343,-1.3754 -20.31564,-2.2064 -20.94851,-1.1824 -0.28833,0.4666 0.36963,1.9847 1.46214,3.3735 1.0925,1.3889 1.98637,2.8108 1.98637,3.1598 0,0.349 0.5625,1.3061 1.25,2.127 0.6875,0.8208 1.71139,2.0393 2.27531,2.7078 0.56391,0.6684 4.72184,6.8403 9.23984,13.7153 4.51799,6.875 8.7816,13.2466 9.47469,14.1591 0.69309,0.9125 2.83516,4.1533 4.76016,7.2017 2.42369,3.8382 4.48775,5.885 6.712,6.6559 2.81183,0.9746 3.14288,1.4589 2.65718,3.8873 -0.41727,2.0864 0.27389,3.9856 2.788,7.6608 1.83855,2.6876 3.90532,5.4922 4.59282,6.2323 0.6875,0.7401 1.25,1.7261 1.25,2.191 0,2.3029 6.99417,2.886 32.43928,2.7042 14.8166,-0.1058 25.65372,-0.4174 24.08249,-0.6924 z m -9.52939,-4.5092 c -0.97536,-1.1752 -0.90885,-1.5856 0.33426,-2.0627 0.85353,-0.3275 2.32617,-0.1622 3.27252,0.3675 1.58391,0.8863 1.55735,1.0503 -0.33425,2.0626 -1.59459,0.8534 -2.32766,0.7711 -3.27253,-0.3674 z m 105.41158,0.1195 c -0.90952,-2.3702 1.16334,-4.443 2.80318,-2.8032 0.94286,0.9429 0.84144,1.5729 -0.46325,2.8776 -1.56053,1.5605 -1.71444,1.5556 -2.33993,-0.074 z m -110.9848,-0.7411 c -1.07967,-1.7469 1.12523,-3.1231 2.44875,-1.5284 0.92872,1.1191 0.86198,1.5489 -0.31036,1.9987 -0.82143,0.3152 -1.7837,0.1036 -2.13839,-0.4703 z m 81.24277,-1.054 c -0.65043,-2.4872 0.0484,-4.1123 1.40717,-3.2725 1.18324,0.7313 1.21456,4.1639 0.0446,4.887 -0.48747,0.3013 -1.14076,-0.4252 -1.45176,-1.6145 z m -87.64188,-1.291 c -1.01598,-1.2242 -0.93596,-1.6192 0.43454,-2.1452 2.33785,-0.8971 4.02197,0.9806 2.22047,2.4757 -1.09414,0.9081 -1.68846,0.8341 -2.65501,-0.3305 z m -5.57588,-0.8091 c -0.94027,-2.4503 0.60397,-4.3805 1.79784,-2.2471 0.63888,1.1416 0.60318,2.0868 -0.1056,2.7956 -0.76113,0.7611 -1.25057,0.6025 -1.69224,-0.5485 z m 126.22469,-2.1357 c -0.66758,-1.7397 0.14559,-2.5794 2.49781,-2.5794 2.38801,0 2.35059,1.6528 -0.0667,2.9465 -1.41511,0.7573 -2.03557,0.6637 -2.4311,-0.3671 z m -136.12436,-0.5074 c -0.7849,-1.27 2.99473,-2.353 5.47002,-1.5674 2.78503,0.8839 1.4841,2.4954 -2.01452,2.4954 -1.58508,0 -3.14006,-0.4176 -3.4555,-0.928 z m -4.93972,-1.6595 c -0.85526,-2.2288 -0.7871,-2.4125 0.89522,-2.4125 0.825,0 1.5,0.6484 1.5,1.441 0,2.1156 -1.69272,2.8021 -2.39522,0.9715 z M 285,497.58177 c 0,-2.4444 -0.45238,-3.5 -1.5,-3.5 -0.99187,0 -1.5,-0.9921 -1.5,-2.9286 0,-1.6107 -0.5625,-3.5232 -1.25,-4.25 -1.46895,-1.5529 -3.91319,-7.9915 -3.27574,-8.629 0.24172,-0.2417 1.18162,-0.1547 2.08868,0.1934 1.1742,0.4506 1.47298,1.335 1.03736,3.0706 -0.36976,1.4732 -0.11499,2.7554 0.64393,3.2407 2.62287,1.677 6.99126,16.3029 4.86927,16.3029 -0.61243,0 -1.1135,-1.575 -1.1135,-3.5 z m -112.42997,0.6133 c -0.30141,-0.4877 0.0623,-1.3932 0.8083,-2.0123 1.01879,-0.8456 1.63602,-0.7886 2.48032,0.2287 0.6182,0.7449 0.8279,1.6504 0.46601,2.0123 -0.94334,0.9433 -3.11191,0.8113 -3.75463,-0.2287 z M 167.6,496.48177 c -0.36606,-0.9539 -0.21557,-2.1844 0.33443,-2.7344 0.66667,-0.6667 1.22186,-0.4219 1.66557,0.7344 0.36606,0.9539 0.21557,2.1844 -0.33443,2.7344 -0.66667,0.6667 -1.22186,0.4219 -1.66557,-0.7344 z m 158.88359,0.2054 c -0.54742,-1.2827 -0.31863,-2.2529 0.70841,-3.0039 0.83433,-0.61 1.83777,-2.12 2.22987,-3.3553 0.95713,-3.0157 2.57813,-2.8561 2.57813,0.2538 0,1.3914 -0.57954,2.5 -1.30696,2.5 -0.71883,0 -1.77809,1.2375 -2.35393,2.75 -0.9462,2.4853 -1.12478,2.5677 -1.85552,0.8554 z m -165.98796,-1.6125 c -0.75927,-1.2285 1.99283,-2.4271 3.47279,-1.5124 0.58531,0.3617 0.80531,1.0766 0.48887,1.5886 -0.76324,1.2349 -3.18006,1.1885 -3.96166,-0.076 z M 332,486.05037 c 0,-1.3909 2.62625,-2.3176 4.05888,-1.4322 0.84256,0.5207 0.78793,0.946 -0.20212,1.5733 -1.86103,1.1792 -3.85676,1.1062 -3.85676,-0.1411 z m 6.12198,-5.3216 c -1.21556,-1.4647 -0.52559,-2.647 1.54469,-2.647 1.4897,0 1.82538,2.5779 0.44664,3.43 -0.48768,0.3014 -1.38378,-0.051 -1.99133,-0.783 z m -63,-6 c -1.21556,-1.4647 -0.52559,-2.647 1.54469,-2.647 1.4897,0 1.82538,2.5779 0.44664,3.43 -0.48768,0.3014 -1.38378,-0.051 -1.99133,-0.783 z m 66.32417,0.2659 c -0.85813,-1.3885 1.04396,-3.3461 2.42304,-2.4937 1.14846,0.7097 0.41309,3.5808 -0.91716,3.5808 -0.4587,0 -1.13634,-0.4892 -1.50588,-1.0871 z m -69.0671,-6.3675 c -0.89712,-2.3378 0.98055,-4.022 2.47566,-2.2205 0.90806,1.0942 0.83407,1.6885 -0.33055,2.655 -1.22418,1.016 -1.6192,0.936 -2.14511,-0.4345 z m -3,-6 c -0.89712,-2.3378 0.98055,-4.022 2.47566,-2.2205 0.90806,1.0942 0.83407,1.6885 -0.33055,2.655 -1.22418,1.016 -1.6192,0.936 -2.14511,-0.4345 z m 110.01396,0.8728 c 1.11074,-2.8945 0.67969,-34.9455 -0.48565,-36.1108 -0.79019,-0.7902 -0.79019,-1.6578 0,-3.1343 1.69302,-3.1634 1.45693,-40.53532 -0.28126,-44.52197 -0.75565,-1.73312 -2.83283,-6.75113 -4.61597,-11.15113 -1.78314,-4.4 -3.86489,-9.4625 -4.6261,-11.25 -0.76122,-1.7875 -2.04683,-4.83157 -2.85692,-6.7646 -0.8101,-1.93303 -2.10986,-4.97053 -2.88837,-6.75 -0.77851,-1.77947 -3.52586,-8.4104 -6.10523,-14.7354 -2.57937,-6.325 -5.37445,-13.075 -6.2113,-15 -0.83685,-1.925 -2.1395,-4.96907 -2.89477,-6.7646 -0.75528,-1.79553 -2.01231,-4.72053 -2.79341,-6.5 -0.78111,-1.77947 -3.06858,-7.2854 -5.08328,-12.2354 -4.76107,-11.69767 -7.23385,-17.58422 -10.08176,-24 -0.73241,-1.65 -1.60369,-3.96776 -1.93616,-5.15059 -0.33248,-1.18282 -1.71337,-2.42889 -3.06866,-2.76905 -2.57076,-0.64522 -3.19084,-2.45369 -1.44122,-4.20331 1.0713,-1.0713 0.15378,-3.90453 -4.58374,-14.15439 C 318.09764,235.4019 317,232.54633 317,231.95873 c 0,-0.58761 -0.59685,-2.26281 -1.32634,-3.72267 -0.72948,-1.45986 -2.07948,-4.15326 -3,-5.98533 C 311.75315,220.41866 311,218.31763 311,217.58177 c 0,-0.73586 -0.61997,-2.61189 -1.37772,-4.16896 -1.29635,-2.66383 -2.55373,-5.50443 -6.12228,-13.83104 -0.825,-1.925 -2.1441,-4.9625 -2.93134,-6.75 -0.78723,-1.7875 -1.71513,-4.25485 -2.06199,-5.48299 l -0.63065,-2.23299 -2.28946,2.23299 c -2.17366,2.12005 -24.96295,32.63545 -30.85736,41.31874 -1.52394,2.24498 -3.54894,4.96102 -4.5,6.03566 -6.13814,6.93567 -6.99628,10.37859 -2.58685,10.37859 1.53182,0 2.2189,0.41549 1.80215,1.08981 -0.38382,0.62103 -2.02224,0.85048 -3.80902,0.53342 -3.83193,-0.67997 -5.02736,0.2311 -10.00726,7.62677 -2.12948,3.1625 -4.26698,5.75 -4.75,5.75 -0.48302,0 -0.87822,0.46253 -0.87822,1.02785 0,0.56531 -5.97352,9.00281 -13.27448,18.75 C 212.1115,299.37013 210,302.44299 210,304.2002 c 0,0.65383 -1.69979,2.80717 -3.77732,4.78518 -2.07752,1.97801 -4.77617,4.94639 -5.99699,6.59639 -16.46208,22.24937 -30.02308,40.70879 -31.22569,42.50485 -0.825,1.23212 -1.95,2.75062 -2.5,3.37445 -0.55,0.62383 -2.125,2.75341 -3.5,4.73241 -1.375,1.97899 -3.52228,4.90094 -4.77174,6.49323 -1.24945,1.59228 -5.79252,7.67723 -10.09571,13.52211 -4.3032,5.84487 -8.35895,11.24487 -9.01279,12 -0.65384,0.75512 -4.07583,5.42295 -7.60442,10.37295 -3.52859,4.95 -6.77556,9.4606 -7.21548,10.0236 -4.21033,5.3883 -7.39083,10.797 -6.97941,11.8691 0.54437,1.4186 7.18962,2.6073 14.57572,2.6073 2.53937,0 6.18906,0.467 8.11043,1.0377 1.92137,0.5707 7.5434,1.4349 12.4934,1.9204 12.71564,1.247 25.98835,2.9458 33,4.2236 3.3,0.6015 9.6,1.4025 14,1.7801 8.83296,0.7582 21.24849,2.3756 35,4.5595 10.31159,1.6377 21.74754,2.796 29,2.9373 2.75,0.054 5.675,0.3837 6.5,0.7337 2.61573,1.1097 19.61046,3.8067 24.14333,3.8316 2.39617,0.013 6.15667,0.4834 8.35667,1.0451 2.2,0.5617 8.05,1.4239 13,1.916 4.95,0.492 12.375,1.3559 16.5,1.9197 19.76716,2.7018 24.12239,3.2562 32.39753,4.124 4.89364,0.5132 9.13114,1.1666 9.41666,1.4522 1.1524,1.1524 5.01086,0.4174 5.57882,-1.0627 z M 353.5,460.08177 c -0.39915,-0.6459 -0.27574,-1.6243 0.27426,-2.1743 0.66667,-0.6666 1.24192,-0.6085 1.72574,0.1743 0.39915,0.6458 0.27574,1.6243 -0.27426,2.1743 -0.66667,0.6666 -1.24192,0.6085 -1.72574,-0.1743 z m 5.06476,-6.8952 c -0.3043,-0.4924 0.10473,-1.1477 0.90896,-1.4563 1.56267,-0.5997 2.89724,0.6472 1.83243,1.712 -0.90401,0.904 -2.09319,0.7931 -2.74139,-0.2557 z m 3.93524,-5.1048 c -0.39915,-0.6459 -0.27574,-1.6243 0.27426,-2.1743 0.66667,-0.6666 1.24192,-0.6085 1.72574,0.1743 0.39915,0.6458 0.27574,1.6243 -0.27426,2.1743 -0.66667,0.6666 -1.24192,0.6085 -1.72574,-0.1743 z m -98.94721,-3.9146 c -0.32198,-0.521 -0.15917,-1.2106 0.3618,-1.5326 0.52097,-0.322 1.21065,-0.1592 1.53262,0.3618 0.32198,0.521 0.15917,1.2106 -0.3618,1.5326 -0.52097,0.322 -1.21065,0.1592 -1.53262,-0.3618 z M 366,443.02277 c 0,-0.5825 0.45,-0.7809 1,-0.441 0.55,0.3399 1,0.8165 1,1.059 0,0.2426 -0.45,0.441 -1,0.441 -0.55,0 -1,-0.4766 -1,-1.059 z m -105.36492,-4.7224 c -0.27671,-0.4478 -0.14543,-1.3928 0.29174,-2.1002 0.62088,-1.0046 0.92519,-0.9464 1.39034,0.2657 0.6293,1.6399 -0.82326,3.2241 -1.68208,1.8345 z m 109.93662,-0.9686 c 0.49777,-0.4125 1.24088,-1.2 1.65135,-1.75 0.42591,-0.5707 0.7529,-0.2487 0.76164,0.75 0.009,0.9728 -0.72489,1.75 -1.65136,1.75 -0.91666,0 -1.2594,-0.3375 -0.76163,-0.75 z m -112.87747,-4.9837 c -0.24418,-0.4215 -0.12588,-1.6422 0.2629,-2.7128 0.67239,-1.8515 0.73487,-1.8393 1.28099,0.2491 0.55443,2.1201 -0.6393,4.0251 -1.54389,2.4637 z m 116.52394,-0.4208 c 0.51903,-1.5571 2.75625,-1.8298 2.83465,-0.3455 0.029,0.55 -0.69777,1.1555 -1.61517,1.3455 -1.04271,0.216 -1.49986,-0.1589 -1.21948,-1 z M 255,424.08177 c 0,-1.8241 0.415,-2.8616 1,-2.5 0.55,0.3399 1,1.4649 1,2.5 0,1.0351 -0.45,2.1601 -1,2.5 -0.585,0.3615 -1,-0.676 -1,-2.5 z m -3,-7 c 0,-1.8667 0.26667,-2.1333 1.2,-1.2 0.93333,0.9333 0.93333,1.4667 0,2.4 -0.93333,0.9333 -1.2,0.6667 -1.2,-1.2 z m -3.36163,-11.5 c -0.31658,-0.825 -0.13972,-1.5 0.39301,-1.5 0.53274,0 0.96862,0.675 0.96862,1.5 0,0.825 -0.17686,1.5 -0.39301,1.5 -0.21616,0 -0.65203,-0.675 -0.96862,-1.5 z m -3.12624,-5.48037 c -0.40582,-0.65664 -0.28787,-1.64389 0.26213,-2.19389 1.30322,-1.30322 2.33908,0.37283 1.28476,2.07877 -0.61466,0.99454 -0.98628,1.0222 -1.54689,0.11512 z M 242.5,394.08177 c -0.39915,-0.64585 -0.27574,-1.62426 0.27426,-2.17426 0.66667,-0.66667 1.24192,-0.60858 1.72574,0.17426 0.39915,0.64585 0.27574,1.62426 -0.27426,2.17426 -0.66667,0.66667 -1.24192,0.60858 -1.72574,-0.17426 z m -2.98992,-5.98369 c -0.73755,-1.19337 0.19857,-3.01631 1.54894,-3.01631 1.2168,0 1.22469,2.70662 0.0101,3.45729 -0.512,0.31644 -1.21356,0.11799 -1.55902,-0.44098 z m -2.96737,-6.94721 c -0.73955,-1.1966 1.14162,-2.38223 2.4736,-1.55902 1.11836,0.69118 0.38417,2.48992 -1.01631,2.48992 -0.48508,0 -1.14086,-0.41891 -1.45729,-0.9309 z M 234,374.58177 c 0,-0.8667 0.59545,-1.20873 1.5,-0.86163 0.825,0.31659 1.5,0.70432 1.5,0.86163 0,0.15731 -0.675,0.54504 -1.5,0.86163 -0.90455,0.3471 -1.5,0.005 -1.5,-0.86163 z m -1,-5.5 c -1.2819,-0.82843 -1.24555,-0.9716 0.25,-0.98469 0.9625,-0.008 1.75,0.43469 1.75,0.98469 0,1.21961 -0.11279,1.21961 -2,0 z m -2.56974,-5.32115 c -0.80066,-2.08649 0.1997,-3.44889 1.54477,-2.10382 0.56802,0.56802 0.58275,1.52247 0.0371,2.4053 -0.76723,1.24141 -1.0074,1.19563 -1.58189,-0.30148 z m -2.87449,-6.58861 c -0.30924,-0.50036 -0.27318,-1.6631 0.0802,-2.58384 0.51199,-1.33422 0.81406,-1.4033 1.48793,-0.34025 0.46504,0.73362 0.85242,1.89635 0.86084,2.58385 0.0177,1.44867 -1.60351,1.67578 -2.42892,0.34024 z M 224.738,351.4189 c -0.26826,-0.46042 -0.17274,-1.70423 0.21227,-2.76402 0.6713,-1.84789 0.72901,-1.85129 1.40765,-0.0828 0.71625,1.86654 -0.72024,4.39099 -1.61992,2.8468 z M 222,342.52275 c 0,-1.40746 0.40775,-2.30701 0.90612,-1.999 0.49837,0.30801 0.67088,1.45956 0.38337,2.55902 C 222.56994,345.83432 222,345.5868 222,342.52275 Z m -3,-7 c 0,-0.85746 0.45734,-1.27636 1.01631,-0.9309 0.55897,0.34546 0.75742,1.04702 0.44098,1.55902 C 219.60006,337.53791 219,337.27928 219,335.52275 Z m -3,-6 c 0,-0.85746 0.45734,-1.27636 1.01631,-0.9309 0.55897,0.34546 0.75742,1.04702 0.44098,1.55902 C 216.60006,331.53791 216,331.27928 216,329.52275 Z m -0.5,-5.44098 c -0.33992,-0.55 -0.14148,-1 0.44098,-1 0.58246,0 1.05902,0.45 1.05902,1 0,0.55 -0.19844,1 -0.44098,1 -0.24254,0 -0.7191,-0.45 -1.05902,-1 z m -3,-5 c -0.39915,-0.64585 -0.27574,-1.62426 0.27426,-2.17426 0.66667,-0.66667 1.24192,-0.60858 1.72574,0.17426 0.39915,0.64585 0.27574,1.62426 -0.27426,2.17426 -0.66667,0.66667 -1.24192,0.60858 -1.72574,-0.17426 z m -3.09076,-6.37591 c -0.84721,-2.20781 0.27991,-3.33494 1.80743,-1.80742 0.9019,0.9019 0.90574,1.46092 0.0161,2.35055 -0.88962,0.88962 -1.3233,0.76045 -1.82354,-0.54313 z m 107.70917,-57.55091 c -1.00461,-0.62088 -0.94645,-0.92519 0.26572,-1.39034 0.8535,-0.32752 1.79857,-0.19624 2.10016,0.29174 0.78841,1.27567 -0.84908,2.03604 -2.36588,1.0986 z m -20.88924,-3.26068 C 296.84724,250.04005 299,249.73251 299,251.49844 c 0,0.87083 -0.7125,1.58333 -1.58333,1.58333 -0.87084,0 -1.40521,-0.53438 -1.1875,-1.1875 z m 6.46468,0.54802 c -1.06481,-1.06481 0.26976,-2.31172 1.83243,-1.71206 0.80423,0.30861 1.21326,0.96396 0.90896,1.45632 -0.6482,1.04882 -1.83738,1.15975 -2.74139,0.25574 z m -11.6149,-1.94385 c 0.048,-1.16495 0.28494,-1.4019 0.60416,-0.60417 0.28887,0.72187 0.25335,1.58437 -0.0789,1.91667 -0.33229,0.33229 -0.56864,-0.25834 -0.52522,-1.3125 z m -21.52616,-1.33126 c -0.32198,-0.52097 -0.15917,-1.21065 0.3618,-1.53262 0.52097,-0.32198 1.21065,-0.15917 1.53262,0.3618 0.32198,0.52097 0.15917,1.21065 -0.3618,1.53262 -0.52097,0.32198 -1.21065,0.15917 -1.53262,-0.3618 z m 5.98992,-0.0163 c -0.73955,-1.1966 1.14162,-2.38223 2.4736,-1.55902 1.11836,0.69117 0.38417,2.48991 -1.01631,2.48991 -0.48508,0 -1.14086,-0.41891 -1.45729,-0.9309 z M 281,249.08177 c -1.1248,-0.7269 -0.62454,-0.96937 2,-0.96937 2.62454,0 3.1248,0.24247 2,0.96937 -0.825,0.53316 -1.725,0.96937 -2,0.96937 -0.275,0 -1.175,-0.43621 -2,-0.96937 z m -17.5,-3 c -0.33992,-0.55 -0.14148,-1 0.44098,-1 0.58246,0 1.05902,0.45 1.05902,1 0,0.55 -0.19844,1 -0.44098,1 -0.24254,0 -0.7191,-0.45 -1.05902,-1 z M 48.872264,454.04427 c 1.854745,-0.4439 3.857245,-1.292 4.45,-1.8848 0.592755,-0.5927 2.000236,-1.092 3.127736,-1.1095 1.1275,-0.017 2.923508,-0.6925 3.99113,-1.5 1.067621,-0.8075 2.718653,-1.4682 3.66896,-1.4682 0.950307,0 3.001799,-0.6614 4.55887,-1.4697 1.557072,-0.8083 6.65604,-2.8672 11.33104,-4.5753 4.675,-1.7081 9.85,-3.7066 11.5,-4.4411 1.65,-0.7345 3.9,-1.5711 5,-1.859 1.1,-0.2879 3.8,-1.1888 6,-2.002 l 4,-1.4786 -0.15999,-5.3372 c -0.1841,-6.1414 -1.8401,-16.0635 -3.90965,-23.42499 -0.7867,-2.79834 -1.43714,-6.62334 -1.44542,-8.5 -0.008,-1.87666 -0.66353,-5.21211 -1.456104,-7.41211 -0.792577,-2.2 -1.466947,-5.8 -1.498598,-8 -0.08442,-5.86764 -1.025834,-8.5 -3.039881,-8.5 -2.278207,0 -3.445746,-2.88802 -1.473498,-3.64484 1.915297,-0.73497 1.921178,-6.55569 0.01198,-11.85516 -0.792577,-2.2 -1.460802,-6.2725 -1.484943,-9.05 -0.02414,-2.7775 -0.531846,-5.53795 -1.128233,-6.13434 -0.596387,-0.59639 -1.308495,-3.94889 -1.582462,-7.45 -0.273966,-3.50111 -1.136013,-8.06227 -1.91566,-10.1359 -0.779646,-2.07363 -1.424313,-5.44863 -1.432594,-7.5 -0.0083,-2.05137 -0.66353,-5.52976 -1.456108,-7.72976 -0.792577,-2.2 -1.460802,-6.08254 -1.484943,-8.62788 -0.02414,-2.54533 -0.718893,-6.24337 -1.543893,-8.21788 -0.825,-1.9745 -1.506775,-5.29196 -1.515056,-7.37212 -0.0083,-2.08017 -0.66353,-5.58212 -1.456108,-7.78212 -0.792577,-2.2 -1.460802,-6.08254 -1.484943,-8.62788 -0.02414,-2.54533 -0.718893,-6.24337 -1.543893,-8.21788 -0.825,-1.9745 -1.506775,-5.29196 -1.515056,-7.37212 -0.0083,-2.08017 -0.66353,-5.58212 -1.456108,-7.78212 -0.792577,-2.2 -1.460802,-5.94208 -1.484943,-8.31574 -0.02414,-2.37366 -0.524194,-5.21319 -1.111229,-6.31008 -0.587035,-1.09688 -1.455026,-5.0048 -1.928868,-8.68426 -0.473846,-3.67945 -1.333747,-8.71492 -1.910896,-11.18992 -0.577149,-2.475 -1.336418,-6.75 -1.687266,-9.5 -0.576135,-4.51585 -0.72963,-4.75792 -1.585199,-2.5 -2.0373,5.37663 -3.820446,16.49168 -3.820609,23.81538 -9.5e-5,4.22654 -0.675095,11.21171 -1.5,15.52259 -0.824906,4.31088 -1.51083,11.73588 -1.524275,16.5 -0.01345,4.76412 -0.470253,10.59474 -1.015129,12.95694 -0.544876,2.36221 -1.430061,10.46221 -1.967079,18 -0.537017,7.5378 -1.419473,15.50509 -1.961014,17.70509 -0.54154,2.2 -0.995354,8.05297 -1.008475,13.0066 -0.01312,4.95363 -0.476572,10.57863 -1.02989,12.5 -0.553318,1.92137 -1.274864,8.6684 -1.603436,14.9934 -0.328571,6.325 -1.225857,15.27145 -1.993967,19.88099 -0.76811,4.60954 -1.412372,11.80954 -1.431693,16 -0.01932,4.19046 -0.678513,10.54401 -1.464871,14.11901 -0.786358,3.575 -1.453841,10.55 -1.483296,15.5 -0.02946,4.95 -0.688696,12.6 -1.464979,17 -0.776283,4.4 -1.527811,12.4341 -1.670064,17.8535 -0.246997,9.41 -0.148867,9.9381 2.179849,11.7323 1.34117,1.0333 3.11349,1.6098 3.93849,1.2812 0.825,-0.3286 3.017519,-0.9607 4.872264,-1.4045 z m -7.178411,-3.602 c -0.798931,-0.7989 0.104186,-2.3605 1.365164,-2.3605 0.517541,0 0.940983,0.675 0.940983,1.5 0,1.5464 -1.179963,1.9867 -2.306147,0.8605 z M 45,444.05037 c 0,-0.5327 0.675,-0.9686 1.5,-0.9686 0.825,0 1.5,0.1769 1.5,0.393 0,0.2162 -0.675,0.652 -1.5,0.9686 -0.825,0.3166 -1.5,0.1397 -1.5,-0.393 z m 4.8125,-6.6517 c 0.721875,-0.2889 1.584375,-0.2534 1.916667,0.079 0.332291,0.3323 -0.258334,0.5686 -1.3125,0.5252 -1.164943,-0.048 -1.4019,-0.2849 -0.604167,-0.6042 z m 3.740286,-5.2315 c -0.321975,-0.521 -0.159164,-1.2106 0.361804,-1.5326 0.520967,-0.322 1.210648,-0.1592 1.532624,0.3618 0.321975,0.521 0.159164,1.2106 -0.361804,1.5326 -0.520967,0.322 -1.210648,0.1592 -1.532624,-0.3618 z m 3.123671,-5.4862 c -0.32401,-0.8443 -0.189857,-1.7819 0.298119,-2.0835 1.307556,-0.8081 2.416259,1.4935 1.271074,2.6386 -0.640113,0.6402 -1.184435,0.4476 -1.569193,-0.5551 z M 60,421.08177 c 0,-1.1 0.407871,-2 0.90638,-2 0.49851,0 0.671025,0.9 0.383369,2 -0.287656,1.1 -0.695528,2 -0.90638,2 -0.210853,0 -0.383369,-0.9 -0.383369,-2 z m 11.710251,-18 c 0.287656,-1.1 0.643044,-2 0.789749,-2 0.146705,0 0.502093,0.9 0.789749,2 0.326865,1.24993 0.03068,2 -0.789749,2 -0.820431,0 -1.116614,-0.75007 -0.789749,-2 z m 2.886305,-3.84377 c -0.346049,-0.55992 -0.1419,-1.31919 0.453663,-1.68727 1.537485,-0.95021 2.529468,0.35135 1.245982,1.63484 -0.71818,0.71818 -1.277526,0.73543 -1.699645,0.0524 z m 3.097297,-5.79571 c -0.798931,-0.79893 0.104186,-2.36052 1.365164,-2.36052 0.517541,0 0.940983,0.675 0.940983,1.5 0,1.54641 -1.179963,1.9867 -2.306147,0.86052 z M 81.75,386.41949 c 0.6875,-0.27741 1.8125,-0.27741 2.5,0 0.6875,0.27741 0.125,0.50439 -1.25,0.50439 -1.375,0 -1.9375,-0.22698 -1.25,-0.50439 z m 4.4,-5.28772 c 0.22,-0.66 0.72625,-1.16625 1.125,-1.125 1.195703,0.12369 0.964135,1.49529 -0.325,1.925 -0.66,0.22 -1.02,-0.14 -0.8,-0.8 z m 3.392705,-5.9809 c -0.68307,-1.10523 0.894408,-2.29865 1.817815,-1.37525 0.950785,0.95079 0.773587,2.30615 -0.301503,2.30615 -0.517541,0 -1.199881,-0.41891 -1.516312,-0.9309 z m 42.582965,26.4309 c 9.33013,-12.65 18.2899,-24.8 19.9106,-27 1.62069,-2.2 12.29909,-16.6 23.72977,-32 27.18333,-36.62278 29.25509,-39.71085 28.06654,-41.83467 -0.97048,-1.73417 0.66163,-3.10287 2.93947,-2.46506 1.0798,0.30235 33.2389,-41.86026 36.80625,-48.25532 1.05694,-1.89472 2.8217,-4.36522 3.9217,-5.49 2.44434,-2.49939 7.03515,-8.48514 10.95434,-14.28283 1.60909,-2.38034 3.95735,-5.30534 5.21836,-6.5 1.26101,-1.19467 2.30052,-2.52797 2.31002,-2.96291 0.01,-0.43493 4.06728,-6.15408 9.01728,-12.70921 4.95,-6.55513 9,-12.38678 9,-12.95921 0,-0.57244 0.37372,-1.04079 0.83048,-1.04079 0.45676,0 2.25158,-1.97884 3.98848,-4.39743 2.6995,-3.75899 2.92171,-4.48811 1.53054,-5.02195 -3.0839,-1.1834 -30.93763,-2.49311 -65.8495,-3.09631 -19.25,-0.33259 -41.3,-1.02413 -49,-1.53675 -7.7,-0.51262 -25.925,-1.16995 -40.5,-1.46074 -14.575,-0.29079 -34.86765,-0.70906 -45.09478,-0.92949 -16.433513,-0.3542 -18.769432,-0.20648 -20.097423,1.27094 -0.826454,0.91945 -2.33569,2.15619 -3.353859,2.74832 -1.705336,0.99175 -1.753168,1.54336 -0.606996,7 0.68432,3.25787 1.618291,8.45694 2.07549,11.55348 0.457199,3.09654 1.322998,7.82154 1.923998,10.5 1.841046,8.20494 3.228719,15.57201 4.186859,22.22778 0.503389,3.49682 1.345863,7.77182 1.872165,9.5 1.064182,3.49439 2.774564,13.00074 3.983813,22.14215 0.436532,3.3 1.304598,8.025 1.929035,10.5 1.713879,6.79308 3.211456,14.7466 4.178165,22.18992 0.477873,3.67946 1.349162,7.58738 1.936197,8.68426 C 88.519699,307.05284 89,309.48335 89,311.3571 c 0,1.87374 0.670129,5.61583 1.489176,8.31574 0.819046,2.69991 1.494046,6.53985 1.5,8.5332 0.006,1.99335 0.685824,5.53743 1.510824,7.87573 0.825,2.3383 1.5,6.3028 1.5,8.81 0,2.5072 0.868398,6.38813 1.929773,8.62428 1.061375,2.23614 2.151968,6.76572 2.42354,10.06572 0.654797,7.95678 2.364327,18.9575 3.552137,22.85785 0.94626,3.10715 2.29785,10.49184 4.05364,22.14785 0.49757,3.3032 1.38532,7.27 1.97279,8.8151 0.58747,1.5452 1.06812,4.0933 1.06812,5.6625 0,1.5692 0.30158,3.639 0.67017,4.5996 0.81831,2.1324 -0.85842,4.1708 21.4555,-26.0829 z m -26.96778,-49.5 c 0,-1.375 0.22698,-1.9375 0.50439,-1.25 0.27741,0.6875 0.27741,1.8125 0,2.5 -0.27741,0.6875 -0.50439,0.125 -0.50439,-1.25 z m 2.58011,-3.66287 c -0.26826,-0.46042 -0.17274,-1.70423 0.21227,-2.76402 0.6713,-1.84789 0.72901,-1.85129 1.40765,-0.0828 0.71625,1.86654 -0.72024,4.39099 -1.61992,2.8468 z m 2.81479,-6.25172 c -0.32198,-0.52097 -0.15917,-1.21065 0.3618,-1.53262 0.52097,-0.32198 1.21065,-0.15917 1.53262,0.3618 0.32198,0.52097 0.15917,1.21065 -0.3618,1.53262 -0.52097,0.32198 -1.21065,0.15917 -1.53262,-0.3618 z M 114,335.58177 c 0,-0.8667 0.59545,-1.20873 1.5,-0.86163 0.825,0.31659 1.5,0.70432 1.5,0.86163 0,0.15731 -0.675,0.54504 -1.5,0.86163 -0.90455,0.3471 -1.5,0.005 -1.5,-0.86163 z m 4.55355,-5.40228 c -1.85785,-0.72704 -1.84647,-0.78786 0.25,-1.3361 1.49303,-0.39043 2.19645,-0.12398 2.19645,0.832 0,0.77351 -0.1125,1.37475 -0.25,1.33609 -0.1375,-0.0387 -1.1259,-0.41305 -2.19645,-0.83199 z m 3.59645,-6.04772 c 0.22,-0.66 0.72625,-1.16625 1.125,-1.125 1.1957,0.12369 0.96414,1.49529 -0.325,1.925 -0.66,0.22 -1.02,-0.14 -0.8,-0.8 z m 3.36008,-5.03369 c -0.73755,-1.19337 0.19857,-3.01631 1.54894,-3.01631 1.2168,0 1.22469,2.70662 0.0101,3.45729 -0.512,0.31644 -1.21356,0.11799 -1.55902,-0.44098 z m 3.18377,-6.65579 c -1.06481,-1.06481 0.26976,-2.31172 1.83243,-1.71206 0.80423,0.30861 1.21326,0.96396 0.90896,1.45632 -0.6482,1.04882 -1.83738,1.15975 -2.74139,0.25574 z M 137.5,300.08177 c -0.33992,-0.55 -0.14148,-1 0.44098,-1 0.58246,0 1.05902,0.45 1.05902,1 0,0.55 -0.19844,1 -0.44098,1 -0.24254,0 -0.7191,-0.45 -1.05902,-1 z m 3.5,-5 c 0,-1.1 0.40787,-2 0.90638,-2 0.49851,0 0.67103,0.9 0.38337,2 -0.28766,1.1 -0.69553,2 -0.90638,2 -0.21085,0 -0.38337,-0.9 -0.38337,-2 z m 60,-1.5 c 0,-0.8667 0.59545,-1.20873 1.5,-0.86163 0.825,0.31659 1.5,0.70432 1.5,0.86163 0,0.15731 -0.675,0.54504 -1.5,0.86163 -0.90455,0.3471 -1.5,0.005 -1.5,-0.86163 z m -56.84211,-4.5 c 0,-1.375 0.22698,-1.9375 0.50439,-1.25 0.27741,0.6875 0.27741,1.8125 0,2.5 -0.27741,0.6875 -0.50439,0.125 -0.50439,-1.25 z m 55.84211,-1 c -1.2819,-0.82843 -1.24555,-0.9716 0.25,-0.98469 0.9625,-0.008 1.75,0.43469 1.75,0.98469 0,1.21961 -0.11279,1.21961 -2,0 z m -53,-3.55902 c 0,-0.85746 0.45734,-1.27636 1.01631,-0.9309 0.55897,0.34546 0.75742,1.04702 0.44098,1.55902 C 147.60006,286.53791 147,286.27928 147,284.52275 Z m 50.55279,-2.35557 c -0.32198,-0.52097 -0.15917,-1.21065 0.3618,-1.53262 0.52097,-0.32198 1.21065,-0.15917 1.53262,0.3618 0.32198,0.52097 0.15917,1.21065 -0.3618,1.53262 -0.52097,0.32198 -1.21065,0.15917 -1.53262,-0.3618 z m -2.91771,-5.86684 c -0.27671,-0.44774 -0.14543,-1.39281 0.29174,-2.10016 0.62088,-1.00461 0.92519,-0.94645 1.39034,0.26572 0.6293,1.63992 -0.82326,3.22404 -1.68208,1.83444 z m -39.32216,-3.03455 c -0.76317,-0.47822 -0.70064,-1.0467 0.20785,-1.88947 1.01981,-0.94605 1.41698,-0.89915 1.84566,0.21797 0.64841,1.68973 -0.5142,2.63606 -2.05351,1.6715 z m 36.71749,-4.73402 c 0.0267,-2.58611 0.16279,-2.72225 1.10362,-1.10362 0.76916,1.32326 0.76054,2.15905 -0.0304,2.95 -0.80483,0.80483 -1.09539,0.30495 -1.07321,-1.84638 z m -33.88041,-1.4 c 0.22,-0.66 0.72625,-1.16625 1.125,-1.125 1.1957,0.12369 0.96414,1.49529 -0.325,1.925 -0.66,0.22 -1.02,-0.14 -0.8,-0.8 z m 30.88041,-5.5 c -0.0222,-2.15133 0.26838,-2.65121 1.07321,-1.84638 0.79095,0.79095 0.79957,1.62674 0.0304,2.95 -0.94083,1.61863 -1.07696,1.48249 -1.10362,-1.10362 z m -27.36995,0.008 c -0.6973,-1.81713 0.47907,-2.70739 2.18462,-1.6533 0.97721,0.60395 0.93776,1.03109 -0.18096,1.95954 -1.12537,0.93397 -1.55282,0.86864 -2.00366,-0.30624 z M 165,255.05039 c 0,-0.53274 0.675,-0.96862 1.5,-0.96862 0.825,0 1.5,0.17686 1.5,0.39301 0,0.21616 -0.675,0.65203 -1.5,0.96862 -0.825,0.31658 -1.5,0.13972 -1.5,-0.39301 z m 21,-0.52764 c 0,-0.85746 0.45734,-1.27636 1.01631,-0.9309 0.55897,0.34546 0.75742,1.04702 0.44098,1.55902 C 186.60006,256.53791 186,256.27928 186,254.52275 Z m -15.44721,-5.35557 c -0.32198,-0.52097 -0.15917,-1.21065 0.3618,-1.53262 0.52097,-0.32198 1.21065,-0.15917 1.53262,0.3618 0.32198,0.52097 0.15917,1.21065 -0.3618,1.53262 -0.52097,0.32198 -1.21065,0.15917 -1.53262,-0.3618 z m 72.6051,-5.08541 c 0,-1.375 0.22698,-1.9375 0.50439,-1.25 0.27741,0.6875 0.27741,1.8125 0,2.5 -0.27741,0.6875 -0.50439,0.125 -0.50439,-1.25 z m -69.47505,-0.38413 c -0.32752,-0.8535 -0.19624,-1.79857 0.29174,-2.10016 1.27567,-0.78841 2.03604,0.84908 1.0986,2.36588 -0.62088,1.00461 -0.92519,0.94645 -1.39034,-0.26572 z M 182.5,243.08177 c -0.33992,-0.55 -0.14148,-1 0.44098,-1 0.58246,0 1.05902,0.45 1.05902,1 0,0.55 -0.19844,1 -0.44098,1 -0.24254,0 -0.7191,-0.45 -1.05902,-1 z m 53.61841,0.0732 c -1.00461,-0.62088 -0.94645,-0.92519 0.26572,-1.39034 0.8535,-0.32752 1.79857,-0.19624 2.10016,0.29174 0.78841,1.27567 -0.84908,2.03604 -2.36588,1.0986 z m -7.35675,-0.78044 c 1.24391,-0.23919 3.04391,-0.23011 4,0.0202 0.95609,0.25029 -0.0617,0.446 -2.26166,0.4349 -2.2,-0.0111 -2.98225,-0.21589 -1.73834,-0.45508 z M 203,240.08177 c -1.20677,-0.77988 -1.04862,-0.97237 0.80902,-0.98469 1.28757,-0.009 2.03561,0.42706 1.69098,0.98469 -0.74319,1.2025 -0.63926,1.2025 -2.5,0 z m 6.55279,0.0854 c -0.32198,-0.52097 -0.15917,-1.21065 0.3618,-1.53262 0.52097,-0.32198 1.21065,-0.15917 1.53262,0.3618 0.32198,0.52097 0.15917,1.21065 -0.3618,1.53262 -0.52097,0.32198 -1.21065,0.15917 -1.53262,-0.3618 z m 5.94721,-0.0854 c -0.33992,-0.55 0.11008,-1 1,-1 0.88992,0 1.33992,0.45 1,1 -0.33992,0.55 -0.78992,1 -1,1 -0.21008,0 -0.66008,-0.45 -1,-1 z m -38.94247,-1.25 c -1.64723,-5.42275 -1.51427,-5.75 2.33609,-5.75 3.46714,0 6.10638,1.37727 6.10638,3.18658 0,0.65589 -6.33714,3.81342 -7.65351,3.81342 -0.22509,0 -0.58013,-0.5625 -0.78896,-1.25 z m 12.13632,-1.38948 c -1.06481,-1.06481 0.26976,-2.31172 1.83243,-1.71206 0.80423,0.30861 1.21326,0.96396 0.90896,1.45632 -0.6482,1.04882 -1.83738,1.15975 -2.74139,0.25574 z M 170.5,231.08177 c -0.33992,-0.55 -0.14148,-1 0.44098,-1 0.58246,0 1.05902,0.45 1.05902,1 0,0.55 -0.19844,1 -0.44098,1 -0.24254,0 -0.7191,-0.45 -1.05902,-1 z m -7.5,-3 c -1.21296,-0.78387 -1.06944,-0.9723 0.75,-0.98469 1.2375,-0.008 2.25,0.43469 2.25,0.98469 0,1.25292 -1.06124,1.25292 -3,0 z m 22.22917,-0.1875 C 185.84724,226.04005 188,225.73251 188,227.49844 c 0,0.87083 -0.7125,1.58333 -1.58333,1.58333 -0.87084,0 -1.40521,-0.53438 -1.1875,-1.1875 z M 158.5,225.08177 c -0.33992,-0.55 -0.14148,-1 0.44098,-1 0.58246,0 1.05902,0.45 1.05902,1 0,0.55 -0.19844,1 -0.44098,1 -0.24254,0 -0.7191,-0.45 -1.05902,-1 z m -6.5,-3 c -1.2819,-0.82843 -1.24555,-0.9716 0.25,-0.98469 0.9625,-0.008 1.75,0.43469 1.75,0.98469 0,1.21961 -0.11279,1.21961 -2,0 z m 42.55279,-2.91459 c -0.32198,-0.52097 -0.15917,-1.21065 0.3618,-1.53262 0.52097,-0.32198 1.21065,-0.15917 1.53262,0.3618 0.32198,0.52097 0.15917,1.21065 -0.3618,1.53262 -0.52097,0.32198 -1.21065,0.15917 -1.53262,-0.3618 z M 144.75,218.41949 c 0.6875,-0.27741 1.8125,-0.27741 2.5,0 0.6875,0.27741 0.125,0.50439 -1.25,0.50439 -1.375,0 -1.9375,-0.22698 -1.25,-0.50439 z m -5.25,-2.33772 c -1.90836,-0.82005 -1.8969,-0.86265 0.25,-0.92971 1.2375,-0.0387 2.25,0.37971 2.25,0.92971 0,0.55 -0.1125,0.96837 -0.25,0.92971 -0.1375,-0.0386 -1.15,-0.45702 -2.25,-0.92971 z m 61.05279,-2.91459 c -0.32198,-0.52097 -0.15917,-1.21065 0.3618,-1.53262 0.52097,-0.32198 1.21065,-0.15917 1.53262,0.3618 0.32198,0.52097 0.15917,1.21065 -0.3618,1.53262 -0.52097,0.32198 -1.21065,0.15917 -1.53262,-0.3618 z M 132.75,212.41949 c 0.6875,-0.27741 1.8125,-0.27741 2.5,0 0.6875,0.27741 0.125,0.50439 -1.25,0.50439 -1.375,0 -1.9375,-0.22698 -1.25,-0.50439 z m -5.25,-2.33772 c -1.90836,-0.82005 -1.8969,-0.86265 0.25,-0.92971 1.2375,-0.0387 2.25,0.37971 2.25,0.92971 0,0.55 -0.1125,0.96837 -0.25,0.92971 -0.1375,-0.0386 -1.15,-0.45702 -2.25,-0.92971 z m -6.75,-3.66228 c 0.6875,-0.27741 1.8125,-0.27741 2.5,0 0.6875,0.27741 0.125,0.50439 -1.25,0.50439 -1.375,0 -1.9375,-0.22698 -1.25,-0.50439 z m 88.47917,-2.52522 C 209.84724,202.04005 212,201.73251 212,203.49844 c 0,0.87083 -0.7125,1.58333 -1.58333,1.58333 -0.87084,0 -1.40521,-0.53438 -1.1875,-1.1875 z M 114.75,203.41949 c 0.6875,-0.27741 1.8125,-0.27741 2.5,0 0.6875,0.27741 0.125,0.50439 -1.25,0.50439 -1.375,0 -1.9375,-0.22698 -1.25,-0.50439 z m -6,-3 c 0.6875,-0.27741 1.8125,-0.27741 2.5,0 0.6875,0.27741 0.125,0.50439 -1.25,0.50439 -1.375,0 -1.9375,-0.22698 -1.25,-0.50439 z m 106.75,-2.33772 c -0.33992,-0.55 -0.14148,-1 0.44098,-1 0.58246,0 1.05902,0.45 1.05902,1 0,0.55 -0.19844,1 -0.44098,1 -0.24254,0 -0.7191,-0.45 -1.05902,-1 z m -112.75,-0.66228 c 0.6875,-0.27741 1.8125,-0.27741 2.5,0 0.6875,0.27741 0.125,0.50439 -1.25,0.50439 -1.375,0 -1.9375,-0.22698 -1.25,-0.50439 z m 115.47917,-2.52522 C 218.84724,193.04005 221,192.73251 221,194.49844 c 0,0.87083 -0.7125,1.58333 -1.58333,1.58333 -0.87084,0 -1.40521,-0.53438 -1.1875,-1.1875 z M 96.75,194.41949 c 0.6875,-0.27741 1.8125,-0.27741 2.5,0 0.6875,0.27741 0.125,0.50439 -1.25,0.50439 -1.375,0 -1.9375,-0.22698 -1.25,-0.50439 z M 90,192.08177 c 0,-0.55 1.0125,-0.99311 2.25,-0.98469 1.819438,0.0124 1.962959,0.20082 0.75,0.98469 -1.938759,1.25292 -3,1.25292 -3,0 z m -6,-3.09362 c 0,-0.49851 0.9,-0.90638 2,-0.90638 1.1,0 2,0.17252 2,0.38337 0,0.21085 -0.9,0.61872 -2,0.90638 -1.1,0.28766 -2,0.11514 -2,-0.38337 z m 140.15,0.14362 c 0.42971,-1.28914 1.80131,-1.5207 1.925,-0.325 0.0413,0.39875 -0.465,0.905 -1.125,1.125 -0.66,0.22 -1.02,-0.14 -0.8,-0.8 z M 78,185.98815 c 0,-0.49851 0.9,-0.90638 2,-0.90638 1.1,0 2,0.17252 2,0.38337 0,0.21085 -0.9,0.61872 -2,0.90638 -1.1,0.28766 -2,0.11514 -2,-0.38337 z m 150,-0.9654 c 0,-0.58246 0.45,-0.7809 1,-0.44098 0.55,0.33992 1,0.81648 1,1.05902 0,0.24254 -0.45,0.44098 -1,0.44098 -0.55,0 -1,-0.47656 -1,-1.05902 z M 72,182.58177 c 0,-0.82043 0.750067,-1.11661 2,-0.78975 1.1,0.28766 2,0.64304 2,0.78975 0,0.14671 -0.9,0.50209 -2,0.78975 -1.249933,0.32686 -2,0.0307 -2,-0.78975 z m 308.44755,134 c 0.37438,-27.5 0.90716,-50.7875 1.18396,-51.75 0.35641,-1.23932 -0.0643,-1.75 -1.44168,-1.75 -1.06972,0 -2.5053,-0.6752 -3.19019,-1.50044 -1.05214,-1.26775 -0.76096,-1.5973 1.87755,-2.125 L 382,258.83177 v -26.25999 c 0,-26.13376 -0.0108,-26.267 -2.25,-27.71851 -1.2375,-0.80218 -4.18215,-1.7624 -6.54367,-2.13381 -2.36153,-0.37141 -5.06153,-1.06914 -6,-1.55052 -1.56157,-0.80097 -5.97933,-1.84523 -16.70633,-3.94902 -2.2,-0.43146 -5.575,-1.28542 -7.5,-1.89768 -3.68559,-1.17223 -10.16452,-2.68744 -18.5,-4.32656 -2.75,-0.54077 -5.9,-1.39211 -7,-1.89188 -1.1,-0.49976 -4.025,-1.21143 -6.5,-1.58148 -2.475,-0.37004 -5.2875,-1.08638 -6.25,-1.59186 -1.44816,-0.76054 -1.75,-0.48178 -1.75,1.61613 0,1.39435 0.41425,2.53518 0.92054,2.53518 0.5063,0 1.21593,1.34484 1.57694,2.98853 0.36102,1.6437 1.07177,3.24525 1.57946,3.55902 0.50768,0.31377 0.92306,1.28214 0.92306,2.15194 0,0.86979 0.96401,3.65574 2.14223,6.19098 1.17823,2.53524 2.70838,5.95953 3.40034,7.60953 0.69195,1.65 1.9446,4.575 2.78367,6.5 0.83906,1.925 2.25571,5.3 3.14811,7.5 0.89239,2.2 2.05074,4.78139 2.57409,5.73643 0.52336,0.95504 0.95156,2.25575 0.95156,2.89047 0,0.63472 0.85883,3.00333 1.90852,5.26357 1.04968,2.26024 2.68956,5.90953 3.64417,8.10953 0.95462,2.2 2.34579,4.35986 3.09149,4.79969 0.77732,0.45848 1.35582,2.48519 1.35582,4.75 0,2.17267 0.45,3.95031 1,3.95031 0.55,0 1,0.47469 1,1.05486 0,0.9544 1.4742,4.55144 5.57227,13.59627 0.78525,1.73312 1.42773,3.60915 1.42773,4.16896 0,0.55981 0.63595,2.2918 1.41321,3.84887 1.28201,2.5682 2.21111,4.6793 5.42691,12.33104 3.71292,8.8346 5.3802,12.74213 6.1869,14.5 0.5048,1.1 1.8453,4.475 2.9789,7.5 1.13359,3.025 2.67615,6.85 3.42791,8.5 1.39361,3.05876 3.18041,7.12946 5.99207,13.65113 0.86576,2.00812 1.5741,4.10915 1.5741,4.66896 0,0.55981 0.64747,2.2918 1.43882,3.84887 0.79135,1.55707 2.16584,4.63104 3.05442,6.83104 0.88859,2.2 2.26612,5.19443 3.06118,6.65429 0.79507,1.45986 1.45926,3.48486 1.47599,4.5 0.0252,1.52738 0.17753,1.587 0.88343,0.34571 0.46916,-0.825 1.15933,-24 1.53371,-51.5 z m -17.96111,-55.34689 c -1.4026,-1.4026 0.0935,-1.87077 5.51905,-1.72705 3.30303,0.0875 6.00389,0.58992 6.00192,1.11651 -0.004,0.96085 -10.60866,1.52285 -11.52097,0.61054 z m -5.87945,-1.7349 c -0.85768,-2.23506 -0.79004,-2.41821 0.89301,-2.41821 0.83333,0 1.5,0.88889 1.5,2 0,2.38425 -1.53559,2.65261 -2.39301,0.41821 z m -6.87549,-0.54859 c -0.96103,-0.53783 -2.17904,-0.71106 -2.70668,-0.38496 -0.52764,0.3261 -3.22408,0.29248 -5.99208,-0.0747 C 337.53341,258.02753 336,257.36903 336,256.3305 c 0,-1.06791 0.35626,-1.2052 1.25,-0.48169 0.6875,0.55656 4.50894,0.87388 8.4921,0.70515 7.24596,-0.30694 9.33223,0.39132 6.98631,2.33825 -0.82697,0.68633 -1.8405,0.70635 -2.99691,0.0592 z m 32.42472,-63.11962 c 0.0859,-1.7875 0.25526,-4.375 0.37629,-5.75 0.12103,-1.375 0.32387,-18.90647 0.45075,-38.95883 l 0.2307,-36.45883 -2.60698,-2.07874 c -3.30229,-2.63315 -3.27667,-3.2937 0.14302,-3.68718 2.66526,-0.30667 2.75706,-0.52108 2.97899,-6.95847 l 0.229,-6.642037 -9.229,-7.81353 c -5.07594,-4.29744 -10.31031,-8.85348 -11.63193,-10.12453 -2.24917,-2.16311 -2.51994,-2.20512 -4.23119,-0.65647 -1.70751,1.54528 -1.87902,1.52937 -2.59706,-0.24097 -0.42284,-1.04253 -1.63922,-3.33072 -2.70306,-5.08488 -1.92235,-3.16974 -1.94177,-3.17585 -3.1564,-0.99245 -1.3342,2.39836 -4.75232,9.45378 -6.87792,14.19692 -3.11672,6.95474 -7.81871,17.284947 -9.6084,21.109527 -1.05767,2.26024 -1.92303,4.62274 -1.92303,5.25 0,0.62726 -0.45,1.14047 -1,1.14047 -0.55,0 -1,0.71807 -1,1.59571 0,0.87764 -0.6124,2.79014 -1.36089,4.25 -1.38135,2.69419 -6.71718,14.18105 -9.12974,19.65429 -0.7273,1.65 -2.74111,6.15 -4.47513,10 -3.53882,7.85715 -4.51623,10.03237 -8.9868,20 -1.72676,3.85 -3.73427,8.17018 -4.46113,9.6004 -1.31346,2.58444 -1.2871,2.61057 4.29606,4.25768 3.0897,0.9115 7.64263,2.09056 10.11763,2.62013 2.475,0.52957 7.2,1.63448 10.5,2.45536 13.3639,3.32428 19.28311,4.76477 25,6.08397 10.66802,2.46169 17.93209,4.30087 21,5.31696 1.65,0.54648 4.4625,1.03227 6.25,1.07955 2.9873,0.079 3.26263,-0.17675 3.40622,-3.16405 z m -7.65622,-90.75 c -0.33992,-0.55 -0.35207,-1.43035 -0.027,-1.95633 0.82257,-1.33094 3.52699,-0.13222 3.52699,1.56332 0,1.5989 -2.57595,1.88815 -3.5,0.39301 z m -3.12095,-5.454587 c -0.89712,-2.33785 0.98055,-4.02197 2.47566,-2.22047 0.90806,1.09414 0.83407,1.68846 -0.33055,2.655007 -1.22418,1.01598 -1.6192,0.93596 -2.14511,-0.434537 z m -3.24793,-5.88742 c -1.22366,-1.47442 -0.5399,-2.65799 1.53555,-2.65799 0.73333,0 1.33333,0.9 1.33333,2 0,2.30734 -1.26017,2.59637 -2.86888,0.65799 z m -5.58841,-6.58889 c -0.31644,-0.512 -0.11397,-1.21605 0.44993,-1.56455 1.42561,-0.88108 5.16454,0.43211 4.46286,1.56744 -0.74349,1.20301 -4.16876,1.20099 -4.91279,-0.003 z m -3.2041,-5.62909 c -0.75083,-1.95661 0.15198,-2.84947 2.11826,-2.09494 1.97817,0.7591 1.9808,2.273 0.005,3.03108 -0.88556,0.33982 -1.78628,-0.0573 -2.12354,-0.93614 z M 296.75,176.76306 c 1.2375,-1.81778 2.25,-3.6135 2.25,-3.9905 0,-0.377 1.35,-3.61165 3,-7.18812 1.65,-3.57647 4.35,-9.42887 6,-13.00534 1.65,-3.57647 3,-6.69941 3,-6.93988 0,-0.3673 3.59376,-8.26277 10.495,-23.05745 1.33373,-2.8592 3.60445,-7.94482 8.48348,-19 3.94786,-8.945287 7.16222,-15.923857 9.11111,-19.780797 2.29279,-4.53754 2.46195,-7.7192 0.41041,-7.7192 -0.825,0 -1.5,-0.64844 -1.5,-1.44099 0,-2.49598 1.80089,-2.68136 3.43158,-0.35324 L 343,76.526783 v -2.22251 c 0,-3.4295 -0.28499,-3.72723 -3.5,-3.65651 -2.85259,0.0627 -11.00717,2.56541 -14.73643,4.52267 -0.95504,0.50123 -2.21723,0.91134 -2.80487,0.91134 -1.03759,0 -8.89786,3.21707 -11.99152,4.90792 -0.84306,0.46077 -2.9754,1.15461 -4.73854,1.54186 -1.76314,0.38725 -3.46242,1.11947 -3.77619,1.62715 -0.31377,0.50769 -1.33143,0.92584 -2.26147,0.92923 -0.93004,0.003 -2.81598,0.58332 -4.19098,1.28875 -1.375,0.70542 -4.75,2.09497 -7.5,3.08789 -9.96108,3.59654 -16.01915,6.03301 -16.95,6.81704 -0.5225,0.44009 -1.55969,0.80016 -2.30486,0.80016 -1.26573,0 -8.83187,3.024437 -12.27796,4.907917 -0.84306,0.46077 -2.9754,1.15461 -4.73854,1.54186 -1.76314,0.38725 -3.46242,1.11947 -3.77619,1.62716 -0.31377,0.50768 -1.33143,0.92583 -2.26147,0.92922 -0.93004,0.003 -2.81598,0.58707 -4.19098,1.29708 -1.375,0.71001 -5.425,2.33347 -9,3.6077 -3.575,1.27422 -7.91801,2.94054 -9.65113,3.70292 -1.73312,0.76238 -3.87062,1.38614 -4.75,1.38614 -0.87938,0 -1.59887,0.45 -1.59887,1 0,0.55 -0.7875,1.00277 -1.75,1.00616 -0.9625,0.003 -3.03894,0.67839 -4.61431,1.5 -1.57537,0.82161 -3.37537,1.49661 -4,1.5 -0.62463,0.003 -2.36988,0.64999 -3.87834,1.43688 -1.50846,0.7869 -5.68483,2.42455 -9.28083,3.63921 -3.59599,1.21467 -6.77586,2.59307 -7.06636,3.06312 -0.29051,0.47005 -1.28914,0.8574 -2.21918,0.86079 -0.93004,0.003 -2.97992,0.67839 -4.55529,1.5 -1.57537,0.82161 -3.28755,1.49384 -3.80486,1.49384 -0.93677,0 -8.94676,3.31368 -11.86365,4.90792 -0.84306,0.46077 -2.9754,1.15461 -4.73854,1.54186 -1.76314,0.38725 -3.46242,1.11947 -3.77619,1.62716 -0.31377,0.50768 -1.33143,0.92583 -2.26147,0.92922 -0.93004,0.003 -2.81598,0.58333 -4.19098,1.28875 -1.375,0.70542 -4.75,2.09497 -7.5,3.08789 -9.96108,3.59654 -16.01915,6.03301 -16.95,6.81704 -0.5225,0.44009 -1.57949,0.80016 -2.34887,0.80016 -0.76938,0 -2.81688,0.63805 -4.55,1.41789 -1.73312,0.77985 -7.42613,3.05437 -12.65113,5.0545 -5.225,2.00013 -10.85,4.24763 -12.5,4.99444 -1.65,0.74681 -5.3625,2.12408 -8.25,3.06061 -4.777119,1.5494 -7.17813,4.30087 -4,4.58386 0.6875,0.0612 2.825,0.24959 4.75,0.41861 1.925,0.16902 18.575,0.58693 37,0.92867 18.425,0.34175 41.375,1.11243 51,1.71262 9.625,0.6002 33.025,1.27561 52,1.50091 18.975,0.22531 40.35,0.77442 47.5,1.22026 23.599,1.4715 22.68871,1.55121 25.25,-2.21108 z m -54.53183,-5.83579 c 0.51903,-1.5571 2.75625,-1.82979 2.83465,-0.3455 0.0291,0.55 -0.69777,1.15548 -1.61517,1.3455 -1.04271,0.21599 -1.49986,-0.15888 -1.21948,-1 z m 5.34659,-5.74072 c -0.3043,-0.49236 0.0751,-1.13636 0.84322,-1.43109 1.46629,-0.56267 2.59202,0.0857 2.59202,1.49298 0,1.11676 -2.73727,1.06745 -3.43524,-0.0619 z M 252,161.52275 c 0,-0.85746 0.45734,-1.27636 1.01631,-0.9309 0.55897,0.34546 0.75742,1.04702 0.44098,1.55902 C 252.60006,163.53791 252,163.27928 252,161.52275 Z m 5.22917,-5.62848 C 257.84724,154.04005 260,153.73251 260,155.49844 c 0,0.87083 -0.7125,1.58333 -1.58333,1.58333 -0.87084,0 -1.40521,-0.53438 -1.1875,-1.1875 z m 8.95833,-8.875 c 0.24063,-0.72188 1.02812,-1.50938 1.75,-1.75 0.75,-0.25 1.125,0.125 0.875,0.875 -0.24063,0.72187 -1.02813,1.50937 -1.75,1.75 -0.75,0.25 -1.125,-0.125 -0.875,-0.875 z m 5.37726,-5.83272 c -0.3043,-0.49236 0.10473,-1.14771 0.90896,-1.45632 1.56267,-0.59966 2.89724,0.64725 1.83243,1.71206 -0.90401,0.90401 -2.09319,0.79308 -2.74139,-0.25574 z m 4.0318,-2.94855 c -0.34605,-0.55992 -0.1419,-1.31919 0.45366,-1.68727 1.53748,-0.95021 2.52947,0.35135 1.24598,1.63484 -0.71818,0.71818 -1.27752,0.73543 -1.69964,0.0524 z m 5.09729,-5.79571 c -0.93324,-0.93324 0.19452,-2.36052 1.86517,-2.36052 0.79254,0 1.44098,0.675 1.44098,1.5 0,1.50623 -2.11099,2.05568 -3.30615,0.86052 z m 6.11865,-7.04363 c 0.72187,-0.28887 1.58438,-0.25335 1.91667,0.0789 0.33229,0.3323 -0.25834,0.56864 -1.3125,0.52522 -1.16495,-0.048 -1.4019,-0.28494 -0.60417,-0.60416 z m 3.20281,-2.06689 c 0.0363,-1.77777 1.74659,-3.44427 2.41871,-2.35676 0.37621,0.60872 0.4059,1.55676 0.066,2.10676 -0.72089,1.16642 -2.50707,1.34614 -2.48469,0.25 z m 6.48469,-6.25 c -0.33992,-0.55 0.11008,-1 1,-1 0.88992,0 1.33992,0.45 1,1 -0.33992,0.55 -0.78992,1 -1,1 -0.21008,0 -0.66008,-0.45 -1,-1 z m 3.17885,-2.71061 c -0.30079,-0.48669 -0.18283,-1.47394 0.26213,-2.1939 0.61466,-0.99454 0.98628,-1.0222 1.54689,-0.11512 0.40582,0.65664 0.28787,1.64389 -0.26213,2.19389 -0.55946,0.55946 -1.24093,0.61018 -1.54689,0.11513 z m 4.88591,-6.18461 c -0.3043,-0.49236 0.18355,-1.17796 1.08411,-1.52353 1.94685,-0.74708 2.80894,-0.13102 1.89225,1.35222 -0.80368,1.30037 -2.2279,1.38235 -2.97636,0.17131 z M 309,102.58177 c 0,-0.825 0.43588,-1.5 0.96862,-1.5 0.53273,0 0.70959,0.675 0.39301,1.5 -0.31659,0.825 -0.75246,1.5 -0.96862,1.5 -0.21615,0 -0.39301,-0.675 -0.39301,-1.5 z m 5.59656,-3.343767 c -0.34605,-0.55992 -0.1419,-1.31919 0.45366,-1.68727 1.53748,-0.95022 2.52947,0.35135 1.24598,1.63484 -0.71818,0.71818 -1.27752,0.73543 -1.69964,0.0524 z M 319,93.080823 c -1.522,-0.98263 -1.4809,-0.99905 2.5,-0.99905 0.275,0 0.53375,0.32625 0.575,0.725 0.12162,1.17568 -1.46012,1.31665 -3.075,0.27405 z m 5,-4.49905 c 0,-0.825 0.17686,-1.5 0.39301,-1.5 0.21616,0 0.65203,0.675 0.96862,1.5 0.31658,0.825 0.13972,1.5 -0.39301,1.5 -0.53274,0 -0.96862,-0.675 -0.96862,-1.5 z m 4.49563,-4.50707 c -0.34231,-0.55388 0.10054,-1.28447 0.98412,-1.62353 1.91464,-0.73472 2.98171,0.0749 2.06137,1.56407 -0.83038,1.34358 -2.23491,1.371 -3.04549,0.0595 z M 333,78.581773 c 0,-0.825 0.7301,-1.5 1.62244,-1.5 1.3288,0 1.39713,0.27149 0.37756,1.5 -0.68469,0.825 -1.41479,1.5 -1.62244,1.5 -0.20766,0 -0.37756,-0.675 -0.37756,-1.5 z"
     id="path833"
     inkscape:connector-curvature="0" />
  <path
     style="opacity:1;fill:#d7dae1;fill-opacity:1;stroke:#5d5e9c;stroke-width:0.2976695;stroke-linejoin:round;stroke-miterlimit:4;stroke-dasharray:none;stroke-dashoffset:0;stroke-opacity:1"
     d="m 351.59076,68.836463 c -1.63488,1.40327 -2.34338,3.72592 -3.41226,5.58613 -5.54508,11.77823 -11.11225,23.56432 -16.09095,35.592647 -0.17892,1.16451 -1.01258,1.91598 -1.82609,2.62573 -0.90033,2.86288 -1.84954,5.73703 -3.30225,8.39575 -8.73048,18.68656 -16.9924,37.59056 -25.58622,56.33864 -0.47341,0.92341 -1.00472,2.64779 0.51918,2.89297 10.2929,3.45202 21.01573,5.40176 31.51266,8.12496 13.97746,3.41881 28.01181,6.62989 41.90298,10.3759 2.00359,0.12883 4.20532,0.65447 6.12781,-0.0384 1.21884,-1.61698 0.72235,-3.93426 1.03181,-5.8328 0.78857,-24.14648 0.62972,-48.31325 0.93129,-72.46893 -0.0117,-1.94293 0.0864,-3.91063 0.009,-5.83874 -1.67409,-1.4759 -3.80575,-2.66165 -5.02783,-4.54062 1.1303,-1.62622 4.33629,-0.26293 4.93655,-2.57787 0.81099,-4.05194 0.68219,-8.260757 0.6808,-12.364907 -7.74064,-6.38507 -15.17237,-13.13683 -22.92404,-19.49909 -1.53827,-0.28477 -2.58761,1.73032 -3.96156,1.88601 -1.85784,-2.75034 -2.85499,-6.11654 -5.14759,-8.54637 -0.11096,-0.0697 -0.2404,-0.11879 -0.37325,-0.11104 z m 8.98299,10.60157 c 1.41118,-0.25196 3.02246,1.81036 1.29649,2.59763 -1.49388,1.33632 -3.29328,-1.14913 -2.1924,-2.43543 0.26737,-0.15348 0.59791,-0.1505 0.89591,-0.1622 z m 3.43192,6.14757 c 1.04199,0.0792 3.07039,0.0257 3.21332,1.38137 -0.97247,1.24684 -3.33446,1.16805 -4.35283,0.0343 -0.56442,-0.83442 0.24993,-1.61294 1.13951,-1.41567 z m 5.45863,5.72374 c 1.50709,0.0807 1.66616,2.55533 0.75639,3.38599 -1.28824,0.2267 -2.55774,-1.33586 -2.47496,-2.56216 0.215,-0.70592 1.09463,-0.81697 1.71857,-0.82383 z m 3.086,5.69526 c 1.30461,0.0112 2.4186,1.9145 1.0651,2.71797 -0.49713,0.524297 -1.59364,1.441917 -1.8552,0.24128 -0.46619,-0.98872 -0.81883,-2.91545 0.7901,-2.95925 z m 2.99646,5.782457 c 1.10408,-0.003 2.49183,1.22837 2.18717,2.31798 -0.85045,1.45772 -3.13794,0.72211 -3.20924,-0.83487 -0.11975,-0.70438 0.20383,-1.49216 1.02207,-1.48311 z"
     id="path843"
     inkscape:connector-curvature="0" />
  <path
     style="opacity:1;fill:#e0e3f4;fill-opacity:1;stroke:#5d5e9c;stroke-width:0.84193647;stroke-linejoin:round;stroke-miterlimit:4;stroke-dasharray:none;stroke-dashoffset:0;stroke-opacity:1"
     d="m 63.33377,196.16145 c -3.258773,4.51189 -2.751842,11.01591 -3.884089,16.35363 -1.124217,15.1649 -3.485549,30.20287 -3.994141,45.40569 -2.75633,23.25299 -4.845345,46.5883 -6.855658,69.90836 -2.309646,20.29921 -4.015394,40.67429 -6.015176,61.00789 -2.257373,14.21553 -1.983489,28.65745 -4.170282,42.88575 -0.07212,6.6802 -2.201087,13.7915 -0.337103,20.2903 2.324303,4.2581 7.578593,4.1272 11.325032,1.9914 19.093725,-6.9996 38.054056,-14.6548 57.207277,-21.4809 0.34216,-19.7914 -7.009558,-38.71368 -8.925839,-58.22514 -0.368388,-2.47986 -2.507296,-3.6864 -4.408655,-4.44318 -0.17266,-2.26048 2.473535,-3.90104 1.647695,-6.48555 -0.151493,-7.51027 -3.047407,-14.63883 -3.526196,-22.15562 -4.867983,-23.90957 -9.015798,-47.95882 -13.632648,-71.91558 -4.608876,-24.16908 -8.986148,-48.37571 -13.968138,-72.4612 -0.12641,-0.17847 -0.107911,-0.75228 -0.462079,-0.67585 z m 27.333336,177.85414 c 2.39744,2.38842 -3.113827,1.22932 0,0 z m -11.905508,17.62147 c 1.541829,0.56405 -0.06821,3.827 -0.544299,1.0738 -0.08433,-0.37862 7.6e-5,-1.12474 0.544299,-1.0738 z m -2.897446,5.94453 c 1.36966,1.73831 -2.811177,2.15754 0,0 z m -3.487787,4.61585 c 0.687281,0.79171 -0.226243,3.69759 -0.152929,1.16753 0.02727,-0.35496 -0.03097,-0.90055 0.152929,-1.16753 z m -11.787111,17.68063 c 0.687281,0.7917 -0.226242,3.6976 -0.152929,1.1676 0.02727,-0.355 -0.03097,-0.9006 0.152929,-1.1676 z m -3.239482,4.9596 c 2.309474,0.5296 -0.169067,3.53 -0.41439,0.7843 0.0018,-0.2807 0.06837,-0.7443 0.41439,-0.7843 z m -10.953396,18.2085 c 1.36966,1.7383 -2.811177,2.1575 0,0 z m -3.542053,5.3657 c 1.754102,1.3314 -1.822563,3.0706 -0.840292,0.6479 0.196461,-0.2783 0.474506,-0.6234 0.840292,-0.6479 z"
     id="path847"
     inkscape:connector-curvature="0" />
  <path
     style="opacity:1;fill:#dfe3eb;fill-opacity:1;stroke:#5d5e9c;stroke-width:0.84193647;stroke-linejoin:round;stroke-miterlimit:4;stroke-dasharray:none;stroke-dashoffset:0;stroke-opacity:1"
     d="m 107.4565,436.36987 c -9.895235,1.5737 -18.680924,6.8712 -28.236998,9.6884 -12.984108,5.081 -26.18822,10.0408 -39.104761,15.0566 0.0531,2.2545 4.533828,2.1037 4.183372,4.9415 6.174076,8.5571 15.46457,14.4117 23.081051,21.6233 9.659809,7.6263 18.205045,16.8196 28.52209,23.5354 9.759846,3.0019 20.328706,1.4679 30.408376,2.0097 11.03138,-0.3745 22.30969,0.5327 33.20222,-1.1398 1.77483,-2.4103 -2.48152,-5.2561 -3.12879,-7.495 -3.81739,-5.4732 -7.76708,-11.315 -12.05566,-16.2256 -0.8082,0.3671 -3.47182,2.8238 -3.50259,0.888 2.87809,-3.2429 2.05417,-6.167 -0.9652,-9.1475 -10.11062,-14.2881 -18.84182,-29.6977 -30.25222,-42.9934 -0.58477,-0.5377 -1.34718,-0.8697 -2.15089,-0.7416 z m -58.886217,27.7329 c 2.39744,2.3884 -3.113827,1.2293 0,0 z m 7.319256,3.4582 c 3.675534,0.3622 -3.561773,0.5514 -0.685718,0.034 0.227418,-0.042 0.456871,-0.021 0.685718,-0.034 z m 13.153613,2.4189 c 2.350659,0.1683 0.565527,3.7625 -0.794248,1.6148 -0.744578,-0.7091 -0.215753,-1.7407 0.794248,-1.6148 z m 7.215658,2.5258 c 2.554388,1.1762 -2.767544,2.2549 -0.833714,0.3487 0.239897,-0.182 0.523619,-0.3436 0.833714,-0.3487 z m 4.943088,0.842 c 3.358783,-0.01 0.07488,2.785 -1.128063,0.689 -0.292316,-0.6009 0.780942,-0.6902 1.128063,-0.689 z m 8.797579,2.5258 c 1.703095,-0.3153 2.462262,2.2085 0.269683,1.3435 -0.737259,-0.1132 -1.695733,-1.3886 -0.269683,-1.3435 z m 12.770463,2.5258 c 2.979,0.8027 -0.83819,3.8875 -1.73649,1.3961 -0.12144,-0.9018 0.9844,-1.4162 1.73649,-1.3961 z m 6.26026,0.8419 c 2.07713,0.014 -1.26217,4.8888 -0.72354,1.7924 0.0456,-0.5495 0.0475,-1.5999 0.72354,-1.7924 z m 6.73878,2.5258 c 2.88429,-0.2829 0.73673,2.714 -0.98664,1.8253 -1.22081,-0.8547 -0.3159,-2.0144 0.98664,-1.8253 z m 11.57663,3.3809 c 1.93383,-0.7015 3.92613,1.6837 0.93074,1.4175 -1.54236,0.12 -4.51212,-1.9071 -0.93239,-1.4175 z m 8.20723,2.4782 c 1.52192,1.3268 -2.50509,2.0037 -0.56239,0.1545 0.15709,-0.1183 0.36443,-0.1986 0.56239,-0.1545 z"
     id="path849"
     inkscape:connector-curvature="0" />
  <path
     style="opacity:1;fill:#d6d9e1;fill-opacity:1;stroke:#5d5e9c;stroke-width:0.84193647;stroke-linejoin:round;stroke-miterlimit:4;stroke-dasharray:none;stroke-dashoffset:0;stroke-opacity:1"
     d="m 118.95749,436.18567 c -3.57841,-0.3812 -2.18806,3.7499 -0.66928,5.2424 10.86835,15.2075 20.42393,31.3868 31.98701,46.0779 2.06734,2.4832 6.79332,3.2757 5.84587,7.4656 1.64287,6.7932 6.65109,12.1738 10.84651,17.5261 17.64291,-0.2082 35.3844,0.9988 52.97458,-0.2006 1.06432,-0.8171 -3.16172,-2.5442 -0.51142,-3.1605 8.43551,-0.8939 16.25065,3.2104 24.70058,3.1333 14.92837,1.5223 30.01174,1.3384 44.96638,1.4282 1.10369,-4.2759 2.42291,-5.8954 4.80989,-1.6888 4.28331,2.5195 9.86882,0.9306 14.65002,0.9308 2.97605,0.4177 5.24837,-3.555 7.90796,-2.4847 3.85755,3.4914 10.06856,2.084 14.82852,2.9392 16.02279,0.6231 32.15833,-0.077 48.10294,-0.7735 -0.46033,-14.0469 0.9506,-28.2893 -0.85674,-42.2301 -3.05039,-2.4007 -7.9857,-1.593 -11.66707,-2.6129 -5.38628,0.022 -11.31954,-2.5871 -16.49998,-0.5937 -1.25649,1.8235 -2.92651,2.1949 -3.68347,-0.1036 -6.20152,-4.3354 -14.56308,-3.5028 -21.71933,-4.9463 -19.43258,-1.9729 -38.64834,-5.7248 -58.18241,-6.6714 -27.15821,-4.8089 -54.60758,-7.8456 -81.96383,-11.3431 -19.26002,-2.4759 -38.51626,-5.0901 -57.76638,-7.5347 -2.69624,-0.1675 -5.39594,-0.4832 -8.10035,-0.3996 z m 151.76233,23.8933 c 3.1752,0.296 -0.008,4.874 -1.25632,2.0193 -0.34169,-0.8629 0.26075,-2.0563 1.25632,-2.0193 z m 3.08491,6.326 c 2.49184,0.9913 -0.62624,4.0399 -1.21521,1.6033 0.0547,-0.6598 0.40414,-1.6582 1.21521,-1.6033 z m 2.35479,6.1007 c 2.98271,0.4664 -0.7084,4.1429 -1.16259,1.1577 -0.009,-0.621 0.54132,-1.1694 1.16259,-1.1577 z m 66.99151,0 c 2.08668,1.2437 -0.64532,4.9257 -1.42406,1.8138 -0.089,-0.8358 0.52537,-1.8032 1.42406,-1.8138 z m -3.83805,5.8936 c 2.82052,0.2664 -0.24676,4.8152 -1.12642,1.7924 -0.2181,-0.7726 0.21083,-1.8135 1.12642,-1.7924 z m -60.85458,0.043 c 3.66431,0.1633 0.86054,4.3461 2.69189,6.2734 2.41421,4.8609 5.38532,10.5077 5.0138,15.8915 -1.5934,-2.2945 -0.26556,-6.0396 -3.23619,-7.4903 -0.7633,-5.0626 -4.30938,-9.461 -4.96282,-14.4559 0.0918,-0.1787 0.30888,-0.2288 0.49332,-0.2187 z m 56.19597,6.1319 c 3.40696,0.693 -1.29219,3.3335 -2.39754,1.4685 0.0688,-1.0168 1.57004,-1.3921 2.39754,-1.4685 z m -3.56014,4.7047 c 1.41814,2.8135 -2.56621,5.6773 -4.32972,7.482 -1.31728,-0.7018 1.3589,-3.7192 1.83351,-4.869 0.72194,-0.8733 1.30412,-2.316 2.49621,-2.613 z m -168.43169,4.4087 c 3.31151,0.2577 -0.11611,3.699 -1.64276,1.5605 -0.81657,-0.9455 0.91844,-1.6067 1.64276,-1.5605 z m 6.0284,0.2384 c 1.83234,0.4778 0.22212,4.7646 -0.5591,2.4436 0.009,-0.6489 -0.32879,-2.2567 0.5591,-2.4436 z m 5.44463,2.3087 c 2.23649,-0.3492 2.61661,2.983 0.11346,2.1164 -1.23937,-0.086 -1.67913,-2.056 -0.11346,-2.1164 z m 6.53981,1.5359 c 2.14681,1.2849 -1.30094,3.685 -0.75314,0.6857 0.0915,-0.3325 0.35897,-0.7446 0.75314,-0.6857 z m 142.33001,1.6773 c 4.13444,0.6887 -3.68021,4.2111 -1.82858,0.5065 0.53787,-0.3889 1.18153,-0.4981 1.82858,-0.5065 z m -134.83645,0.2023 c 1.195,-0.4938 4.41916,1.3198 1.83351,1.8976 -1.06982,0.3328 -5.25574,0.5996 -4.42016,-1.2316 0.74502,-0.5263 1.69331,-0.6749 2.58665,-0.666 z m 7.32748,1.7924 c 2.6057,1.3499 -1.88097,4.2706 -0.96198,0.7334 0.17995,-0.3527 0.52995,-0.7484 0.96198,-0.7334 z m 6.22079,1.3731 c 3.36395,0.052 -0.92686,3.959 -1.60494,1.0754 -0.26238,-0.9409 0.99395,-1.0823 1.60494,-1.0754 z m 86.55337,0 c 2.32562,0.2852 1.14218,5.5347 -0.44892,2.8744 -0.18176,-0.8003 -0.46672,-2.3906 0.44892,-2.8744 z m 30.7389,1.7101 c 2.94143,0.761 -1.83068,6.1597 -1.07379,2.1575 0.0484,-0.7123 0.0372,-2.2034 1.07379,-2.1575 z m -111.04681,0.8157 c 2.90759,0.2766 -0.86535,2.8129 -1.14286,0.6068 0.1684,-0.4494 0.70831,-0.6021 1.14286,-0.6068 z m 5.57289,0.393 c 2.14942,-0.5676 3.30408,2.3588 0.62488,2.266 -1.57565,0.3057 -3.74575,-1.7507 -0.62488,-2.266 z"
     id="path851"
     inkscape:connector-curvature="0" />
  <path
     style="opacity:1;fill:#e0e3f4;fill-opacity:1;stroke:#5d5e9c;stroke-width:0.84193647;stroke-linejoin:round;stroke-miterlimit:4;stroke-dasharray:none;stroke-dashoffset:0;stroke-opacity:1"
     d="m 297.61082,185.34783 c -10.84031,12.25066 -20.27371,26.01867 -30.30807,39.0448 -3.92834,6.24849 -9.90941,11.55702 -12.41363,18.55056 -0.56596,2.81579 3.44108,1.53191 3.87422,3.25099 -2.54698,0.92976 -6.13839,-0.9304 -8.26315,1.80062 -13.57987,16.07055 -25.41237,33.60589 -37.68738,50.70967 -5.8645,10.74944 -15.1899,19.05058 -21.99529,29.20728 -23.64132,32.4649 -48.16189,64.31279 -71.21049,97.19562 -0.93654,1.7636 -4.23976,5.5691 -0.91923,6.6993 20.98698,2.7836 41.98754,5.4526 62.99612,8.158 23.55072,2.9549 47.06715,6.2298 70.63334,9.049 18.36016,1.0748 36.29071,5.6032 54.62815,7.0692 22.65353,3.0028 45.50329,5.4452 67.97721,9.273 2.00638,1.1187 5.05947,-1.7965 5.45802,-3.2688 -1.27659,-27.0135 -0.4259,-54.0443 -0.68595,-81.07124 -16.91402,-39.69096 -32.99989,-79.74918 -50.34403,-119.2471 -0.84278,-2.8476 -3.11988,-4.59491 -4.9541,-6.58951 -0.15592,-10.31378 -5.79561,-19.49559 -9.57879,-28.85952 -5.15189,-13.44764 -11.07577,-26.60904 -16.24169,-40.04278 0.0221,-0.52443 -0.4246,-1.00668 -0.96526,-0.92909 z m -20.611,62.36085 c 2.95376,0.23296 -0.87246,3.64924 -1.15273,0.81727 -0.0263,-0.60366 0.65898,-0.83899 1.15273,-0.81727 z m -6.15831,0.0164 c 2.39744,2.38842 -3.11383,1.22932 0,0 z m 11.84466,0.83865 c 1.78745,-0.47277 2.99839,0.80582 0.70545,0.92745 -1.30884,0.37972 -3.47349,-1.33404 -0.70545,-0.92745 z m 21.25726,2.51265 c 2.90759,0.2766 -0.86536,2.81298 -1.14287,0.60679 0.16841,-0.44935 0.70832,-0.60207 1.14287,-0.60679 z m -6.15996,0.0165 c 2.39745,2.38842 -3.11382,1.22932 0,0 z m 20.51563,2.91553 c 2.56871,0.27891 -0.40538,2.05409 -0.86002,0.52457 0.11093,-0.36627 0.50646,-0.52888 0.86002,-0.52457 z m -108.25461,56.94254 c 1.94723,0.0463 1.28875,3.02252 -0.34533,1.38294 -0.32861,-0.42489 -0.43602,-1.4022 0.34533,-1.38294 z m 3.46641,5.8031 c 2.14682,1.28487 -1.30093,3.68497 -0.75314,0.68573 0.0915,-0.33253 0.35897,-0.7446 0.75314,-0.68573 z m 3.49272,12.63728 c 0.96526,1.19398 -1.87228,2.06773 -0.71039,0.20225 0.18952,-0.17471 0.45707,-0.25176 0.71039,-0.20225 z m 6.25532,12.06995 c 0.9547,1.3627 -2.34327,2.4702 -0.95047,0.51469 0.22721,-0.2762 0.56335,-0.60701 0.95047,-0.51469 z m 2.34986,6.85224 c 0.68728,0.79171 -0.22624,3.69758 -0.15293,1.16753 0.0273,-0.35496 -0.031,-0.90055 0.15293,-1.16753 z m 2.80043,5.836 c 1.76588,0.43245 0.60924,5.38208 -0.42097,2.76918 -0.10219,-0.75116 -0.44227,-2.37008 0.42097,-2.76918 z m 2.83002,7.1877 c 1.25329,0.63441 0.0541,5.02689 -0.53279,1.89107 -0.17172,-0.48333 -0.399,-2.03525 0.53279,-1.89107 z m 4.28697,12.67674 c 0.96526,1.19398 -1.87227,2.06774 -0.71038,0.20226 0.18951,-0.17471 0.45706,-0.25177 0.71038,-0.20226 z m 2.74616,5.87875 c 2.9076,0.2766 -0.86535,2.81298 -1.14286,0.60679 0.1684,-0.44935 0.70831,-0.60207 1.14286,-0.60679 z m 2.59323,5.89356 c 2.872,0.46163 -1.88717,3.84553 -1.13135,0.74985 0.18624,-0.44657 0.64981,-0.75293 1.13135,-0.74985 z m 2.955,5.90013 c 2.14682,1.28486 -1.30093,3.68496 -0.75314,0.68572 0.0915,-0.33252 0.35898,-0.74459 0.75314,-0.68572 z m 2.78234,6.20928 c 1.7541,1.33143 -1.82257,3.07066 -0.8403,0.6479 0.19647,-0.27826 0.47451,-0.62335 0.8403,-0.6479 z m 2.50936,6.72562 c 0.85904,0.77429 -0.26588,3.00827 -0.14963,0.77946 0.0417,-0.21765 -0.008,-0.63023 0.14963,-0.77946 z m 3.6473,11.80687 c 1.87588,0.6609 -0.88505,3.2249 -0.49497,0.7778 -0.003,-0.2991 0.0951,-0.8291 0.49497,-0.7778 z m 3.18521,6.3194 c 0.61807,1.236 -0.2289,4.1982 -0.14799,1.2465 0.0179,-0.3541 -0.002,-1.0754 0.14799,-1.2465 z m 2.52581,6.7355 c 0.61807,1.236 -0.2289,4.1982 -0.14799,1.2465 0.0179,-0.3541 -0.002,-1.0754 0.14799,-1.2465 z m 117.08672,1.7678 c 2.68357,0.7989 -2.84462,2.3774 -0.68571,0.1332 0.21556,-0.094 0.45176,-0.1329 0.68571,-0.1332 z m -114.05608,5.0582 c 2.14682,1.2848 -1.30092,3.6849 -0.75313,0.6857 0.0915,-0.3325 0.35897,-0.7446 0.75313,-0.6857 z m 110.72452,0 c 1.36966,1.7383 -2.81118,2.1575 0,0 z m -107.23179,6.7421 c 0.96526,1.194 -1.87228,2.0677 -0.71039,0.2022 0.18951,-0.1747 0.45706,-0.2517 0.71039,-0.2022 z m 98.63812,2.8333 c 1.75409,1.3314 -1.82257,3.0706 -0.8403,0.6479 0.19647,-0.2783 0.47451,-0.6234 0.8403,-0.6479 z m -3.22962,6.4132 c 2.68356,0.7989 -2.84463,2.3774 -0.68572,0.1332 0.21556,-0.094 0.45176,-0.1329 0.68572,-0.1332 z m -5.41832,5.9988 c 2.02992,0.8877 -2.21262,3.335 -1.10011,0.5624 0.25253,-0.3391 0.66586,-0.5951 1.10011,-0.5624 z"
     id="path853"
     inkscape:connector-curvature="0" />
  <path
     style="opacity:1;fill:#d7dae1;fill-opacity:1;stroke:#5d5e9c;stroke-width:0.84193647;stroke-linejoin:round;stroke-miterlimit:4;stroke-dasharray:none;stroke-dashoffset:0;stroke-opacity:1"
     d="m 303.79214,185.92008 c -2.92589,1.55109 0.86517,4.98168 1.32375,7.00188 4.66429,10.55247 8.51639,21.54897 13.36921,32.09245 4.03292,10.58255 8.51666,20.97985 13.84244,30.97715 0.37025,3.83905 1.3121,7.38974 3.48121,10.65575 8.17602,19.05362 15.66894,38.41489 24.02597,57.41548 5.91333,14.00496 11.33068,28.16422 17.31936,42.132 0.0865,0.7944 0.91833,4.11232 1.65591,1.96836 2.4349,-26.65 1.45868,-53.51775 2.48103,-80.25319 0.12818,-8.12506 0.5938,-16.29454 0.71735,-24.38373 -0.87872,-0.4823 -6.21242,-1.64554 -4.014,-3.34143 4.45962,0.086 4.44356,-3.07651 3.92849,-6.89336 -0.41171,-15.59698 0.84934,-31.33539 -0.76136,-46.85409 -2.20335,-3.90015 -8.04521,-3.31733 -11.71005,-4.97161 -21.76171,-5.27566 -43.49305,-10.93208 -65.37483,-15.57197 z m 33.24827,70.29347 c 5.13049,1.49115 11.04111,-0.30794 15.88333,1.52601 -1.56699,2.64878 -5.93047,0.262 -8.41772,0.68736 -2.30722,-0.52475 -6.67145,-0.23152 -7.75174,-2.23639 z m 20.47616,1.71512 c 2.0277,0.10825 1.40124,3.39093 -0.21049,2.58007 -0.39231,-0.6465 -1.11848,-2.58368 0.21049,-2.58007 z m 9.42738,1.69209 c 1.28837,0.0182 4.95564,0.29416 5.00393,1.05407 -2.71251,0.0785 -6.48808,0.74122 -8.717,-0.26311 1.07794,-0.73183 2.46516,-0.7496 3.71307,-0.79096 z"
     id="path855"
     inkscape:connector-curvature="0" />
</svg>
