<?xml version="1.0" encoding="UTF-8" standalone="no"?>
<svg
   xmlns:dc="http://purl.org/dc/elements/1.1/"
   xmlns:cc="http://creativecommons.org/ns#"
   xmlns:rdf="http://www.w3.org/1999/02/22-rdf-syntax-ns#"
   xmlns:svg="http://www.w3.org/2000/svg"
   xmlns="http://www.w3.org/2000/svg"
   xmlns:sodipodi="http://sodipodi.sourceforge.net/DTD/sodipodi-0.dtd"
   xmlns:inkscape="http://www.inkscape.org/namespaces/inkscape"
   version="1.1"
   x="0px"
   y="0px"
   width="215.94017"
   height="215.94017"
   viewBox="-0.781 -0.08 215.94017 215.94017"
   enable-background="new -0.781 -0.08 576 506"
   xml:space="preserve"
   id="svg2"
   inkscape:version="1.0.2 (1.0.2+r75+1)"
   sodipodi:docname="coeur_M12.svg"><metadata
   id="metadata18"><rdf:RDF><cc:Work
       rdf:about=""><dc:format>image/svg+xml</dc:format><dc:type
         rdf:resource="http://purl.org/dc/dcmitype/StillImage" /><dc:title></dc:title></cc:Work></rdf:RDF></metadata><sodipodi:namedview
   pagecolor="#ffffff"
   bordercolor="#666666"
   borderopacity="1"
   objecttolerance="10"
   gridtolerance="10"
   guidetolerance="10"
   inkscape:pageopacity="0"
   inkscape:pageshadow="2"
   inkscape:window-width="3368"
   inkscape:window-height="1376"
   id="namedview16"
   showgrid="true"
   fit-margin-top="0.3"
   fit-margin-left="0.3"
   fit-margin-right="0.3"
   fit-margin-bottom="0.3"
   inkscape:zoom="1.6386403"
   inkscape:cx="-11.28132"
   inkscape:cy="227.3031"
   inkscape:window-x="72"
   inkscape:window-y="27"
   inkscape:window-maximized="1"
   inkscape:current-layer="g1159"
   inkscape:snap-global="true"
   inkscape:snap-object-midpoints="true"
   inkscape:snap-others="false"
   inkscape:object-nodes="true"
   inkscape:snap-nodes="true"
   inkscape:snap-bbox="true"
   inkscape:bbox-nodes="true"
   inkscape:bbox-paths="true"
   inkscape:snap-bbox-midpoints="true"
   inkscape:snap-bbox-edge-midpoints="true"
   inkscape:snap-intersection-paths="true"
   inkscape:document-rotation="0"><inkscape:grid
     type="xygrid"
     id="grid1079"
     originx="-160.12909"
     originy="-7.0299082" /></sodipodi:namedview>
<defs
   id="defs4">
</defs>





<g
   transform="matrix(-1.4813268,0,0,1.4813268,1360.7459,-249.13615)"
   style="fill:#ffff00"
   id="g3867"><g
     id="g2985"
     transform="matrix(-0.37971035,-0.65767758,-0.65767758,0.37971035,415.56424,166.85418)" /><g
     id="g1102"
     transform="matrix(0.82858709,0,0,0.82858709,386.83215,-336.92977)"><g
       id="g1159"
       transform="translate(2.3967649,-8.5563677)"><g
         id="g851"
         transform="matrix(0.92548086,0,0,0.92548086,-44.477027,269.14077)"><path
           sodipodi:nodetypes="cczscccccsscsscccs"
           inkscape:connector-curvature="0"
           d="m 644.97522,550.6112 2.63634,-2.63628 c 56.68127,-55.36314 72.05991,-77.50837 72.05991,-106.50809 0,-28.99972 -17.57559,-47.45409 -39.54508,-47.45409 -18.01498,0 -28.12094,7.42803 -35.15117,16.91884 -7.03024,-9.49081 -17.13621,-16.91884 -35.15118,-16.91884 -21.96949,0 -39.54508,21.0907 -39.54508,47.45409 0,31.63606 15.37864,51.14495 72.05992,106.50809 z m 35.15117,-139.7876 c 17.1362,0 24.49177,10.07979 24.49177,30.64323 0,26.89065 -7.79496,36.67259 -59.64294,87.29028 -51.84799,-50.61769 -60.58276,-60.39963 -60.58276,-87.29028 0,-20.56344 8.29538,-30.64323 25.43158,-30.64323 15.37864,0 23.72704,4.80712 30.31789,13.77067 l 4.83329,6.85447 4.83328,-6.85447 c 6.59085,-8.96355 14.93925,-13.77067 30.31789,-13.77067 z"
           id="path927"
           style="fill:#f8190d;fill-opacity:1;stroke-width:4.81327" /><path
           sodipodi:nodetypes="cccccscsc"
           style="fill:none;stroke:#000000;stroke-width:0.577489;stroke-linecap:round;stroke-linejoin:round;stroke-miterlimit:4;stroke-dasharray:none;stroke-opacity:1"
           id="path1077"
           d="m 726.10647,441.1726 c 0,-38.75546 -24.22216,-53.28875 -45.2147,-53.28875 -17.76292,0 -24.22216,1.61481 -35.8488,14.53329 -9.3659,-12.91848 -17.43995,-14.53329 -35.20287,-14.53329 -21.96143,0 -46.82951,14.53329 -46.82951,53.28875 0,40.37027 22.45383,57.16172 79.78116,115.49486 0.76714,0.7806 1.50563,1.58763 2.25122,2.38633 0.86614,-0.8602 1.73054,-1.73917 2.62889,-2.59883 55.67374,-53.27621 78.43461,-74.91209 78.43461,-115.28236 z"
           inkscape:connector-curvature="0" /><path
           inkscape:connector-curvature="0"
           id="path1073"
           d="m 644.30937,480.88265 c 1.40228,1.35777 2.77245,2.7499 4.15785,4.12542 1.44263,1.44948 2.90102,2.88438 4.32609,4.35072 0.10044,0.16066 -0.0619,0.3434 -0.23449,0.3089 -1.63319,0.0262 -3.26671,0.0121 -4.90005,0.0159 0.0445,2.56719 0.0795,5.13453 0.11866,7.7018 1.50567,0.0421 3.01293,0.0144 4.52004,0.0233 1.48716,1e-5 2.97433,0 4.46149,0 0.006,-1.71299 -0.0159,-3.42659 0.0208,-5.13918 0.0228,-0.2009 0.29602,-0.22059 0.39291,-0.062 2.8135,2.78359 5.60346,5.59081 8.40443,8.38702 0.15957,0.19771 -0.0925,0.36032 -0.21538,0.48979 -2.74499,2.7379 -5.4744,5.49165 -8.23517,8.2135 -0.15678,0.12164 -0.3616,-0.0425 -0.32405,-0.22264 -0.0262,-1.62717 -0.012,-3.25468 -0.0159,-4.88199 -8.2976,0 -16.59519,0 -24.89282,0 -0.006,1.65787 0.0159,3.31637 -0.0208,4.9738 -0.0236,0.2002 -0.29594,0.21959 -0.39271,0.0615 -2.80425,-2.77446 -5.5851,-5.57245 -8.37688,-8.35951 -0.15957,-0.1977 0.0925,-0.36032 0.21538,-0.48979 2.75425,-2.74711 5.49282,-5.51013 8.26289,-8.24118 0.15786,-0.12227 0.36216,0.0439 0.324,0.22453 0.0262,1.68197 0.0121,3.36428 0.0159,5.0464 2.92793,-0.0111 5.85674,0.005 8.78369,-0.0266 0.16409,0.0459 0.15498,-0.0852 0.14661,-0.20972 0.0254,-2.4861 0.008,-4.97412 0.0131,-7.46116 -1.7213,0 -3.44259,0 -5.1639,0 -0.20957,-0.008 -0.24833,-0.29074 -0.0785,-0.38999 2.81536,-2.8069 5.61192,-5.63293 8.44698,-8.41989 0.0702,-0.0535 0.16216,-0.06 0.23981,-0.0187 z"
           style="opacity:1;fill:#ffff00;fill-opacity:1;stroke:none;stroke-width:0.0359969;stroke-linecap:round;stroke-miterlimit:4;stroke-dasharray:none" /><g
           id="g3875"
           transform="matrix(0.38021656,0,0,0.38021656,610.83741,433.72546)"><g
             style="stroke-width:1.10714;stroke-miterlimit:4;stroke-dasharray:none"
             transform="translate(-0.51603293,0.51603244)"
             id="g3863"><circle
               style="fill:#ffff00;fill-opacity:1;fill-rule:nonzero;stroke:#000000;stroke-width:0.517548;stroke-miterlimit:4;stroke-dasharray:none;stroke-opacity:1"
               id="path3825"
               transform="matrix(-2.1560868,0,0,2.1224576,308.89797,-53.627468)"
               cx="75.407013"
               cy="61.625763"
               r="15.407015" /><circle
               style="fill:#ffff00;fill-opacity:1;fill-rule:nonzero;stroke:#000000;stroke-width:0.517548;stroke-miterlimit:4;stroke-dasharray:none;stroke-opacity:1"
               id="path3825-7"
               transform="matrix(-2.1560868,0,0,2.1224576,196.87253,-53.627468)"
               cx="75.407013"
               cy="61.625763"
               r="15.407015" /></g><path
             sodipodi:nodetypes="ccccccccccccccccccccccccccccccccccccccc"
             inkscape:connector-curvature="0"
             id="path3867"
             d="M 126.54073,51.038041 115.78372,36.96002 101.10497,73.656908 c 1.41276,1.23868 3.07949,1.84246 3.37611,5.871503 h 8.36689 v 4.256837 h -9.24762 c -0.95994,5.926156 -4.145763,6.388776 -7.19259,7.192586 v 6.458659 c 1.629997,-0.0448 2.840367,-0.64909 4.99078,0 1.85952,1.75862 1.45735,2.985077 0,3.963257 -2.391883,0.56143 -4.357423,0.41228 -6.16508,0 V 90.684264 C 88.80595,91.566763 83.60759,85.804735 85.10513,76.592661 L 53.545793,42.097587 50.785843,49.594482 C 49.17727,48.641729 47.61258,47.90839 46.073085,47.30103 l 8.940598,-24.72618 -7.33939,-3.37612 c -5.0591,-4.78767 -2.49935,-7.67064 0,-10.5687004 1.56705,-1.87905 2.97589,-2.52015 4.94737,-3.18595 0.95086,-0.49339 2.26267,-0.52977 3.47182,-0.77731 h 10.956779 c 3.934378,2.36681 1.265568,4.96865 0,5.13756 H 55.307253 c -8.01612,3.0877504 -5.74269,5.3523304 0,7.3393804 1.92576,1.05792 6.339179,1.8897 5.535269,3.19578 0.009,0.99906 -1.325379,4.94886 -1.990509,7.42864 h 52.674867 l 1.77609,-6.62845 c 1.35249,-2.01665 -3.74124,-3.47275 -8.57604,-4.95137 -3.7702,-0.77316 -4.04156,-3.13251 0,-3.59502 h 23.09337 c 4.08051,0.86929 1.94142,6.19282 0,5.8715 l -4.09377,0.46708 c -2.25242,0.14145 -2.88685,0.97866 -4.67049,4.04772 -2.02538,2.89909 -2.81804,6.57775 0.10378,10.16396 l 10.67877,15.856443 c -1.26973,0.679349 -2.30124,1.358698 -3.29786,2.038048 z"
             style="fill:#ffff00;stroke:#000000;stroke-width:1.10714;stroke-linecap:butt;stroke-linejoin:miter;stroke-miterlimit:4;stroke-dasharray:none;stroke-opacity:1" /><path
             inkscape:connector-curvature="0"
             id="path3869"
             d="M 111.58361,31.953029 H 57.27222 l -1.26279,4.71282 32.96889,35.066604 h 9.24763 z"
             style="fill:#ffffff;fill-opacity:1;stroke:#000000;stroke-width:1.10714;stroke-linecap:butt;stroke-linejoin:miter;stroke-miterlimit:4;stroke-dasharray:none;stroke-opacity:1" /><path
             sodipodi:nodetypes="ccccccccc"
             inkscape:connector-curvature="0"
             id="path3871"
             d="m 95.439008,71.305367 c -0.535809,-1.782003 -0.939768,-3.620514 -0.518973,-5.81249 0.518972,-0.335477 1.349328,0.197662 1.8683,-1.037945 0.30857,-0.942609 0.88035,-2.271828 -0.311383,-3.840395 -1.648949,-0.746908 -5.936547,-0.731217 -8.407362,1.141739 -1.729564,1.245534 -1.798505,2.491067 0.207478,3.736601 1.739013,-0.698103 3.102102,-0.785331 3.736612,0.311383 2.18947,3.63605 1.060349,3.953508 1.588455,5.928193 z"
             style="fill:#ffff00;fill-opacity:1;stroke:#000000;stroke-width:1.10714;stroke-linecap:butt;stroke-linejoin:miter;stroke-miterlimit:4;stroke-dasharray:none;stroke-opacity:1" /></g><path
           style="fill:none;stroke:none;stroke-width:0.333675;stroke-linecap:butt;stroke-linejoin:miter;stroke-miterlimit:4;stroke-dasharray:none;stroke-opacity:1"
           d="m 647.64341,489.66124 h 5.44244 l -8.88306,-8.88306 -8.91434,8.91434 h 5.59883 v 12.41752 h 6.9438 z"
           id="path3873"
           inkscape:connector-curvature="0" /><path
           inkscape:connector-curvature="0"
           id="path1053"
           d="m 656.80266,504.17487 v 5.44245 l 8.88306,-8.88307 -8.91434,-8.91433 v 5.59883 h -12.41751 v 6.94379 z"
           style="fill:none;stroke:none;stroke-width:0.333636;stroke-linecap:butt;stroke-linejoin:miter;stroke-miterlimit:4;stroke-dasharray:none;stroke-opacity:1" /><path
           style="fill:none;stroke:none;stroke-width:0.333636;stroke-linecap:butt;stroke-linejoin:miter;stroke-miterlimit:4;stroke-dasharray:none;stroke-opacity:1"
           d="m 631.87404,504.17487 v 5.44245 l -8.88306,-8.88307 8.91434,-8.91433 v 5.59883 h 12.41751 v 6.94379 z"
           id="path1057"
           inkscape:connector-curvature="0" /><path
           inkscape:connector-curvature="0"
           id="path1069"
           d="m 640.88727,497.41875 h -8.98195 v -5.59883 l -8.91436,8.91433 8.88307,8.88307 v -5.44245 h 24.92861 v 5.44245 l 8.88307,-8.88307 -8.91433,-8.91433 v 5.59883 h -9.01102"
           style="fill:none;fill-rule:evenodd;stroke:#000000;stroke-width:0.333675;stroke-linecap:round;stroke-linejoin:miter;stroke-miterlimit:4;stroke-dasharray:none;stroke-opacity:1" /><path
           inkscape:connector-curvature="0"
           id="path1071"
           d="m 647.76036,497.41875 -0.11696,-7.75751 h 5.44244 l -8.88307,-8.88306 -8.91433,8.91434 h 5.59883 v 7.72623"
           style="fill:none;fill-rule:evenodd;stroke:#000000;stroke-width:0.333675;stroke-linecap:butt;stroke-linejoin:miter;stroke-miterlimit:4;stroke-dasharray:none;stroke-opacity:1" /></g></g></g></g></svg>
