<?xml version="1.0" encoding="UTF-8" standalone="no"?>
<svg
   xmlns:dc="http://purl.org/dc/elements/1.1/"
   xmlns:cc="http://creativecommons.org/ns#"
   xmlns:rdf="http://www.w3.org/1999/02/22-rdf-syntax-ns#"
   xmlns:svg="http://www.w3.org/2000/svg"
   xmlns="http://www.w3.org/2000/svg"
   xmlns:sodipodi="http://sodipodi.sourceforge.net/DTD/sodipodi-0.dtd"
   xmlns:inkscape="http://www.inkscape.org/namespaces/inkscape"
   width="129.20451pt"
   height="79.182388pt"
   viewBox="0 0 129.20451 79.182388"
   version="1.2"
   id="svg159"
   sodipodi:docname="IMAG_logo.svg"
   inkscape:version="1.0.2 (1.0.2+r75+1)">
  <metadata
     id="metadata165">
    <rdf:RDF>
      <cc:Work
         rdf:about="">
        <dc:format>image/svg+xml</dc:format>
        <dc:type
           rdf:resource="http://purl.org/dc/dcmitype/StillImage" />
        <dc:title></dc:title>
      </cc:Work>
    </rdf:RDF>
  </metadata>
  <defs
     id="defs163" />
  <sodipodi:namedview
     pagecolor="#ffffff"
     bordercolor="#666666"
     borderopacity="1"
     objecttolerance="10"
     gridtolerance="10"
     guidetolerance="10"
     inkscape:pageopacity="0"
     inkscape:pageshadow="2"
     inkscape:window-width="3368"
     inkscape:window-height="1376"
     id="namedview161"
     showgrid="false"
     fit-margin-top="0"
     fit-margin-left="0"
     fit-margin-right="0"
     fit-margin-bottom="0"
     inkscape:zoom="4.6257568"
     inkscape:cx="212.68976"
     inkscape:cy="62.939911"
     inkscape:window-x="72"
     inkscape:window-y="27"
     inkscape:window-maximized="1"
     inkscape:current-layer="svg159" />
  <g
     id="surface3115"
     transform="scale(0.04635971)">
    <rect
       x="0"
       y="0"
       width="2787"
       height="1708"
       style="fill:#ffffff;fill-opacity:1;stroke:none"
       id="rect2" />
    <path
       style="fill:#e3e8f3;fill-opacity:1;fill-rule:nonzero;stroke:none"
       d="m 1839.8359,1326.7305 -147.7851,-784.43363 713.5039,19.28516 -565.7188,765.14847"
       id="path4" />
    <path
       style="fill:#dce1ee;fill-opacity:1;fill-rule:nonzero;stroke:none"
       d="m 2685.3438,1437.9883 -845.0157,-108.3985 573.0508,-762.44918 271.9805,640.07028 -0.016,230.7774"
       id="path6" />
    <path
       style="fill:#dce1ee;fill-opacity:1;fill-rule:nonzero;stroke:none"
       d="m 2410.6133,555.46094 -702.1641,-21.86328 328.2891,-128.35938 536.039,-207.79297 -5.9062,13.44531 -156.2578,344.57032"
       id="path8" />
    <path
       style="fill:#e6ebf5;fill-opacity:1;fill-rule:nonzero;stroke:none"
       d="m 1607.2656,1415.9023 24.4883,-261.332 56.0313,-583.6953 143.2109,761.375 -223.7305,83.6523"
       id="path10" />
    <path
       style="fill:#d7dce6;fill-opacity:1;fill-rule:nonzero;stroke:none"
       d="m 1819.9648,1600.6719 -150.832,-125.1016 -60.6953,-51.2187 227.1602,-86.2188 175.6601,262.0078 -191.293,0.5313"
       id="path12" />
    <path
       style="fill:#cfd1d9;fill-opacity:1;fill-rule:nonzero;stroke:none"
       d="m 2684.5117,1196.3125 -269.3906,-638.76172 120.457,29.33594 148.5235,37.71484 0.4101,571.71094 m -269.6054,-639.28125 -0.375,-0.88672 0.6914,0.17188 -0.3164,0.71484"
       id="path14" />
    <path
       style="fill:#cfd1d9;fill-opacity:1;fill-rule:nonzero;stroke:none"
       d="m 2681.4805,622.41406 -145.9024,-35.52734 -120.3554,-30.57031 151.6328,-345.41797 6.1406,-13.53907 2.7187,-1.05078 103.0977,89.07032 -0.047,0.0469 1.3985,1.11328 4.3476,3.76563 -3.0312,332.10937 m -266.3594,-64.86328 -0.3945,-0.0977 0.1797,-0.42187 0.2148,0.51953"
       id="path16" />
    <path
       style="fill:#bdc2d1;fill-opacity:1;fill-rule:nonzero;stroke:none"
       d="m 2566.8633,210.89844 5.9023,-13.44532 0.2383,-0.0937 -6.1406,13.53907"
       id="path18" />
    <path
       style="fill:#b5bac7;fill-opacity:1;fill-rule:nonzero;stroke:none"
       d="m 2535.5938,586.88281 -120.461,-29.33594 -0.2187,-0.52343 0.3125,-0.71094 120.3672,30.57031"
       id="path20" />
    <path
       style="fill:#4747a1;fill-opacity:1;fill-rule:nonzero;stroke:none"
       d="m 149.53906,1170.3516 h 12.59766 v -80.293 h -12.59766 z m 0,0"
       id="path22" />
    <path
       style="fill:#4747a1;fill-opacity:1;fill-rule:nonzero;stroke:none"
       d="M 228.76953,1170.3516 H 215.8125 l -15.72656,-58.1524 v 58.1524 h -11.34375 v -80.293 h 15.8125 l 12.97656,48.0625 v -48.0625 h 11.23828 v 80.293"
       id="path24" />
    <path
       style="fill:#4747a1;fill-opacity:1;fill-rule:nonzero;stroke:none"
       d="m 272.22266,1171.2695 c -12.37891,0 -18.80469,-7.3398 -18.80469,-20.1797 v -4.9492 h 11.92578 v 5.7305 c 0,5.7383 2.51562,7.8203 6.51953,7.8203 4.01563,0 6.56641,-2.082 6.56641,-7.8203 0,-16.5 -24.6836,-19.582 -24.6836,-42.5313 0,-12.8398 6.30078,-20.1914 18.58203,-20.1914 12.28907,0 18.58594,7.3516 18.58594,20.1914 v 2.5 h -11.92578 v -3.3085 c 0,-5.7305 -2.3125,-7.9102 -6.3125,-7.9102 -4,0 -6.3125,2.1797 -6.3125,7.9102 0,16.539 24.66406,19.6171 24.66406,42.5585 0,12.8399 -6.41015,20.1797 -18.80468,20.1797"
       id="path26" />
    <path
       style="fill:#4747a1;fill-opacity:1;fill-rule:nonzero;stroke:none"
       d="m 337.93359,1170.3516 h -12.61718 v -68.8203 h -13.1875 v -11.4727 h 38.98046 v 11.4727 h -13.17578 v 68.8203"
       id="path28" />
    <path
       style="fill:#4747a1;fill-opacity:1;fill-rule:nonzero;stroke:none"
       d="m 374.14844,1170.3516 h 12.6289 v -80.293 h -12.6289 z m 0,0"
       id="path30" />
    <path
       style="fill:#4747a1;fill-opacity:1;fill-rule:nonzero;stroke:none"
       d="m 435.62109,1170.3516 h -12.60937 v -68.8203 H 409.8125 v -11.4727 h 39.00391 v 11.4727 h -13.19532 v 68.8203"
       id="path32" />
    <path
       style="fill:#4747a1;fill-opacity:1;fill-rule:nonzero;stroke:none"
       d="m 490.09375,1171.3789 c -12.39453,0 -18.81641,-7.3476 -18.81641,-20.1601 v -61.1602 h 12.61328 v 61.9727 c 0,5.707 2.51172,7.7695 6.53125,7.7695 4.01563,0 6.55079,-2.0625 6.55079,-7.7695 v -61.9727 h 11.9414 v 61.1602 c 0,12.8125 -6.4414,20.1601 -18.82031,20.1601"
       id="path34" />
    <path
       style="fill:#4747a1;fill-opacity:1;fill-rule:nonzero;stroke:none"
       d="m 557.16406,1170.3516 h -12.61328 v -68.8203 h -13.19141 v -11.4727 h 39.01172 v 11.4727 h -13.20703 v 68.8203"
       id="path36" />
    <path
       style="fill:#4747a1;fill-opacity:1;fill-rule:nonzero;stroke:none"
       d="m 681.56641,1170.3516 h -11.91016 v -57.5821 l -8.72266,57.5821 h -11.92578 l -9.39453,-56.7735 v 56.7735 h -11.01562 v -80.293 h 17.54687 l 9.28516,57.0195 8.59765,-57.0195 h 17.53907 v 80.293"
       id="path38" />
    <path
       style="fill:#4747a1;fill-opacity:1;fill-rule:nonzero;stroke:none"
       d="m 726.39453,1171.2695 c -12.36328,0 -19.13281,-7.3398 -19.13281,-20.1797 v -41.75 c 0,-12.8398 6.76953,-20.1914 19.13281,-20.1914 12.41016,0 19.16406,7.3516 19.16406,20.1914 v 41.75 c 0,12.8399 -6.7539,20.1797 -19.16406,20.1797 m 0,-70.6484 c -4.00391,0 -6.51953,2.1797 -6.51953,7.9102 v 43.3398 c 0,5.7383 2.51562,7.9297 6.51953,7.9297 4.03125,0 6.5625,-2.1914 6.5625,-7.9297 v -43.3398 c 0,-5.7305 -2.53125,-7.9102 -6.5625,-7.9102"
       id="path40" />
    <path
       style="fill:#4747a1;fill-opacity:1;fill-rule:nonzero;stroke:none"
       d="m 811.15625,1170.3516 h -12.95703 l -15.72266,-58.1524 v 58.1524 h -11.34765 v -80.293 h 15.8164 l 12.97266,48.0625 v -48.0625 h 11.23828 v 80.293"
       id="path42" />
    <path
       style="fill:#4747a1;fill-opacity:1;fill-rule:nonzero;stroke:none"
       d="m 859.87891,1170.3516 h -12.63282 v -68.8203 h -13.17578 v -11.4727 h 39 v 11.4727 h -13.1914 v 68.8203"
       id="path44" />
    <path
       style="fill:#4747a1;fill-opacity:1;fill-rule:nonzero;stroke:none"
       d="m 908.72266,1170.3516 h -12.61329 v -80.293 h 18.58204 c 12.61718,0 18.80468,7.0195 18.80468,19.8398 v 10.4532 c 0,12.8281 -6.1875,19.8476 -18.80468,19.8476 h -5.96875 v 30.1524 m 0,-68.8203 v 27.1796 h 5.96875 c 4.01953,0 6.20312,-1.832 6.20312,-7.582 v -12.0391 c 0,-5.7187 -2.18359,-7.5585 -6.20312,-7.5585 h -5.96875"
       id="path46" />
    <path
       style="fill:#4747a1;fill-opacity:1;fill-rule:nonzero;stroke:none"
       d="m 991.29687,1170.3516 h -34.41406 v -80.293 h 34.41406 v 11.4727 h -21.78515 v 22.3476 h 17.30078 v 11.4922 h -17.30078 v 23.5195 h 21.78515 v 11.461"
       id="path48" />
    <path
       style="fill:#4747a1;fill-opacity:1;fill-rule:nonzero;stroke:none"
       d="m 1050,1170.3516 h -33.3789 v -80.293 h 12.6289 v 68.832 H 1050 v 11.461"
       id="path50" />
    <path
       style="fill:#4747a1;fill-opacity:1;fill-rule:nonzero;stroke:none"
       d="m 1106.4297,1170.3516 h -33.3906 v -80.293 h 12.6015 v 68.832 h 20.7891 v 11.461"
       id="path52" />
    <path
       style="fill:#4747a1;fill-opacity:1;fill-rule:nonzero;stroke:none"
       d="m 1129.4609,1170.3516 h 12.6094 v -80.293 h -12.6094 z m 0,0"
       id="path54" />
    <path
       style="fill:#4747a1;fill-opacity:1;fill-rule:nonzero;stroke:none"
       d="m 1203.1797,1170.3516 h -34.3984 v -80.293 h 34.3984 v 11.4727 h -21.7813 v 22.3476 h 17.3321 v 11.4922 h -17.3321 v 23.5195 h 21.7813 v 11.461"
       id="path56" />
    <path
       style="fill:#4747a1;fill-opacity:1;fill-rule:nonzero;stroke:none"
       d="m 1267.75,1170.3516 h -12.8281 c -0.7227,-2.0625 -1.1602,-3.3321 -1.1602,-9.8516 v -12.6289 c 0,-7.4492 -2.5312,-10.1992 -8.25,-10.1992 h -4.3828 v 32.6797 h -12.5976 v -80.293 h 19.0273 c 13.082,0 18.7109,6.0898 18.7109,18.4727 v 6.3203 c 0,8.2695 -2.6484,13.6367 -8.2695,16.289 6.3086,2.6211 8.3789,8.7188 8.3789,17.0782 v 12.371 c 0,3.9102 0.1094,6.7813 1.3711,9.7618 m -26.6211,-68.8203 v 24.6601 h 4.9414 c 4.6992,0 7.5703,-2.0625 7.5703,-8.4805 v -7.9101 c 0,-5.7422 -1.9414,-8.2695 -6.4101,-8.2695 h -6.1016"
       id="path58" />
    <path
       style="fill:#4747a1;fill-opacity:1;fill-rule:nonzero;stroke:none"
       d="m 1332.9883,1170.3516 h -12.7188 l -2.1914,-14.5821 h -15.4883 l -2.1679,14.5821 h -11.5821 l 12.8399,-80.293 h 18.4609 l 12.8477,80.293 m -22.707,-66.0703 -6.0821,40.6171 h 12.1602 l -6.0781,-40.6171"
       id="path60" />
    <path
       style="fill:#4747a1;fill-opacity:1;fill-rule:nonzero;stroke:none"
       d="m 1356.3906,1170.3516 h 12.5977 v -80.293 h -12.5977 z m 0,0"
       id="path62" />
    <path
       style="fill:#4747a1;fill-opacity:1;fill-rule:nonzero;stroke:none"
       d="m 1435.6211,1170.3516 h -12.9609 l -15.7188,-58.1524 v 58.1524 h -11.3516 v -80.293 h 15.8204 l 12.9609,48.0625 v -48.0625 h 11.25 v 80.293"
       id="path64" />
    <path
       style="fill:#4747a1;fill-opacity:1;fill-rule:nonzero;stroke:none"
       d="m 190.35156,1336.2109 h -12.73828 l -2.16016,-14.5625 h -15.48828 l -2.17187,14.5625 h -11.59766 l 12.84766,-80.2812 h 18.47265 l 12.83594,80.2812 m -22.71484,-66.0625 -6.0625,40.5899 h 12.14453 l -6.08203,-40.5899"
       id="path66" />
    <path
       style="fill:#4747a1;fill-opacity:1;fill-rule:nonzero;stroke:none"
       d="m 246.41797,1336.2109 h -33.3711 v -80.2812 h 12.61329 v 68.8203 h 20.75781 v 11.4609"
       id="path68" />
    <path
       style="fill:#4747a1;fill-opacity:1;fill-rule:nonzero;stroke:none"
       d="m 303.18359,1336.2109 h -34.40234 v -80.2812 h 34.40234 v 11.4687 h -21.78515 v 22.3711 h 17.3164 v 11.4493 h -17.3164 v 23.5312 h 21.78515 v 11.4609"
       id="path70" />
    <path
       style="fill:#4747a1;fill-opacity:1;fill-rule:nonzero;stroke:none"
       d="m 370.83594,1336.2109 h -13.28907 l -10.33203,-31.7695 -10.4414,31.7695 h -11.79688 l 14.09766,-41.289 -13.19141,-38.9922 h 13.06641 l 9.53515,29.5703 9.75391,-29.5703 h 11.69141 l -13.19532,38.9922 14.10157,41.289"
       id="path72" />
    <path
       style="fill:#4747a1;fill-opacity:1;fill-rule:nonzero;stroke:none"
       d="m 434.82422,1336.2109 h -12.72266 l -2.1875,-14.5625 h -15.49219 l -2.16796,14.5625 h -11.58594 l 12.84765,-80.2812 h 18.46094 l 12.84766,80.2812 m -22.71094,-66.0625 -6.07812,40.5899 h 12.16015 l -6.08203,-40.5899"
       id="path74" />
    <path
       style="fill:#4747a1;fill-opacity:1;fill-rule:nonzero;stroke:none"
       d="m 497.42578,1336.2109 h -12.95703 l -15.71094,-58.1523 v 58.1523 h -11.36328 v -80.2812 h 15.83203 l 12.96094,48.0586 v -48.0586 h 11.23828 v 80.2812"
       id="path76" />
    <path
       style="fill:#4747a1;fill-opacity:1;fill-rule:nonzero;stroke:none"
       d="m 543.30078,1336.2109 h -19.96094 v -80.2812 h 19.96094 c 12.61328,0 18.81641,7.0117 18.81641,19.832 v 40.5899 c 0,12.8672 -6.20313,19.8593 -18.81641,19.8593 m -7.34766,-68.8125 v 57.3516 h 7.11329 c 4.01562,0 6.42578,-2.0898 6.42578,-7.8008 v -41.75 c 0,-5.7383 -2.41016,-7.8008 -6.42578,-7.8008 h -7.11329"
       id="path78" />
    <path
       style="fill:#4747a1;fill-opacity:1;fill-rule:nonzero;stroke:none"
       d="m 621.39062,1336.2109 h -34.40234 v -80.2812 h 34.40234 v 11.4687 h -21.78906 v 22.3711 h 17.32031 v 11.4493 h -17.32031 v 23.5312 h 21.78906 v 11.4609"
       id="path80" />
    <path
       style="fill:#4747a1;fill-opacity:1;fill-rule:nonzero;stroke:none"
       d="m 685.25391,1336.2109 h -12.85157 c -0.68359,-2.0703 -1.15234,-3.3203 -1.15234,-9.8515 v -12.6211 c 0,-7.4688 -2.51563,-10.207 -8.25391,-10.207 h -4.34375 v 32.6796 h -12.63281 v -80.2812 h 19.03906 c 13.10157,0 18.69532,6.0898 18.69532,18.4687 v 6.3008 c 0,8.2696 -2.625,13.6524 -8.25,16.2891 6.3125,2.6406 8.3789,8.7226 8.3789,17.1015 v 12.3594 c 0,3.9102 0.10938,6.7617 1.3711,9.7617 m -26.60157,-68.8125 v 24.6602 h 4.92188 c 4.70703,0 7.58203,-2.0781 7.58203,-8.5 v -7.918 c 0,-5.7187 -1.96875,-8.2422 -6.4375,-8.2422 h -6.06641"
       id="path82" />
    <path
       style="fill:#4747a1;fill-opacity:1;fill-rule:nonzero;stroke:none"
       d="m 761.37891,1337.1289 c -12.38282,0 -18.79297,-7.3476 -18.79297,-20.1797 v -41.75 c 0,-12.8476 6.41015,-20.1875 18.79297,-20.1875 12.40234,0 18.8164,7.3399 18.8164,20.1875 v 7.7891 h -11.92578 v -8.5899 c 0,-5.75 -2.51953,-7.9179 -6.53516,-7.9179 -4.01562,0 -6.55078,2.1679 -6.55078,7.9179 v 43.3399 c 0,5.7422 2.53516,7.8125 6.55078,7.8125 4.01563,0 6.53516,-2.0703 6.53516,-7.8125 v -14.7578 h -5.73828 v -11.4922 h 17.66406 v 25.4609 c 0,12.8321 -6.41406,20.1797 -18.8164,20.1797"
       id="path84" />
    <path
       style="fill:#4747a1;fill-opacity:1;fill-rule:nonzero;stroke:none"
       d="m 844.42187,1336.2109 h -12.86718 c -0.67188,-2.0703 -1.125,-3.3203 -1.125,-9.8515 v -12.6211 c 0,-7.4688 -2.53125,-10.207 -8.27344,-10.207 h -4.35156 v 32.6796 H 805.1875 v -80.2812 h 19.05469 c 13.0664,0 18.6914,6.0898 18.6914,18.4687 v 6.3008 c 0,8.2696 -2.64062,13.6524 -8.26562,16.2891 6.29687,2.6406 8.35937,8.7226 8.35937,17.1015 v 12.3594 c 0,3.9102 0.125,6.7617 1.39453,9.7617 m -26.61718,-68.8125 v 24.6602 h 4.93359 c 4.69141,0 7.56641,-2.0781 7.56641,-8.5 v -7.918 c 0,-5.7187 -1.94141,-8.2422 -6.4375,-8.2422 h -6.0625"
       id="path86" />
    <path
       style="fill:#4747a1;fill-opacity:1;fill-rule:nonzero;stroke:none"
       d="m 886.26172,1337.1289 c -12.37891,0 -19.14844,-7.3476 -19.14844,-20.1797 v -41.75 c 0,-12.8476 6.76953,-20.1875 19.14844,-20.1875 12.3789,0 19.16406,7.3399 19.16406,20.1875 v 41.75 c 0,12.8321 -6.78516,20.1797 -19.16406,20.1797 m 0,-70.6484 c -4,0 -6.53125,2.1679 -6.53125,7.9179 v 43.3399 c 0,5.7422 2.53125,7.9101 6.53125,7.9101 4.01953,0 6.53515,-2.1679 6.53515,-7.9101 v -43.3399 c 0,-5.75 -2.51562,-7.9179 -6.53515,-7.9179"
       id="path88" />
    <path
       style="fill:#4747a1;fill-opacity:1;fill-rule:nonzero;stroke:none"
       d="m 952.53516,1336.2109 h -12.61719 v -68.8125 h -13.17578 v -11.4687 h 38.98437 v 11.4687 h -13.1914 v 68.8125"
       id="path90" />
    <path
       style="fill:#4747a1;fill-opacity:1;fill-rule:nonzero;stroke:none"
       d="m 1027.8711,1336.2109 h -12.8399 v -34.4296 h -14.3203 v 34.4296 h -12.63278 v -80.2812 h 12.63278 v 34.3984 h 14.3203 v -34.3984 h 12.8399 v 80.2812"
       id="path92" />
    <path
       style="fill:#4747a1;fill-opacity:1;fill-rule:nonzero;stroke:none"
       d="m 1088.3008,1336.2109 h -34.3906 v -80.2812 h 34.3906 v 11.4687 h -21.7891 v 22.3711 h 17.3164 v 11.4493 h -17.3164 v 23.5312 h 21.7891 v 11.4609"
       id="path94" />
    <path
       style="fill:#4747a1;fill-opacity:1;fill-rule:nonzero;stroke:none"
       d="m 1152.8516,1336.2109 h -12.9414 l -15.7188,-58.1523 v 58.1523 h -11.3516 v -80.2812 h 15.8204 l 12.9687,48.0586 v -48.0586 h 11.2227 v 80.2812"
       id="path96" />
    <path
       style="fill:#4747a1;fill-opacity:1;fill-rule:nonzero;stroke:none"
       d="m 1198.7383,1336.2109 h -19.9688 v -80.2812 h 19.9688 c 12.6015,0 18.793,7.0117 18.793,19.832 v 40.5899 c 0,12.8672 -6.1915,19.8593 -18.793,19.8593 m -7.3399,-68.8125 v 57.3516 h 7.0899 c 4.0234,0 6.4336,-2.0898 6.4336,-7.8008 v -41.75 c 0,-5.7383 -2.4102,-7.8008 -6.4336,-7.8008 h -7.0899"
       id="path98" />
    <path
       style="fill:#4747a1;fill-opacity:1;fill-rule:nonzero;stroke:none"
       d="m 1242.4219,1336.2109 h 12.5898 v -80.2812 h -12.5898 z m 0,0"
       id="path100" />
    <path
       style="fill:#4747a1;fill-opacity:1;fill-rule:nonzero;stroke:none"
       d="m 1315.4492,1336.2109 h -34.3984 v -80.2812 h 34.3984 v 11.4687 h -21.8008 v 22.3711 h 17.3204 v 11.4493 h -17.3204 v 23.5312 h 21.8008 v 11.4609"
       id="path102" />
    <path
       style="fill:#4747a1;fill-opacity:1;fill-rule:nonzero;stroke:none"
       d="m 1357.8789,1337.1289 c -12.3984,0 -18.8086,-7.3476 -18.8086,-20.1797 v -41.75 c 0,-12.8476 6.4102,-20.1875 18.8086,-20.1875 12.3828,0 18.8008,7.3399 18.8008,20.1875 v 7.7891 h -11.9102 v -8.5899 c 0,-5.75 -2.5312,-7.9179 -6.5312,-7.9179 -4.0195,0 -6.5469,2.1679 -6.5469,7.9179 v 43.3399 c 0,5.7422 2.5274,7.8125 6.5469,7.8125 4,0 6.5312,-2.0703 6.5312,-7.8125 v -11.4688 h 11.9102 v 10.6797 c 0,12.8321 -6.418,20.1797 -18.8008,20.1797"
       id="path104" />
    <path
       style="fill:#4747a1;fill-opacity:1;fill-rule:nonzero;stroke:none"
       d="m 1442.9688,1336.2109 h -12.9571 l -12.2734,-32 -3.9102,7.3399 v 24.6601 h -12.6093 v -80.2812 h 12.6093 v 34.9922 l 16.5235,-34.9922 h 12.6172 l -17.5469,35.7891 17.5469,44.4921"
       id="path106" />
    <path
       style="fill:#2b3591;fill-opacity:1;fill-rule:nonzero;stroke:none"
       d="m 196.83984,971.35937 c -5.92578,5.91016 -12.96093,8.86329 -21.10547,8.86329 -8.15625,0 -15.1914,-2.95313 -21.09765,-8.86329 -5.91016,-5.92578 -8.87891,-13.16015 -8.87891,-21.71093 V 562.51953 c 0,-8.12891 2.96875,-15.17969 8.87891,-21.09766 5.90625,-5.90234 12.9414,-8.87109 21.09765,-8.87109 8.14454,0 15.17969,2.96875 21.10547,8.87109 5.90625,5.91797 8.85938,12.96875 8.85938,21.09766 v 387.12891 c 0,8.55078 -2.95313,15.78515 -8.85938,21.71093"
       id="path108" />
    <path
       style="fill:#2b3591;fill-opacity:1;fill-rule:nonzero;stroke:none"
       d="m 621.54687,980.22266 c -8.16015,0 -15.17968,-2.95313 -21.08593,-8.86329 -5.91016,-5.92578 -8.86328,-13.16015 -8.86328,-21.71093 v -214.0586 c 0,-3.2539 -1.65625,-5.29687 -4.89063,-6.11328 h -1.84766 c -2.45312,0 -4.28125,1.22266 -5.5039,3.66016 l -41.57031,93.59375 c -2.45704,5.28515 -6.13282,9.5664 -11.01954,12.83203 -4.8789,3.26953 -10.39453,4.89453 -16.5039,4.89453 -5.72266,0 -11.13281,-1.625 -16.21094,-4.89453 -5.09766,-3.26563 -8.86719,-7.54688 -11.30469,-12.83203 l -40.98437,-93.59375 c -1.23047,-3.25 -3.6875,-4.47266 -7.34375,-3.66016 -3.28125,0.81641 -4.875,2.85938 -4.875,6.11328 v 214.0586 c 0,8.55078 -3.07813,15.78515 -9.19141,21.71093 -6.125,5.91016 -13.2539,8.86329 -21.41406,8.86329 -8.14063,0 -15.17578,-2.95313 -21.08203,-8.86329 -5.92578,-5.92578 -8.88281,-13.16015 -8.88281,-21.71093 V 562.51953 c 0,-7.32031 2.23828,-13.66797 6.73828,-18.94922 4.47265,-5.30859 10.17578,-8.78125 17.1289,-10.41015 1.22266,-0.3711 3.25391,-0.60938 6.09766,-0.60938 13.07031,0 22.22266,5.92969 27.52734,17.73828 l 78.28907,176.125 c 0.41015,2.45313 2.22265,3.67188 5.50781,3.67188 2.83984,0 4.89062,-1.21875 6.10937,-3.67188 l 77.66407,-176.125 c 2.4414,-5.71875 6.22265,-10.07812 11.3164,-13.14062 5.09766,-3.04688 10.47266,-4.59766 16.19531,-4.59766 2.875,0 4.90625,0.23828 6.125,0.60938 6.92579,1.6289 12.73829,5.10156 17.42579,10.41015 4.67578,5.28125 7.03515,11.62891 7.03515,18.94922 v 387.12891 c 0,8.55078 -3.04687,15.78515 -9.17187,21.71093 -6.09766,5.91016 -13.25391,8.86329 -21.41407,8.86329"
       id="path110" />
    <path
       style="fill:#2b3591;fill-opacity:1;fill-rule:nonzero;stroke:none"
       d="m 891.85547,771.67969 c -0.40625,2.84765 0.40625,5.70703 2.45703,8.5664 1.60547,2.4375 4.26562,3.65625 7.95312,3.65625 h 58.71094 c 3.65235,0 6.5,-1.21875 8.56641,-3.65625 2.01562,-2.85937 2.84375,-5.71875 2.4375,-8.5664 -3.28516,-16.70313 -6.31641,-33.13672 -9.17969,-49.23438 -2.85547,-16.10547 -5.60937,-31.19531 -8.25,-45.24609 -2.65625,-14.08985 -5.00391,-26.71875 -7.04687,-37.91016 -2.03516,-11.23828 -3.66016,-20.27734 -4.87891,-27.23047 -1.64063,-5.71875 -5.3125,-8.55859 -11.00391,-8.55859 -5.71875,0 -9.19531,2.83984 -10.41406,8.55859 -1.21875,6.95313 -2.85547,15.99219 -4.89062,27.23047 -2.03125,11.19141 -4.375,23.82031 -7.01563,37.91016 -2.65625,14.05078 -5.5,29.14062 -8.56641,45.24609 -3.0625,16.09766 -6.03515,32.53125 -8.8789,49.23438 z m -69.09766,207.93359 c -8.16015,-1.23437 -14.47656,-5.50391 -18.96094,-12.84766 -5.30078,-6.5039 -6.9414,-13.83203 -4.8789,-22.00781 11.8164,-64.41406 22.41406,-122.52734 31.79297,-174.29297 4.0625,-22.02343 8.03125,-43.60937 11.91015,-64.83593 3.87891,-21.19922 7.34766,-40.26954 10.41016,-57.17969 3.0625,-16.91016 5.59766,-30.77735 7.64453,-41.58985 2.04688,-10.78906 3.26563,-16.80078 3.67578,-18.01953 3.2461,-16.73047 11.20313,-30.17968 23.84766,-40.3789 12.6289,-10.58203 27.10547,-15.91016 43.42187,-15.91016 16.70703,0 31.38672,5.32813 44.03125,15.91016 12.62891,10.19922 20.56641,23.64843 23.83594,40.3789 0,1.21875 1.03122,7.1211 3.06252,17.71875 2.0273,10.60157 4.5976,24.35157 7.6406,41.28125 3.0469,16.91016 6.5195,35.98047 10.418,57.17969 3.8594,21.20703 7.832,42.80859 11.9219,64.85156 9.3789,51.76563 20.1601,110.06641 32.3906,174.88672 2.0586,8.17578 0.3984,15.50391 -4.8828,22.00781 -4.4883,7.34375 -10.8203,11.61329 -18.9375,12.84766 -1.2422,0.40234 -3.0703,0.60938 -5.5235,0.60938 -7.3476,0 -13.7578,-2.34375 -19.2578,-7.01954 -5.5195,-4.6875 -9.082,-10.70703 -10.7109,-18.05468 l -18.95706,-102.125 c -0.82422,-5.72266 -4.28125,-8.56641 -10.39062,-8.56641 h -88.6875 c -6.10938,0 -9.78906,2.84375 -11.00781,8.56641 l -18.34766,102.125 c -1.625,7.34765 -5.1875,13.36718 -10.6875,18.05468 -5.50391,4.67579 -11.94141,7.01954 -19.27344,7.01954 -2.4375,0 -4.26562,-0.20704 -5.5,-0.60938"
       id="path112" />
    <path
       style="fill:#2b3591;fill-opacity:1;fill-rule:nonzero;stroke:none"
       d="m 1272.8594,627.32812 c -3.2578,7.3711 -4.8906,14.70313 -4.8906,22.04297 v 212.1875 c 0,11.03125 3.25,21.84766 9.7929,32.42969 7.3399,9.78516 15.8867,16.72656 25.6797,20.78906 6.1172,2.86328 13.6602,4.28516 22.6289,4.28516 11.8203,0 22.4102,-3.23828 31.7891,-9.78906 9.3789,-6.12891 16.3203,-14.47266 20.8203,-25.07032 3.2422,-7.73828 4.8789,-15.28515 4.8789,-22.64453 v -36.07812 c 0,-2.84375 -1.0195,-5.28125 -3.0703,-7.3125 -2.0274,-2.03516 -4.6875,-3.0625 -7.9375,-3.0625 h -26.2891 c -8.1719,0 -15.2226,-2.97656 -21.1133,-8.88281 -5.9296,-5.90625 -8.8671,-13.125 -8.8671,-21.72657 0,-8.125 2.9375,-15.16015 8.8671,-21.0664 5.8907,-5.91016 12.9414,-8.87891 21.1133,-8.87891 h 67.2578 c 8.5703,0 15.6914,3.0625 21.4024,9.17188 5.7187,5.72265 8.5664,12.64843 8.5664,20.77343 v 77.0625 c 0,24.47266 -6.7383,46.4961 -20.1797,66.0625 -13.0586,19.1836 -30.1797,33.45313 -51.3594,42.83203 -14.6797,6.10938 -29.9687,9.16016 -45.8789,9.16016 -23.6484,0 -45.6797,-6.73437 -66.0508,-20.17969 -9.3789,-6.5 -17.7304,-14.16015 -25.0781,-22.94922 -7.3398,-8.76171 -13.25,-18.4375 -17.7422,-29.03906 -6.1094,-14.67578 -9.1679,-29.97656 -9.1679,-45.88672 v -212.1875 c 0,-11.83203 1.6406,-23.33203 4.8906,-34.5625 3.2695,-11.19922 8.3594,-21.5 15.2969,-30.8789 13.0429,-19.98828 30.3593,-34.25782 51.9804,-42.8086 13.8516,-6.12109 28.961,-9.16015 45.2422,-9.16015 h 0.6289 c 24.0586,0 45.8789,6.71875 65.4297,20.17968 9.3906,6.51954 17.7383,14.0586 25.0898,22.6211 7.3204,8.55859 13.25,18.13672 17.7305,28.73828 6.1211,14.67187 9.168,29.98047 9.168,45.87109 0,8.16016 -2.957,15.27735 -8.8672,21.39844 -5.9219,6.10938 -12.9414,9.17969 -21.1016,9.17969 -8.1601,0 -15.1914,-3.07031 -21.0976,-9.17969 -5.9102,-6.12109 -8.8633,-13.23828 -8.8633,-21.39844 0,-10.60937 -3.2695,-21.21093 -9.7891,-31.8125 -7.3281,-9.77734 -15.9101,-16.6875 -25.6914,-20.77734 -7.3164,-3.26953 -14.6797,-4.91016 -22.0078,-4.91016 -6.1094,0 -11.8203,0.8086 -17.1094,2.4375 -5.3125,1.65235 -10.4023,4.08985 -15.3125,7.36328 -9.3789,6.10938 -16.2968,14.67969 -20.789,25.65625"
       id="path114" />
    <path
       style="fill:#cfd1d9;fill-opacity:1;fill-rule:nonzero;stroke:none"
       d="m 2674.0313,1584.8008 h -662.7657 l -175.5351,-252.3789 838.3008,108.0976 v 144.2813"
       id="path116" />
    <path
       style="fill:#28388c;fill-opacity:1;fill-rule:nonzero;stroke:none"
       d="m 1807.5977,1592.4297 -201.5313,-170.0977 84.7422,-883.00388 886.207,-343.52734 102.2657,89.17578 4.5937,-5.27344 -105.4453,-91.95703 -894.1719,346.61719 -85.5156,890.95702 204.3437,172.461 4.5118,-5.3516"
       id="path118" />
    <path
       style="fill:#28388c;fill-opacity:1;fill-rule:nonzero;stroke:none"
       d="M 2016.4883,1593.1406 1839.0391,1331 l -148.168,-789.46484 -6.8789,1.28906 148.4258,790.89458 178.2695,263.3398 5.8008,-3.918"
       id="path120" />
    <path
       style="fill:#28388c;fill-opacity:1;fill-rule:nonzero;stroke:none"
       d="m 1687.4336,540.35156 727.4141,21.90625 268.832,65.32031 1.6641,-6.80078 -269.5547,-65.49609 -728.1563,-21.92969 -0.1992,7"
       id="path122" />
    <path
       style="fill:#28388c;fill-opacity:1;fill-rule:nonzero;stroke:none"
       d="m 1842.6602,1336.4297 571.8554,-774.65236 263.6563,631.86326 6.4531,-2.6914 -268.3945,-643.26561 -579.2032,784.58591 5.6329,4.1602"
       id="path124" />
    <path
       style="fill:#28388c;fill-opacity:1;fill-rule:nonzero;stroke:none"
       d="m 2415.8633,559.26172 1.6445,-3.64844 c 0.5664,-1.25781 0,-2.73828 -1.2617,-3.30859 -1.2578,-0.56641 -2.7266,-0.004 -3.293,1.2539 l -1.6445,3.64453 c -0.5781,1.26172 -0.016,2.73829 1.2461,3.3086 1.2617,0.5664 2.7422,0.008 3.3086,-1.25"
       id="path126" />
    <path
       style="fill:#28388c;fill-opacity:1;fill-rule:nonzero;stroke:none"
       d="m 2421.6328,546.44922 3.3164,-7.33594 c 0.5547,-1.25781 0,-2.73828 -1.2461,-3.30469 -1.2656,-0.57031 -2.75,-0.008 -3.3164,1.25 l -3.3008,7.33203 c -0.5859,1.26172 -0.019,2.74219 1.2461,3.3086 1.2461,0.57031 2.7305,0.008 3.3008,-1.25 z m 7.4375,-16.50391 3.3164,-7.33203 c 0.5703,-1.25781 0.016,-2.74219 -1.2461,-3.30859 -1.2656,-0.56641 -2.75,-0.008 -3.3164,1.25 l -3.3008,7.33593 c -0.5703,1.25782 0,2.73829 1.2461,3.3086 1.2657,0.5664 2.7344,0.004 3.3008,-1.25391 z m 7.4414,-16.5 3.3164,-7.33594 c 0.5664,-1.25781 0.016,-2.73828 -1.25,-3.30468 -1.2617,-0.57032 -2.7461,-0.008 -3.3164,1.25 l -3.3008,7.33593 c -0.5664,1.25782 0,2.73829 1.25,3.30469 1.2618,0.57031 2.7461,0.008 3.3008,-1.25 z m 7.4531,-16.5039 3.3008,-7.33204 c 0.5703,-1.25781 0.016,-2.74218 -1.2461,-3.30859 -1.2656,-0.56641 -2.75,-0.008 -3.3007,1.25391 l -3.3165,7.33203 c -0.5703,1.25781 0,2.73828 1.2618,3.30469 1.2461,0.57031 2.7304,0.0117 3.3007,-1.25 z m 7.4375,-16.5 3.3165,-7.33594 c 0.5546,-1.25781 0,-2.73828 -1.2618,-3.30469 -1.2461,-0.57031 -2.7343,-0.008 -3.3007,1.25 l -3.3165,7.33594 c -0.5703,1.25781 0,2.73828 1.2618,3.30469 1.25,0.5664 2.7343,0.008 3.3007,-1.25 z m 7.4415,-16.5 3.3164,-7.33594 c 0.5664,-1.25781 0,-2.74219 -1.25,-3.3086 -1.2618,-0.5664 -2.7461,-0.008 -3.3164,1.25391 l -3.3008,7.33203 c -0.5664,1.25781 0,2.73828 1.25,3.3086 1.2461,0.5664 2.7304,0.008 3.3008,-1.25 z m 7.4375,-16.50391 3.3164,-7.33203 c 0.5703,-1.26172 0.016,-2.74219 -1.2461,-3.3086 -1.2657,-0.57031 -2.75,-0.008 -3.3164,1.25 l -3.3008,7.33594 c -0.5703,1.25781 0,2.73828 1.2461,3.30469 1.2617,0.57031 2.7461,0.0117 3.3008,-1.25 z m 7.4531,-16.5 3.3008,-7.33594 c 0.5703,-1.25781 0.016,-2.73828 -1.2461,-3.30859 -1.2618,-0.56641 -2.75,-0.004 -3.3008,1.2539 l -3.3164,7.33594 c -0.5703,1.25391 0,2.73828 1.2461,3.30469 1.2656,0.56641 2.75,0.008 3.3164,-1.25 z m 7.4414,-16.50391 3.3164,-7.33203 c 0.5508,-1.26172 0,-2.74219 -1.2656,-3.30859 -1.2461,-0.56641 -2.7305,-0.008 -3.3008,1.2539 l -3.3164,7.33204 c -0.5664,1.25781 0,2.73828 1.2656,3.30468 1.2461,0.57032 2.7305,0.0117 3.3008,-1.25 z m 7.4375,-16.5 3.3164,-7.33593 c 0.5703,-1.25782 0,-2.73829 -1.2461,-3.30469 -1.2656,-0.57031 -2.75,-0.008 -3.3164,1.25 l -3.3008,7.33594 c -0.5859,1.25781 -0.016,2.73828 1.2461,3.30468 1.2461,0.56641 2.7305,0.008 3.3008,-1.25 z m 7.4375,-16.5039 3.3164,-7.33203 c 0.5703,-1.26172 0.016,-2.73829 -1.2461,-3.3086 -1.2617,-0.5664 -2.75,-0.008 -3.3164,1.25391 l -3.3008,7.33203 c -0.5703,1.25781 0,2.73828 1.2461,3.30469 1.2656,0.57031 2.7344,0.0117 3.3008,-1.25 z m 7.4414,-16.5 3.3164,-7.33594 c 0.5664,-1.25781 0.016,-2.73828 -1.25,-3.30469 -1.2617,-0.57031 -2.7461,-0.008 -3.3164,1.25 l -3.3008,7.33594 c -0.5664,1.25781 0,2.73828 1.25,3.30469 1.2617,0.5664 2.7461,0.008 3.3008,-1.25 z m 7.4531,-16.50391 3.3008,-7.33203 c 0.5703,-1.26172 0.016,-2.73828 -1.2461,-3.30859 -1.2656,-0.56641 -2.75,-0.008 -3.3008,1.25 l -3.3164,7.33593 c -0.5703,1.25782 0,2.73828 1.2461,3.3086 1.2617,0.5664 2.7461,0.008 3.3164,-1.25391 z m 7.4375,-16.5 3.3164,-7.33594 c 0.5547,-1.25781 0,-2.73828 -1.2461,-3.30468 -1.2617,-0.56641 -2.7461,-0.008 -3.3164,1.25 l -3.3164,7.33593 c -0.5703,1.25782 0,2.73828 1.2617,3.30469 1.25,0.56641 2.7344,0.008 3.3008,-1.25 z m 7.4414,-16.50391 3.3164,-7.33203 c 0.5664,-1.25781 0,-2.73828 -1.25,-3.30859 -1.2617,-0.56641 -2.7461,-0.008 -3.3164,1.25391 l -3.3008,7.33203 c -0.5664,1.26172 0,2.73828 1.25,3.30859 1.2461,0.56641 2.7305,0.008 3.3008,-1.25391 z m 7.4375,-16.5 3.3164,-7.33593 c 0.5703,-1.25782 0.016,-2.73828 -1.2461,-3.30469 -1.2656,-0.56641 -2.75,-0.008 -3.3164,1.25 l -3.3008,7.33594 c -0.5703,1.25781 0,2.73828 1.2461,3.30468 1.2618,0.57032 2.75,0.008 3.3008,-1.25 z m 7.4531,-16.5039 3.3008,-7.33203 c 0.5703,-1.25782 0.016,-2.73828 -1.2461,-3.3086 -1.2617,-0.5664 -2.7461,-0.008 -3.3007,1.25391 l -3.3165,7.33203 c -0.5703,1.26172 0,2.74219 1.2461,3.30859 1.2657,0.56641 2.75,0.008 3.3164,-1.2539 z m 7.4415,-16.5 3.3164,-7.33594 c 0.5507,-1.25391 0,-2.73828 -1.25,-3.30469 -1.2618,-0.5664 -2.7461,-0.008 -3.3164,1.25 l -3.3165,7.33594 c -0.5664,1.25781 0,2.73828 1.2657,3.30469 1.2461,0.57031 2.7304,0.008 3.3008,-1.25 z m 7.4375,-16.5 3.3164,-7.33594 c 0.5703,-1.25781 0,-2.73828 -1.2461,-3.30859 -1.2657,-0.56641 -2.75,-0.008 -3.3164,1.2539 l -3.3164,7.33203 c -0.5547,1.26172 0,2.74219 1.2617,3.3086 1.2461,0.5664 2.7343,0.008 3.3008,-1.25 z m 7.4375,-16.50391 3.3164,-7.33203 c 0.5703,-1.25781 0,-2.73828 -1.2461,-3.30859 -1.2618,-0.56641 -2.7461,-0.008 -3.3164,1.25 l -3.3008,7.33593 c -0.5703,1.25782 0,2.73829 1.2461,3.3086 1.2656,0.5664 2.75,0.004 3.3008,-1.25391 z m 7.457,-16.5 3.3008,-7.33594 c 0.5664,-1.25781 0.016,-2.73828 -1.25,-3.30859 -1.2618,-0.56641 -2.7461,-0.004 -3.3008,1.25391 l -3.3164,7.33203 c -0.5664,1.26172 0,2.74219 1.25,3.30859 1.2617,0.56641 2.7461,0.008 3.3164,-1.25"
       id="path128" />
    <path
       style="fill:#28388c;fill-opacity:1;fill-rule:nonzero;stroke:none"
       d="m 2577.9414,199.90625 1.6289,-3.64453 -2.2812,-1.02735 -2.0899,1.3711 2.2031,3.34375 c 0.7579,1.15234 2.3125,1.47656 3.4688,0.71484 1.1562,-0.75781 1.4727,-2.30859 0.7109,-3.46094 l -2.1992,-3.34375 c -0.4922,-0.75781 -1.3789,-1.1914 -2.2812,-1.11718 -0.9063,0.0703 -1.711,0.63281 -2.0938,1.46093 l -1.6328,3.64844 c -0.5703,1.25781 -0.016,2.73828 1.2539,3.30469 1.25,0.57031 2.7422,0.008 3.3125,-1.25"
       id="path130" />
    <path
       style="fill:#28388c;fill-opacity:1;fill-rule:nonzero;stroke:none"
       d="m 2582.6641,207.94922 4.2031,6.40234 c 0.7578,1.15235 2.3008,1.47266 3.4648,0.71485 1.1524,-0.75782 1.4805,-2.3086 0.7071,-3.46094 l -4.1875,-6.40235 c -0.7735,-1.15234 -2.3164,-1.47265 -3.4805,-0.71484 -1.1523,0.75781 -1.4609,2.30859 -0.707,3.46094 z m 9.4609,14.40234 4.2031,6.39844 c 0.7539,1.15625 2.3008,1.47656 3.4649,0.71875 1.1484,-0.75781 1.4765,-2.30859 0.707,-3.46484 l -4.1875,-6.39844 c -0.7734,-1.15625 -2.3164,-1.47656 -3.4648,-0.71485 -1.168,0.75782 -1.4805,2.30469 -0.7227,3.46094 z m 9.457,14.40235 4.2071,6.40234 c 0.7695,1.15234 2.3125,1.47266 3.4648,0.71484 1.1484,-0.75781 1.4766,-2.30859 0.7227,-3.46093 l -4.2071,-6.40235 c -0.7695,-1.15625 -2.3125,-1.47656 -3.4648,-0.71484 -1.1641,0.75781 -1.4766,2.30469 -0.7227,3.46094 z m 9.461,14.40234 4.2031,6.39844 c 0.7734,1.15625 2.3164,1.47656 3.4648,0.71875 1.168,-0.76172 1.4805,-2.3086 0.7227,-3.46485 l -4.2031,-6.39843 c -0.7539,-1.15625 -2.3008,-1.47657 -3.4649,-0.71875 -1.1484,0.76171 -1.4765,2.30859 -0.7226,3.46484 z m 9.4765,14.40234 4.2032,6.39844 c 0.7578,1.15625 2.3007,1.47656 3.4492,0.71484 1.1679,-0.7539 1.4765,-2.30468 0.7226,-3.46093 l -4.2031,-6.39844 c -0.7578,-1.15625 -2.3008,-1.47656 -3.4648,-0.71875 -1.1524,0.75781 -1.4805,2.30859 -0.7071,3.46484 z m 9.461,14.39844 4.2031,6.40234 c 0.7539,1.15235 2.2969,1.47266 3.4648,0.71875 1.1485,-0.76171 1.461,-2.30859 0.7071,-3.46484 l -4.2071,-6.39844 c -0.7539,-1.15625 -2.2968,-1.47656 -3.4453,-0.71875 -1.1679,0.75782 -1.4804,2.3086 -0.7226,3.46094 z m 9.457,14.40625 4.207,6.39844 c 0.7539,1.15625 2.3125,1.47656 3.4649,0.71484 1.1484,-0.7539 1.4609,-2.30469 0.7226,-3.46094 l -4.2226,-6.39843 c -0.7539,-1.15625 -2.2969,-1.47657 -3.4492,-0.71875 -1.1641,0.75781 -1.4766,2.30859 -0.7227,3.46484 z m 9.4609,14.39844 4.2032,6.40234 c 0.7578,1.15235 2.3164,1.47266 3.4648,0.71485 1.1524,-0.75782 1.4805,-2.3086 0.7227,-3.46094 l -4.2188,-6.40235 c -0.7578,-1.15234 -2.3008,-1.47265 -3.4492,-0.71484 -1.1484,0.75781 -1.4766,2.30859 -0.7227,3.46094 z m 9.461,14.40234 4.2031,6.40235 c 0.7539,1.15625 2.3164,1.47265 3.4648,0.71484 1.1485,-0.75781 1.4766,-2.30859 0.7227,-3.46094 l -4.2031,-6.40234 c -0.7578,-1.15235 -2.3164,-1.47266 -3.4649,-0.71485 -1.1523,0.75782 -1.4804,2.3086 -0.7226,3.46094 z m 9.457,14.40235 4.207,6.40234 c 0.7539,1.15234 2.3125,1.47266 3.4805,0.71484 1.1484,-0.75781 1.4609,-2.30859 0.707,-3.46093 l -4.207,-6.40235 c -0.7539,-1.15234 -2.3125,-1.47656 -3.4648,-0.71484 -1.1485,0.75781 -1.4766,2.30859 -0.7227,3.46094"
       id="path132" />
    <path
       style="fill:#28388c;fill-opacity:1;fill-rule:nonzero;stroke:none"
       d="m 2677.2852,351.96875 2.2031,3.34375 c 0.7578,1.15234 2.3086,1.47656 3.4609,0.71875 1.1524,-0.76172 1.4649,-2.30859 0.7071,-3.46484 l -2.1915,-3.33985 c -0.7578,-1.15625 -2.3046,-1.47656 -3.457,-0.71875 -1.168,0.75781 -1.4805,2.3086 -0.7226,3.46094"
       id="path134" />
    <path
       style="fill:#28388c;fill-opacity:1;fill-rule:nonzero;stroke:none"
       d="m 2571.875,193.38672 -5.6289,5.68359 c -0.9648,0.98047 -0.9648,2.5625 0.016,3.53516 0.9805,0.97265 2.5781,0.96484 3.543,-0.0195 l 5.625,-5.6836 c 0.9805,-0.98047 0.9648,-2.5625 -0.016,-3.53515 -0.9805,-0.97266 -2.5586,-0.96485 -3.5391,0.0195 z m -12.6602,12.79297 -5.6289,5.68359 c -0.9648,0.98438 -0.9492,2.56641 0.031,3.53516 0.9805,0.97265 2.5469,0.96484 3.5273,-0.0156 l 5.625,-5.6875 c 0.9649,-0.98047 0.9649,-2.5625 -0.016,-3.53515 -0.9805,-0.97266 -2.5586,-0.96485 -3.5391,0.0195 z m -12.6445,12.79297 -5.6445,5.6875 c -0.9649,0.98046 -0.9492,2.5625 0.031,3.53515 0.9805,0.96875 2.5625,0.96094 3.5235,-0.0195 l 5.6289,-5.6875 c 0.9648,-0.98047 0.9648,-2.5625 -0.016,-3.53516 -0.9805,-0.96875 -2.5625,-0.96093 -3.5235,0.0195 z m -12.664,12.79296 -5.6407,5.6875 c -0.9648,0.98047 -0.9648,2.5625 0.031,3.53516 0.9804,0.97266 2.5586,0.96484 3.5234,-0.0195 l 5.6289,-5.68359 c 0.9805,-0.98438 0.9649,-2.56641 -0.016,-3.53516 -0.9805,-0.97266 -2.5625,-0.96484 -3.5273,0.0156 z m -12.6758,12.79297 -5.625,5.6875 c -0.9805,0.98047 -0.9649,2.5625 0.016,3.53516 0.9961,0.97266 2.5742,0.96484 3.5391,-0.0195 l 5.6289,-5.6875 c 0.9765,-0.97656 0.9609,-2.5625 -0.016,-3.53125 -0.9804,-0.97266 -2.5781,-0.96485 -3.5429,0.0156 z m -12.6602,12.79688 -5.625,5.68359 c -0.9805,0.98047 -0.9648,2.56641 0.016,3.53516 0.9766,0.97265 2.5743,0.96484 3.5391,-0.0156 l 5.625,-5.6875 c 0.9805,-0.98047 0.9648,-2.5625 -0.016,-3.53515 -0.9766,-0.97266 -2.5742,-0.96485 -3.5391,0.0195 z m -12.6601,12.79297 -5.6289,5.68359 c -0.961,0.98438 -0.961,2.56641 0.016,3.53906 0.9804,0.96875 2.5781,0.96094 3.5429,-0.0195 l 5.625,-5.6875 c 0.9805,-0.98047 0.9649,-2.5625 -0.016,-3.53515 -0.9961,-0.97266 -2.5742,-0.96094 -3.539,0.0195 z m -12.6602,12.79297 -5.6289,5.68359 c -0.9648,0.98437 -0.9648,2.56641 0.016,3.53906 0.9805,0.97266 2.5625,0.96094 3.543,-0.0195 l 5.625,-5.6875 c 0.9648,-0.98047 0.9648,-2.5625 -0.031,-3.53516 -0.9804,-0.96875 -2.5586,-0.96093 -3.5234,0.0195 z m -12.6602,12.79296 -5.6289,5.6875 c -0.9648,0.98047 -0.9648,2.5625 0.016,3.53516 0.9804,0.97266 2.5625,0.96094 3.539,-0.0195 l 5.6289,-5.6875 c 0.9649,-0.98047 0.9493,-2.5625 -0.016,-3.53516 -0.9961,-0.96875 -2.5625,-0.96093 -3.5391,0.0195 z m -12.664,12.79688 -5.625,5.68359 c -0.9649,0.98047 -0.9649,2.56641 0.016,3.53516 0.9805,0.97266 2.5586,0.96484 3.5391,-0.0156 l 5.6289,-5.6875 c 0.9648,-0.98437 0.9648,-2.5664 -0.016,-3.53515 -0.9805,-0.97266 -2.5625,-0.96485 -3.543,0.0195 z m -12.6602,12.78906 -5.625,5.6875 c -0.9804,0.98438 -0.9648,2.56641 0.016,3.53906 0.9804,0.96875 2.5585,0.96094 3.539,-0.0195 l 5.6289,-5.6875 c 0.9649,-0.98047 0.9649,-2.5664 -0.016,-3.53515 -0.9805,-0.96875 -2.5781,-0.96094 -3.543,0.0156 z m -12.6601,12.79688 -5.6407,5.68359 c -0.9648,0.98438 -0.9492,2.56641 0.031,3.53906 0.9766,0.96875 2.5586,0.96094 3.5391,-0.0195 l 5.6289,-5.6875 c 0.9609,-0.98047 0.9609,-2.5625 -0.02,-3.53515 -0.9765,-0.96875 -2.5742,-0.96094 -3.539,0.0195 z m -12.6602,12.79297 -5.6289,5.6875 c -0.9766,0.98046 -0.9609,2.5625 0.016,3.53515 0.9805,0.97266 2.5625,0.96485 3.543,-0.0195 l 5.6094,-5.6875 c 0.9804,-0.98047 0.9804,-2.5625 0,-3.53125 -0.9961,-0.97266 -2.5742,-0.96484 -3.5391,0.0156 z m -12.6601,12.79296 -5.6289,5.6875 c -0.9805,0.98047 -0.9649,2.56641 0.016,3.53516 0.9804,0.97266 2.5625,0.96094 3.5429,-0.0156 l 5.6094,-5.6875 c 0.9805,-0.98047 0.9805,-2.56641 -0.016,-3.53907 -0.9805,-0.96875 -2.5586,-0.96093 -3.5234,0.0195 z m -12.6602,12.79297 -5.6289,5.6875 c -0.9805,0.98438 -0.9648,2.56641 0.016,3.53516 0.9805,0.97266 2.5625,0.96484 3.5235,-0.0156 l 5.6289,-5.6875 c 0.9804,-0.98437 0.9648,-2.5664 -0.016,-3.53515 -0.9804,-0.97266 -2.5625,-0.96485 -3.5234,0.0156 z m -12.6641,12.79688 -5.625,5.68359 c -0.9804,0.98438 -0.9804,2.56641 0.016,3.53906 0.9804,0.96875 2.5625,0.96094 3.5234,-0.0195 l 5.6289,-5.6875 c 0.9805,-0.98047 0.9649,-2.5625 -0.016,-3.53515 -0.9805,-0.96875 -2.5625,-0.96094 -3.5274,0.0195 z m -12.6757,12.79297 -5.6094,5.6875 c -0.9805,0.98047 -0.9805,2.5625 0,3.53515 0.9961,0.96875 2.5742,0.96094 3.539,-0.0195 l 5.6446,-5.6875 c 0.9648,-0.98047 0.9492,-2.5625 -0.031,-3.53515 -0.9804,-0.96875 -2.5625,-0.96094 -3.5429,0.0195 z m -12.6602,12.79297 -5.625,5.6875 c -0.9648,0.98046 -0.9648,2.5625 0.016,3.53515 0.9805,0.97266 2.5742,0.96094 3.5391,-0.0195 l 5.6445,-5.68359 c 0.961,-0.98438 0.9453,-2.56641 -0.035,-3.53516 -0.9766,-0.97266 -2.5586,-0.96484 -3.5391,0.0156 z m -12.6602,12.79296 -5.6289,5.6875 c -0.9609,0.98438 -0.9609,2.5625 0.016,3.53516 0.9804,0.97266 2.5781,0.96484 3.5429,-0.0156 l 5.625,-5.6875 c 0.9805,-0.98438 0.9649,-2.56641 -0.016,-3.53516 -0.9805,-0.97266 -2.5586,-0.96484 -3.5391,0.0156 z m -12.6601,12.79688 -5.6289,5.68359 c -0.9649,0.98047 -0.9649,2.56641 0.016,3.53516 0.9805,0.97266 2.5625,0.96484 3.543,-0.0156 l 5.625,-5.6875 c 0.9648,-0.98046 0.9648,-2.5625 -0.016,-3.53515 -0.9805,-0.97266 -2.5586,-0.96485 -3.5391,0.0195 z m -12.6602,12.79297 -5.6289,5.6875 c -0.9648,0.98047 -0.9492,2.5625 0.031,3.53125 0.9804,0.97656 2.5625,0.96484 3.5273,-0.0156 l 5.625,-5.6875 c 0.9649,-0.98047 0.9649,-2.5625 -0.016,-3.53515 -0.9805,-0.97266 -2.5586,-0.96485 -3.5391,0.0195 z M 2306,462.05469 l -5.6445,5.6875 c -0.9649,0.98047 -0.9492,2.5625 0.031,3.53515 0.9805,0.96875 2.5625,0.96094 3.5235,-0.0195 l 5.6289,-5.68359 c 0.9648,-0.98438 0.9648,-2.56641 -0.016,-3.53906 -0.9804,-0.96875 -2.5625,-0.96094 -3.5234,0.0195 z m -12.6797,12.79297 -5.625,5.6875 c -0.9648,0.98046 -0.9648,2.5664 0.016,3.53515 0.9961,0.97266 2.5743,0.96485 3.5391,-0.0156 l 5.6289,-5.6875 c 0.9805,-0.98438 0.9649,-2.56641 -0.016,-3.53516 -0.9805,-0.97266 -2.5781,-0.96484 -3.543,0.0156 z m -12.6601,12.79687 -5.625,5.68359 c -0.9805,0.98438 -0.9649,2.5625 0.016,3.53516 0.9805,0.97266 2.5742,0.96484 3.539,-0.0195 l 5.629,-5.68359 c 0.9765,-0.98047 0.9609,-2.5625 -0.016,-3.53516 -0.9804,-0.97266 -2.5781,-0.96484 -3.5429,0.0195 z M 2268,500.4375 l -5.6289,5.6875 c -0.9766,0.97656 -0.9609,2.5625 0.02,3.53516 0.9766,0.96875 2.5742,0.96093 3.5391,-0.0195 l 5.625,-5.6875 c 0.9805,-0.98046 0.9648,-2.5625 -0.016,-3.53515 -0.9961,-0.97266 -2.5743,-0.96094 -3.5391,0.0195 z m -12.6602,12.79297 -5.6289,5.6875 c -0.9609,0.98047 -0.9609,2.5625 0.016,3.53515 0.9804,0.96875 2.5625,0.96094 3.5429,-0.0195 l 5.625,-5.68359 c 0.9649,-0.98438 0.9649,-2.56641 -0.031,-3.53906 -0.9805,-0.96875 -2.5586,-0.96094 -3.5235,0.0195 z m -12.6601,12.79297 -5.6289,5.6875 c -0.9649,0.98047 -0.9649,2.5625 0.016,3.53515 0.9805,0.97266 2.5625,0.96094 3.543,-0.0195 l 5.625,-5.68359 c 0.9648,-0.98438 0.9492,-2.56641 -0.031,-3.53516 -0.9804,-0.97265 -2.5586,-0.96484 -3.5234,0.0156 z m -12.6602,12.79297 -5.6289,5.6875 c -0.9648,0.98046 -0.9648,2.5625 0.016,3.53515 0.9804,0.97266 2.5625,0.96485 3.539,-0.0195 l 5.6289,-5.6875 c 0.9649,-0.97656 0.9649,-2.5625 -0.016,-3.53125 -0.9805,-0.97266 -2.5625,-0.96484 -3.5391,0.0156 z m -12.664,12.79687 -5.625,5.68359 c -0.9649,0.98047 -0.9649,2.56641 0.016,3.53516 0.9805,0.97266 2.5586,0.96484 3.5391,-0.0156 l 5.6289,-5.6875 c 0.9648,-0.98047 0.9648,-2.5625 -0.016,-3.53516 -0.9804,-0.97266 -2.5625,-0.96484 -3.5429,0.0195 z m -12.6602,12.79297 -5.6406,5.68359 c -0.9649,0.98438 -0.9492,2.56641 0.031,3.53907 0.9805,0.96875 2.5586,0.96093 3.5391,-0.0195 l 5.6289,-5.6875 c 0.9609,-0.98046 0.9609,-2.5625 -0.016,-3.53515 -0.9805,-0.96875 -2.5781,-0.96094 -3.543,0.0195 z m -12.6601,12.79297 -5.6407,5.6875 c -0.9648,0.98047 -0.9492,2.5625 0.031,3.53515 0.9765,0.97266 2.5586,0.96094 3.539,-0.0195 l 5.6094,-5.6875 c 0.9805,-0.98047 0.9805,-2.5625 0,-3.53515 -0.9922,-0.96875 -2.5742,-0.96094 -3.539,0.0195 z m -12.6602,12.79297 -5.6289,5.6875 c -0.9766,0.98047 -0.9609,2.5625 0.016,3.53515 0.9805,0.97266 2.5625,0.96485 3.543,-0.0195 l 5.6094,-5.68359 c 0.9804,-0.98438 0.9804,-2.56641 -0.016,-3.53516 -0.9804,-0.97265 -2.5586,-0.96484 -3.5234,0.0156 z m -12.6602,12.79297 -5.6289,5.6875 c -0.9804,0.98046 -0.9648,2.5625 0.016,3.53515 0.9804,0.97266 2.5625,0.96485 3.5273,-0.0195 l 5.625,-5.68359 c 0.9805,-0.98047 0.9649,-2.56641 -0.016,-3.53516 -0.9805,-0.97266 -2.5586,-0.96484 -3.5235,0.0156 z m -12.6601,12.79687 -5.6289,5.68359 c -0.9805,0.98438 -0.9649,2.56641 0.016,3.53516 0.9805,0.97266 2.5625,0.96484 3.5234,-0.0156 l 5.629,-5.6875 c 0.9804,-0.98047 0.9648,-2.5625 -0.016,-3.53516 -0.9804,-0.96875 -2.5625,-0.96094 -3.5234,0.0195 z m -12.6797,12.79297 -5.6094,5.68359 c -0.9804,0.98438 -0.9804,2.56641 0.016,3.53907 0.9804,0.96875 2.5585,0.96093 3.5234,-0.0195 l 5.6289,-5.6875 c 0.9805,-0.98046 0.9648,-2.5625 -0.016,-3.53125 -0.9805,-0.97656 -2.5625,-0.96484 -3.543,0.0156 z m -12.6602,12.79297 -5.6093,5.6875 c -0.9805,0.98047 -0.9805,2.5625 0,3.53515 0.9804,0.97266 2.5742,0.96094 3.539,-0.0195 l 5.6446,-5.6875 c 0.9648,-0.98047 0.9492,-2.5625 -0.031,-3.53515 -0.9805,-0.96875 -2.5625,-0.96094 -3.543,0.0195 z m -12.6601,12.79297 -5.625,5.6875 c -0.9649,0.98047 -0.9649,2.5625 0.016,3.53515 0.9766,0.97266 2.5742,0.96094 3.5391,-0.0195 l 5.6289,-5.68359 c 0.9765,-0.98438 0.9609,-2.56641 -0.019,-3.53906 -0.9766,-0.96875 -2.5586,-0.96094 -3.5391,0.0195 z m -12.6602,12.79297 -5.6289,5.6875 c -0.9609,0.98437 -0.9609,2.5664 0.016,3.53515 0.9804,0.97266 2.5625,0.96485 3.5429,-0.0156 l 5.625,-5.6875 c 0.9649,-0.98438 0.9649,-2.56641 -0.016,-3.53516 -0.9805,-0.97266 -2.5586,-0.96094 -3.5391,0.0156 z m -12.6601,12.79687 -5.6289,5.68359 c -0.9649,0.98438 -0.9492,2.56641 0.031,3.53907 0.9805,0.96875 2.5469,0.96093 3.5274,-0.0195 l 5.625,-5.6875 c 0.9648,-0.98047 0.9648,-2.5625 -0.016,-3.53516 -0.9804,-0.96875 -2.5586,-0.96094 -3.539,0.0195 z m -12.6602,12.79297 -5.6289,5.6875 c -0.9648,0.98047 -0.9492,2.5625 0.031,3.53516 0.9804,0.97265 2.5625,0.96093 3.5273,-0.0195 l 5.625,-5.6875 c 0.9649,-0.98046 0.9649,-2.5625 -0.016,-3.53515 -0.9805,-0.97266 -2.5625,-0.96094 -3.5391,0.0195 z m -12.664,12.79297 -5.625,5.6875 c -0.9649,0.98047 -0.9649,2.5625 0.031,3.53515 0.9805,0.97266 2.5625,0.96094 3.5234,-0.0195 l 5.629,-5.68359 c 0.9648,-0.98438 0.9648,-2.56641 -0.016,-3.53906 -0.9804,-0.96875 -2.5625,-0.96094 -3.5429,0.0195 z m -12.6602,12.79297 -5.5156,5.57031 c -0.125,0.12891 -0.2227,0.26562 -0.3321,0.41797 l -0.078,0.13672 c -0.7422,1.16797 -0.4101,2.71093 0.7735,3.45312 1.1562,0.73828 2.7031,0.39844 3.4453,-0.76953 l 0.082,-0.14062 -2.1055,-1.33985 1.7891,1.76172 5.5,-5.57031 c 0.9805,-0.98438 0.9648,-2.56641 -0.016,-3.53516 -0.9805,-0.97265 -2.5782,-0.96484 -3.543,0.0156 z m -11.2852,14.5664 -4.2968,6.75 c -0.7461,1.16797 -0.3985,2.71094 0.7578,3.45313 1.168,0.73828 2.7187,0.39453 3.4609,-0.76953 l 4.3008,-6.75391 c 0.7266,-1.16406 0.3789,-2.70703 -0.7773,-3.44922 -1.168,-0.73828 -2.7188,-0.39453 -3.4454,0.76953 z m -9.6562,15.19141 -4.3008,6.75 c -0.7422,1.16406 -0.3945,2.71094 0.7735,3.45312 1.1562,0.73829 2.7031,0.39454 3.4492,-0.76953 l 4.2812,-6.7539 c 0.7422,-1.16407 0.3946,-2.70703 -0.7578,-3.44922 -1.168,-0.74219 -2.7187,-0.39453 -3.4453,0.76953 z m -9.6758,15.1875 -4.2812,6.75391 c -0.7422,1.16406 -0.3946,2.70703 0.7734,3.44921 1.1563,0.74219 2.7031,0.39844 3.4453,-0.76953 l 4.2852,-6.75 c 0.7422,-1.16406 0.4101,-2.71093 -0.7578,-3.44922 -1.1719,-0.74218 -2.7188,-0.39843 -3.4649,0.76563 z m -9.6406,15.19141 -4.2969,6.75 c -0.7461,1.16796 -0.3984,2.71093 0.7735,3.45312 1.1679,0.74219 2.7031,0.39453 3.4453,-0.76953 l 4.2812,-6.75 c 0.7617,-1.16797 0.4141,-2.71094 -0.7578,-3.44922 -1.168,-0.74219 -2.7031,-0.39844 -3.4453,0.76563 z m -9.6563,15.1914 -4.3007,6.75 c -0.7422,1.16406 -0.3946,2.71094 0.7734,3.45313 1.1562,0.73828 2.7031,0.39453 3.4492,-0.76953 l 4.2969,-6.75 c 0.7422,-1.16797 0.3789,-2.71094 -0.7734,-3.45313 -1.1719,-0.74219 -2.7032,-0.39453 -3.4454,0.76953 z m -9.6601,15.19141 -4.2969,6.75 c -0.7422,1.16406 -0.3945,2.71094 0.7734,3.44922 1.1563,0.74218 2.7032,0.39843 3.4454,-0.76563 l 4.3007,-6.7539 c 0.7266,-1.16407 0.3946,-2.70704 -0.7734,-3.44922 -1.1719,-0.74219 -2.7187,-0.39844 -3.4492,0.76953 z m -9.6563,15.1875 -4.2968,6.7539 c -0.7461,1.16407 -0.3985,2.71094 0.7734,3.44922 1.168,0.74219 2.7031,0.39844 3.4453,-0.76953 l 4.2813,-6.75 c 0.7617,-1.16797 0.414,-2.71094 -0.7579,-3.44922 -1.1679,-0.74218 -2.7031,-0.39843 -3.4453,0.76563 z m -9.6562,15.1914 -4.3008,6.75391 c -0.7266,1.16406 -0.3945,2.70703 0.7734,3.44922 1.1719,0.74219 2.7188,0.39844 3.4493,-0.76953 l 4.2968,-6.75 c 0.7422,-1.16797 0.3946,-2.71094 -0.7734,-3.45313 -1.1719,-0.73828 -2.7031,-0.39453 -3.4453,0.76953 z m -9.6602,15.19141 -4.2968,6.75 c -0.7266,1.16406 -0.3946,2.71094 0.7734,3.45313 1.1523,0.73828 2.7031,0.39453 3.4453,-0.76954 l 4.3008,-6.7539 c 0.7422,-1.16406 0.3945,-2.70703 -0.7735,-3.44922 -1.1562,-0.73828 -2.7031,-0.39844 -3.4492,0.76953 z m -9.6562,15.19141 -4.3008,6.75 c -0.7422,1.16406 -0.3945,2.71093 0.7773,3.45312 1.168,0.73828 2.7032,0.39453 3.4454,-0.77344 l 4.2968,-6.75 c 0.7461,-1.16406 0.3985,-2.70703 -0.7734,-3.44921 -1.168,-0.74219 -2.7031,-0.39844 -3.4453,0.76953 z m -9.6563,15.1914 -4.2851,6.75 c -0.7422,1.16407 -0.4102,2.70703 0.7578,3.44922 1.1719,0.74219 2.7187,0.39844 3.4648,-0.76953 l 4.2813,-6.75 c 0.7422,-1.16406 0.3945,-2.71094 -0.7735,-3.45312 -1.1718,-0.73829 -2.7031,-0.39454 -3.4453,0.77343 z m -9.6601,15.1875 -4.2969,6.75 c -0.7266,1.16797 -0.3945,2.71094 0.7734,3.45313 1.1719,0.73828 2.7188,0.39453 3.4453,-0.76953 l 4.3008,-6.75 c 0.7422,-1.16797 0.3946,-2.71094 -0.7734,-3.45313 -1.1563,-0.73828 -2.7031,-0.39453 -3.4492,0.76953 z m -9.6563,15.19141 -4.3008,6.75 c -0.7265,1.16797 -0.3789,2.71094 0.7774,3.45312 1.168,0.73829 2.7187,0.39454 3.4453,-0.76953 l 4.2969,-6.7539 c 0.7461,-1.16407 0.3984,-2.70703 -0.7578,-3.44922 -1.168,-0.74219 -2.7188,-0.39844 -3.461,0.76953 z m -9.6562,15.19141 -4.2852,6.75 c -0.7422,1.16406 -0.3945,2.70703 0.7578,3.44921 1.1719,0.74219 2.7032,0.39844 3.4649,-0.76562 l 4.2812,-6.75391 c 0.7422,-1.16406 0.3946,-2.71093 -0.7734,-3.44922 -1.1719,-0.74218 -2.7031,-0.39843 -3.4453,0.76954 z m -9.6602,15.1875 -4.2812,6.75 c -0.7422,1.16796 -0.4102,2.71093 0.7578,3.45312 1.1679,0.74219 2.7187,0.39453 3.4609,-0.76953 l 4.2852,-6.75 c 0.7422,-1.16797 0.3945,-2.71094 -0.7735,-3.44922 -1.1562,-0.74219 -2.7031,-0.39844 -3.4492,0.76563 z m -9.6562,15.1914 -4.2852,6.75 c -0.7422,1.16797 -0.3945,2.71094 0.7617,3.45313 1.168,0.73828 2.7188,0.39453 3.4453,-0.76953 l 4.2969,-6.75 c 0.7461,-1.16797 0.3985,-2.71094 -0.7578,-3.45313 -1.168,-0.74219 -2.7187,-0.39453 -3.4609,0.76953 z m -9.6563,15.19141 -4.2851,6.75 c -0.7422,1.16406 -0.3946,2.71094 0.7578,3.44922 1.1718,0.74218 2.7187,0.39843 3.4648,-0.76563 l 4.2813,-6.7539 c 0.7422,-1.16407 0.3945,-2.70704 -0.7578,-3.44922 -1.1719,-0.74219 -2.7188,-0.39453 -3.461,0.76953 z m -9.6601,15.1875 -4.2813,6.7539 c -0.7422,1.16407 -0.3945,2.70703 0.7734,3.44533 1.1524,0.75 2.7032,0.4023 3.4454,-0.7617 l 4.2851,-6.75394 c 0.7422,-1.16406 0.4102,-2.71094 -0.7578,-3.44922 -1.1719,-0.74218 -2.7187,-0.39843 -3.4648,0.76563 z m -9.6563,15.19143 -4.2851,6.7461 c -0.7422,1.1718 -0.3946,2.7109 0.7617,3.4531 1.1679,0.75 2.7187,0.3984 3.4609,-0.7617 l 4.2813,-6.75 c 0.7461,-1.1719 0.3984,-2.7188 -0.7579,-3.4571 -1.1679,-0.7421 -2.7031,-0.3906 -3.4609,0.7696 z m -9.6406,15.1875 -4.3008,6.75 c -0.7422,1.1719 -0.3945,2.7109 0.7578,3.4609 1.1719,0.7383 2.7188,0.3906 3.461,-0.7695 l 4.3007,-6.75 c 0.7266,-1.1719 0.3789,-2.711 -0.7734,-3.461 -1.1719,-0.7382 -2.7188,-0.3906 -3.4453,0.7696 z m -9.6758,15.1914 -4.2812,6.75 c -0.7422,1.168 -0.3946,2.707 0.7734,3.457 1.1523,0.7422 2.7031,0.3906 3.4453,-0.7695 l 4.2852,-6.75 c 0.7421,-1.168 0.4101,-2.711 -0.7618,-3.457 -1.1679,-0.7422 -2.7148,-0.3907 -3.4609,0.7695 z m -9.6562,15.1875 -4.2852,6.7539 c -0.7422,1.168 -0.3945,2.7148 0.7773,3.457 1.168,0.7422 2.7032,0.3906 3.4454,-0.7695 l 4.2812,-6.75 c 0.7461,-1.168 0.4141,-2.7109 -0.7578,-3.4609 -1.168,-0.7383 -2.7188,-0.3907 -3.4609,0.7695 z m -9.6407,15.1914 -4.3008,6.7617 c -0.7421,1.1602 -0.3945,2.707 0.7579,3.4492 1.1718,0.7383 2.7187,0.3907 3.4609,-0.7695 l 4.3008,-6.75 c 0.7422,-1.1719 0.3789,-2.7109 -0.7735,-3.4492 -1.1718,-0.7539 -2.7031,-0.4024 -3.4453,0.7578 z m -9.6601,15.1914 -4.2969,6.7578 c -0.7422,1.1602 -0.3945,2.7109 0.7734,3.4492 1.1524,0.7422 2.7032,0.3907 3.4453,-0.7695 l 4.3008,-6.7461 c 0.7266,-1.1719 0.3946,-2.7109 -0.7773,-3.4531 -1.168,-0.75 -2.7188,-0.3985 -3.4453,0.7617 z m -9.6719,15.1875 -4.2852,6.7617 c -0.7421,1.1602 -0.3945,2.711 0.7774,3.4492 1.168,0.7383 2.7031,0.3907 3.4453,-0.7695 l 4.2812,-6.75 c 0.7461,-1.1719 0.4141,-2.7109 -0.7578,-3.4492 -1.1679,-0.7422 -2.7187,-0.4024 -3.4609,0.7578 z m -9.6406,15.1992 -4.2852,6.7539 c -0.7578,1.1602 -0.4101,2.7071 0.7578,3.4492 1.1719,0.7383 2.7032,0.3907 3.4453,-0.7695 l 4.3008,-6.75 c 0.7422,-1.1719 0.3946,-2.7109 -0.7734,-3.4531 -1.1719,-0.7383 -2.7031,-0.3985 -3.4453,0.7695 z m -9.6602,15.1914 -4.2969,6.75 c -0.7265,1.1602 -0.3945,2.711 0.7735,3.4531 1.1523,0.7383 2.7187,0.3868 3.4453,-0.7734 l 4.3008,-6.75 c 0.7422,-1.168 0.3945,-2.7109 -0.7774,-3.4492 -1.1523,-0.7383 -2.6992,-0.3984 -3.4453,0.7695 z m -9.6562,15.1914 -4.3008,6.75 c -0.7422,1.1602 -0.3789,2.7071 0.7773,3.4492 1.168,0.7422 2.7032,0.3907 3.4453,-0.7695 l 4.2969,-6.75 c 0.7305,-1.1719 0.3985,-2.7109 -0.7578,-3.4492 -1.168,-0.7422 -2.7344,-0.4023 -3.4609,0.7695 z m -9.6563,15.1914 -4.2851,6.7461 c -0.7579,1.1602 -0.4102,2.711 0.7578,3.4532 1.1718,0.7382 2.7031,0.3906 3.4453,-0.7696 l 4.3008,-6.7539 c 0.7422,-1.168 0.3945,-2.707 -0.7735,-3.4453 -1.1718,-0.7422 -2.7031,-0.4023 -3.4453,0.7695 z m -9.6601,15.1875 -4.2813,6.75 c -0.7422,1.1602 -0.4101,2.711 0.7578,3.4493 1.168,0.7421 2.7188,0.4023 3.461,-0.7696 l 4.2851,-6.75 c 0.7422,-1.1679 0.3945,-2.7109 -0.7773,-3.4492 -1.1524,-0.7422 -2.7032,-0.3984 -3.4453,0.7695 z m -9.6563,15.1914 -4.3008,6.75 c -0.7265,1.1602 -0.3789,2.711 0.7774,3.4493 1.1679,0.7382 2.7187,0.3984 3.4453,-0.7696 l 4.2969,-6.75 c 0.7461,-1.1718 0.3945,-2.7109 -0.7735,-3.4492 -1.1523,-0.7422 -2.7031,-0.4023 -3.4453,0.7695 z m -9.6562,15.1875 -4.2852,6.7539 c -0.7578,1.1602 -0.3945,2.7071 0.7578,3.4454 1.1719,0.7421 2.7031,0.4023 3.4453,-0.7696 l 4.3008,-6.7461 c 0.7422,-1.1718 0.3945,-2.7109 -0.7578,-3.4531 -1.1719,-0.7383 -2.7188,-0.3984 -3.4609,0.7695 z m -9.6602,15.1914 -4.2812,6.75 c -0.7422,1.1602 -0.4141,2.711 0.7578,3.4493 1.1679,0.7422 2.7187,0.3984 3.4609,-0.7696 l 4.2852,-6.75 c 0.7421,-1.1679 0.3945,-2.7109 -0.7774,-3.4492 -1.1523,-0.7422 -2.7031,-0.4023 -3.4453,0.7695 z m -9.6562,15.1875 -4.2852,6.754 c -0.7422,1.1601 -0.3945,2.707 0.7617,3.4492 1.168,0.7383 2.7188,0.3984 3.461,-0.7696 l 4.2812,-6.75 c 0.7422,-1.1718 0.3945,-2.7109 -0.7734,-3.4531 -1.1524,-0.7383 -2.7032,-0.3984 -3.4453,0.7695 z m -9.6563,15.1915 -4.2852,6.75 c -0.7421,1.1601 -0.3945,2.7109 0.7579,3.4531 1.1718,0.7383 2.7187,0.3984 3.4453,-0.7696 l 4.3008,-6.7539 c 0.7421,-1.1601 0.3945,-2.707 -0.7579,-3.4492 -1.1718,-0.7383 -2.7187,-0.3984 -3.4609,0.7696 z m -9.6602,15.1914 -4.2812,6.75 c -0.7461,1.1601 -0.3945,2.7109 0.7734,3.4492 1.1524,0.7422 2.7032,0.4023 3.4453,-0.7696 l 4.2852,-6.75 c 0.7422,-1.1601 0.4102,-2.7109 -0.7617,-3.4492 -1.168,-0.7422 -2.7188,-0.4023 -3.461,0.7696 z m -9.6562,15.1914 -4.2852,6.7461 c -0.7421,1.1718 -0.3945,2.7109 0.7618,3.4531 1.1679,0.7383 2.7187,0.3984 3.4609,-0.7695 l 4.2812,-6.754 c 0.7422,-1.1601 0.3946,-2.707 -0.7734,-3.4453 -1.1523,-0.7422 -2.7031,-0.4023 -3.4453,0.7696 z m -9.6406,15.1875 -4.3008,6.75 c -0.7422,1.1718 -0.3945,2.7109 0.7578,3.4492 1.1719,0.7422 2.7188,0.4023 3.4609,-0.7695 l 4.3008,-6.75 c 0.7266,-1.1602 0.3789,-2.7071 -0.7734,-3.4493 -1.1719,-0.7382 -2.7188,-0.3984 -3.4453,0.7696 z m -9.6758,15.1914 -4.2813,6.75 c -0.7461,1.1679 -0.3984,2.7109 0.7735,3.4492 1.1523,0.7383 2.7031,0.3984 3.4453,-0.7695 l 4.2851,-6.75 c 0.7422,-1.1602 0.4102,-2.711 -0.7617,-3.4493 -1.1679,-0.7421 -2.7187,-0.4023 -3.4609,0.7696 z m -9.6563,15.1875 -4.2851,6.7539 c -0.7422,1.1679 -0.3945,2.707 0.7773,3.4453 1.168,0.7422 2.7032,0.4023 3.4453,-0.7695 l 4.2813,-6.7461 c 0.7422,-1.1602 0.4101,-2.711 -0.7578,-3.4532 -1.168,-0.7382 -2.7188,-0.3984 -3.461,0.7696 z m -9.6406,15.1914 -4.3008,6.75 c -0.7422,1.1719 -0.3945,2.7109 0.7578,3.4492 1.1719,0.7422 2.7188,0.4023 3.461,-0.7695 l 4.3008,-6.75 c 0.7422,-1.1602 0.3789,-2.7071 -0.7735,-3.4493 -1.1718,-0.7382 -2.7031,-0.3984 -3.4453,0.7696 z m -9.6601,15.1914 -4.2969,6.75 c -0.7461,1.168 -0.3985,2.7109 0.7734,3.4492 1.1524,0.7383 2.7031,0.3984 3.4453,-0.7695 l 4.3008,-6.75 c 0.7266,-1.1602 0.3945,-2.711 -0.7773,-3.4492 -1.1524,-0.7422 -2.7188,-0.3907 -3.4453,0.7695 z m -9.6719,15.1875 -4.2852,6.75 c -0.7422,1.1719 -0.3945,2.7109 0.7774,3.4531 1.1679,0.7383 2.6992,0.3984 3.4453,-0.7695 l 4.2812,-6.7539 c 0.7422,-1.1602 0.4102,-2.7071 -0.7578,-3.4492 -1.1679,-0.7383 -2.7187,-0.3907 -3.4609,0.7695 z m -9.6406,15.1914 -4.3008,6.75 c -0.7422,1.1719 -0.3946,2.7109 0.7734,3.4492 1.1719,0.7422 2.7031,0.4024 3.4453,-0.7695 l 4.3008,-6.75 c 0.7422,-1.1602 0.3945,-2.711 -0.7734,-3.4492 -1.1719,-0.7383 -2.7032,-0.3907 -3.4453,0.7695 z m -9.6602,15.1914 -4.2969,6.75 c -0.7304,1.168 -0.3984,2.707 0.7735,3.4492 1.1679,0.7422 2.7187,0.3985 3.4453,-0.7578 l 4.3008,-6.7617 c 0.7421,-1.1602 0.3945,-2.711 -0.7774,-3.4492 -1.1523,-0.7422 -2.7031,-0.3907 -3.4453,0.7695 z m -9.6562,15.1875 -1.7383,2.7422 c -0.7422,1.1601 -0.3946,2.707 0.7578,3.4492 1.168,0.7422 2.7187,0.4023 3.4609,-0.7695 l 1.7383,-2.7422 c 0.7266,-1.1602 0.3945,-2.707 -0.7734,-3.4492 -1.1524,-0.7383 -2.7188,-0.3907 -3.4453,0.7695"
       id="path136" />
    <path
       style="fill:#28388c;fill-opacity:1;fill-rule:nonzero;stroke:none"
       d="m 2684.8438,805.10547 -7.9297,-1.02735 c -1.3672,-0.17578 -2.6211,0.78907 -2.8008,2.16016 -0.1836,1.36719 0.789,2.62109 2.1601,2.79688 l 7.9297,1.03125 c 1.3672,0.17578 2.6211,-0.79297 2.8008,-2.16016 0.1797,-1.37109 -0.793,-2.62109 -2.1601,-2.80078 z m -17.8516,-2.3125 -7.9297,-1.02735 c -1.3711,-0.17968 -2.625,0.78907 -2.8047,2.15625 -0.164,1.3711 0.793,2.625 2.1602,2.80469 l 7.9297,1.02344 c 1.3828,0.17969 2.6211,-0.78516 2.8007,-2.15625 0.1836,-1.37109 -0.789,-2.62109 -2.1562,-2.80078 z m -17.8399,-2.3125 -7.9296,-1.02735 c -1.3829,-0.17968 -2.6368,0.78907 -2.8008,2.15625 -0.1836,1.3711 0.7734,2.625 2.1406,2.80079 l 7.9453,1.02734 c 1.3711,0.17969 2.625,-0.78516 2.8047,-2.15625 0.1641,-1.36719 -0.793,-2.625 -2.1602,-2.80078 z m -17.8554,-2.3125 -7.9297,-1.02735 c -1.3672,-0.17578 -2.6367,0.78907 -2.8164,2.15625 -0.1641,1.3711 0.789,2.625 2.1601,2.80079 l 7.9454,1.03125 c 1.3671,0.17578 2.621,-0.79297 2.8007,-2.16016 0.1641,-1.37109 -0.789,-2.625 -2.1601,-2.80078 z m -17.8516,-2.3125 -7.9453,-1.02735 c -1.3555,-0.17578 -2.6211,0.78907 -2.7891,2.16016 -0.1796,1.36719 0.793,2.62109 2.1602,2.79688 l 7.9297,1.02734 c 1.3672,0.17969 2.6211,-0.78906 2.8047,-2.15625 0.164,-1.37109 -0.793,-2.62109 -2.1602,-2.80078 z m -17.8555,-2.3125 -7.9296,-1.02735 c -1.3672,-0.17968 -2.6211,0.78907 -2.8008,2.15625 -0.168,1.3711 0.789,2.625 2.1601,2.80079 l 7.9297,1.02734 c 1.3672,0.17969 2.6211,-0.78516 2.8008,-2.15625 0.1797,-1.37109 -0.793,-2.625 -2.1602,-2.80078 z m -17.8359,-2.3125 -7.9492,-1.02735 c -1.3672,-0.17968 -2.6211,0.78907 -2.8008,2.15625 -0.1797,1.3711 0.793,2.625 2.1602,2.80079 l 7.9297,1.02734 c 1.3671,0.17969 2.6367,-0.78516 2.8007,-2.15625 0.1836,-1.36719 -0.7734,-2.625 -2.1406,-2.80078 z m -17.8555,-2.3125 -7.9453,-1.02735 c -1.3672,-0.17578 -2.6211,0.78907 -2.8047,2.15625 -0.1796,1.3711 0.793,2.625 2.1602,2.80079 l 7.9297,1.02734 c 1.3711,0.17969 2.6367,-0.78906 2.8047,-2.15625 0.1797,-1.37109 -0.7774,-2.625 -2.1446,-2.80078 z m -17.8711,-2.3125 -7.9296,-1.02735 c -1.3672,-0.17968 -2.6211,0.78907 -2.7852,2.15625 -0.1836,1.3711 0.7891,2.625 2.1602,2.80079 l 7.9296,1.02734 c 1.3672,0.17969 2.6211,-0.78906 2.7852,-2.15625 0.1797,-1.36719 -0.7734,-2.62109 -2.1602,-2.80078 z m -17.8359,-2.3125 -7.9297,-1.02735 c -1.3711,-0.17968 -2.6211,0.78907 -2.8047,2.15625 -0.1797,1.3711 0.793,2.625 2.1602,2.80079 l 7.9297,1.02734 c 1.3672,0.17969 2.6211,-0.78516 2.8047,-2.15625 0.1797,-1.37109 -0.793,-2.625 -2.1602,-2.80078 z m -17.8555,-2.3125 -7.9296,-1.02735 c -1.3672,-0.17968 -2.6211,0.78907 -2.8008,2.15625 -0.1836,1.3711 0.789,2.625 2.1562,2.80079 l 7.9297,1.03125 c 1.3711,0.17578 2.625,-0.79297 2.8047,-2.16016 0.1797,-1.37109 -0.793,-2.625 -2.1602,-2.80078 z m -17.8554,-2.3125 -7.9297,-1.02735 c -1.3672,-0.17578 -2.6211,0.78907 -2.8008,2.15625 -0.1797,1.3711 0.793,2.625 2.1602,2.80079 l 7.9296,1.02734 c 1.3672,0.17969 2.6211,-0.78906 2.8008,-2.15625 0.1836,-1.37109 -0.789,-2.625 -2.1601,-2.80078 z m -17.8516,-2.3125 -7.9297,-1.02735 c -1.3711,-0.17968 -2.6211,0.78907 -2.7851,2.15625 -0.1836,1.3711 0.7734,2.625 2.1562,2.80079 L 2470,782.3125 c 1.3711,0.17969 2.6211,-0.78906 2.7891,-2.15625 0.1797,-1.37109 -0.7774,-2.62109 -2.1602,-2.80078 z m -17.8398,-2.3125 -7.9297,-1.02735 c -1.3672,-0.17578 -2.6367,0.78907 -2.8008,2.15625 -0.1836,1.3711 0.7891,2.625 2.1445,2.80079 L 2452.1484,780 c 1.3672,0.17969 2.6211,-0.78906 2.8008,-2.15625 0.1836,-1.37109 -0.789,-2.625 -2.1601,-2.80078 z m -17.8516,-2.3125 -7.9297,-1.02735 c -1.3711,-0.17578 -2.6406,0.78907 -2.8047,2.15625 -0.1797,1.3711 0.7774,2.625 2.1446,2.80079 l 7.9453,1.03125 c 1.3672,0.17578 2.6211,-0.79297 2.8047,-2.16016 0.1796,-1.37109 -0.793,-2.625 -2.1602,-2.80078 z m -17.8555,-2.3125 -7.9297,-1.02735 c -1.3671,-0.17968 -2.621,0.78907 -2.8007,2.16016 -0.1836,1.36719 0.789,2.62109 2.1562,2.79688 l 7.9297,1.02734 c 1.3711,0.17969 2.6211,-0.78906 2.8047,-2.15625 0.1797,-1.37109 -0.793,-2.625 -2.1602,-2.80078 z m -17.8554,-2.3125 -7.9297,-1.02735 c -1.3672,-0.17968 -2.6211,0.78907 -2.8008,2.15625 -0.1641,1.3711 0.7891,2.625 2.1602,2.80079 l 7.9453,1.02734 c 1.3672,0.17969 2.6211,-0.78516 2.7851,-2.15625 0.1836,-1.37109 -0.7734,-2.625 -2.1601,-2.80078 z m -17.836,-2.3125 -7.9453,-1.02735 c -1.3711,-0.17968 -2.6211,0.78907 -2.8047,2.15625 -0.164,1.3711 0.793,2.625 2.1602,2.80079 l 7.9453,1.02734 c 1.3516,0.17969 2.6211,-0.78516 2.8047,-2.15625 0.164,-1.36719 -0.793,-2.625 -2.1602,-2.80078 z m -17.8554,-2.3125 -7.9454,-1.02735 c -1.3671,-0.17578 -2.621,0.78907 -2.8007,2.15625 -0.168,1.3711 0.789,2.625 2.1562,2.80079 l 7.9297,1.03125 c 1.3867,0.17578 2.6406,-0.79297 2.8047,-2.16016 0.1797,-1.37109 -0.7734,-2.625 -2.1445,-2.80078 z m -17.8516,-2.3125 -7.9297,-1.02735 c -1.3867,-0.17968 -2.6211,0.78907 -2.8047,2.15625 -0.1797,1.3711 0.793,2.625 2.1602,2.80079 l 7.9297,1.02734 c 1.3672,0.17969 2.6211,-0.78906 2.8007,-2.15625 0.1836,-1.37109 -0.789,-2.62109 -2.1562,-2.80078 z m -17.8555,-2.3125 -7.9297,-1.02735 c -1.3671,-0.17968 -2.6211,0.78907 -2.8046,2.15625 -0.1797,1.3711 0.7929,2.625 2.1601,2.80079 l 7.9297,1.02734 c 1.3711,0.17969 2.6406,-0.78516 2.8047,-2.15625 0.1797,-1.37109 -0.793,-2.625 -2.1602,-2.80078 z m -17.8554,-2.3125 -7.9297,-1.02735 c -1.3672,-0.17968 -2.6211,0.78907 -2.8008,2.15625 -0.1836,1.3711 0.7891,2.625 2.1601,2.80079 l 7.9297,1.02734 c 1.3672,0.17969 2.6368,-0.78906 2.8008,-2.15625 0.1836,-1.37109 -0.789,-2.625 -2.1601,-2.80078 z m -17.8516,-2.3125 -7.9297,-1.02735 c -1.3711,-0.17578 -2.6211,0.78907 -2.8047,2.15625 -0.164,1.3711 0.793,2.625 2.1602,2.80079 l 7.9297,1.03125 c 1.3867,0.17578 2.6211,-0.79297 2.8047,-2.16016 0.1796,-1.37109 -0.793,-2.625 -2.1602,-2.80078 z m -17.8398,-2.3125 -7.9297,-1.02735 c -1.3828,-0.17968 -2.6211,0.78907 -2.8008,2.15625 -0.1836,1.3711 0.789,2.625 2.1601,2.80079 l 7.9297,1.02734 c 1.3672,0.17969 2.6211,-0.78906 2.8008,-2.15625 0.1641,-1.37109 -0.793,-2.625 -2.1601,-2.80078 z m -17.8516,-2.3125 -7.9297,-1.02735 c -1.3711,-0.17968 -2.6211,0.78907 -2.8047,2.15625 -0.1797,1.3711 0.793,2.625 2.1602,2.80079 l 7.9297,1.02734 c 1.3671,0.17969 2.6211,-0.78516 2.8007,-2.15625 0.1836,-1.37109 -0.789,-2.625 -2.1562,-2.80078 z m -17.8555,-2.3125 -7.9297,-1.02735 c -1.3672,-0.17968 -2.6367,0.78516 -2.8047,2.15625 -0.1796,1.3711 0.793,2.625 2.1602,2.80079 l 7.9297,1.02734 c 1.3711,0.17969 2.6211,-0.78906 2.8047,-2.15625 0.1797,-1.37109 -0.793,-2.625 -2.1602,-2.80078 z m -17.8554,-2.3125 -7.9297,-1.02735 c -1.3672,-0.17968 -2.6211,0.78907 -2.8008,2.15625 -0.1641,1.3711 0.789,2.625 2.1601,2.80079 l 7.9297,1.02734 c 1.3828,0.17969 2.6211,-0.78906 2.8008,-2.15625 0.1836,-1.37109 -0.7891,-2.625 -2.1601,-2.80078 z m -17.836,-2.3125 -7.9297,-1.02735 c -1.3867,-0.17968 -2.6367,0.78907 -2.8047,2.15625 -0.1796,1.3711 0.7774,2.625 2.1446,2.80079 l 7.9453,1.02734 c 1.3711,0.17578 2.6211,-0.78906 2.8047,-2.15625 0.164,-1.37109 -0.793,-2.625 -2.1602,-2.80078 z m -17.8555,-2.3125 -7.9453,-1.02735 c -1.3515,-0.17968 -2.6211,0.78907 -2.8047,2.15625 -0.164,1.3711 0.793,2.625 2.1602,2.80079 l 7.9492,1.02734 c 1.3672,0.17969 2.6211,-0.78906 2.8008,-2.15625 0.1641,-1.37109 -0.793,-2.625 -2.1602,-2.80078 z m -17.8554,-2.3125 -7.9453,-1.02735 c -1.3672,-0.17968 -2.6211,0.78516 -2.7852,2.15625 -0.1797,1.3711 0.7734,2.625 2.1602,2.80079 L 2166.5313,743 c 1.3671,0.17969 2.621,-0.78906 2.8007,-2.15625 0.168,-1.37109 -0.789,-2.625 -2.1601,-2.80078 z m -17.8516,-2.3125 -7.9297,-1.02735 c -1.3672,-0.17968 -2.6211,0.78907 -2.8047,2.15625 -0.164,1.3711 0.793,2.6211 2.1602,2.80079 l 7.9297,1.02734 c 1.3711,0.17969 2.6211,-0.78906 2.8047,-2.15625 0.1797,-1.37109 -0.793,-2.625 -2.1602,-2.80078 z m -17.8398,-2.3125 -7.9453,-1.03125 c -1.3672,-0.17578 -2.6211,0.79297 -2.8008,2.16015 -0.1836,1.3711 0.789,2.625 2.1601,2.80079 l 7.9297,1.02734 c 1.3672,0.17578 2.6367,-0.78906 2.8008,-2.15625 0.1797,-1.37109 -0.7734,-2.625 -2.1445,-2.80078 z m -17.8516,-2.3125 -7.9453,-1.02735 c -1.3711,-0.17578 -2.625,0.78907 -2.8047,2.15625 -0.1797,1.36719 0.793,2.625 2.1602,2.80079 l 7.9297,1.02734 c 1.3671,0.17969 2.6367,-0.78906 2.8007,-2.15625 0.1836,-1.37109 -0.789,-2.625 -2.1406,-2.80078 z m -17.8711,-2.3125 -7.9297,-1.02735 c -1.3672,-0.17968 -2.6211,0.78907 -2.7851,2.15625 -0.1836,1.3711 0.7734,2.625 2.1601,2.80079 l 7.9297,1.02734 c 1.3672,0.17969 2.6211,-0.78906 2.7852,-2.15625 0.1797,-1.37109 -0.7774,-2.625 -2.1602,-2.80078 z m -17.8398,-2.3125 -7.9297,-1.02735 c -1.3672,-0.17968 -2.6211,0.78907 -2.8008,2.15625 -0.1797,1.3711 0.793,2.6211 2.1602,2.80079 l 7.9296,1.02734 c 1.3672,0.17969 2.6211,-0.78906 2.8008,-2.15625 0.1836,-1.37109 -0.789,-2.625 -2.1601,-2.80078 z m -17.8516,-2.3125 -7.9297,-1.03125 c -1.3711,-0.17578 -2.6211,0.79297 -2.8047,2.16015 -0.1797,1.3711 0.793,2.625 2.1602,2.80079 l 7.9297,1.02734 c 1.3672,0.17578 2.6211,-0.78516 2.8047,-2.15625 0.1797,-1.37109 -0.793,-2.625 -2.1602,-2.80078 z m -16.3203,-4.38672 -7.1406,-3.61328 c -1.2344,-0.625 -2.7344,-0.13281 -3.3633,1.10156 -0.625,1.23047 -0.1328,2.73438 1.1055,3.35938 l 7.1367,3.61328 c 1.2226,0.62109 2.7226,0.1289 3.3633,-1.10157 0.6132,-1.23046 0.1328,-2.73828 -1.1016,-3.35937 z m -16.0586,-8.13281 -7.1367,-3.61328 c -1.2383,-0.6211 -2.7539,-0.12891 -3.3633,1.10156 -0.6289,1.23047 -0.1328,2.73828 1.1016,3.35937 l 7.1406,3.61328 c 1.2187,0.625 2.7187,0.13282 3.3633,-1.10156 0.6093,-1.23047 0.1133,-2.73437 -1.1055,-3.35937 z m -16.0586,-8.12891 -7.1367,-3.61328 c -1.2383,-0.625 -2.7539,-0.13281 -3.3633,1.10156 -0.625,1.23047 -0.1328,2.73438 1.0899,3.35938 l 7.1523,3.61328 c 1.2187,0.62109 2.7383,0.1289 3.3477,-1.10156 0.625,-1.23047 0.1328,-2.73829 -1.0899,-3.35938 z m -16.0742,-8.13281 -7.1367,-3.61328 c -1.2188,-0.625 -2.7188,-0.13282 -3.3477,1.10156 -0.625,1.23047 -0.1289,2.73437 1.0899,3.35937 l 7.1367,3.61329 c 1.2383,0.625 2.7539,0.13281 3.3633,-1.10157 0.6289,-1.23047 0.1328,-2.73437 -1.1055,-3.35937 z m -16.0547,-8.12891 -7.1406,-3.61328 c -1.2188,-0.625 -2.7188,-0.13281 -3.3633,1.10156 -0.6094,1.23047 -0.1289,2.73438 1.1055,3.35938 l 7.1406,3.61328 c 1.2344,0.62109 2.7344,0.12891 3.3633,-1.10156 0.625,-1.23047 0.1289,-2.73828 -1.1055,-3.35938 z m -16.0586,-8.13281 -7.1367,-3.61328 c -1.2383,-0.625 -2.7383,-0.13281 -3.3633,1.10156 -0.6094,1.23047 -0.1328,2.73438 1.1211,3.35938 l 7.1211,3.61328 c 1.2383,0.625 2.7383,0.13281 3.3633,-1.10157 0.625,-1.23046 0.1328,-2.73437 -1.1055,-3.35937 z m -16.0547,-8.12891 -7.1406,-3.61718 c -1.2344,-0.6211 -2.7344,-0.12891 -3.3477,1.10156 -0.6406,1.23437 -0.1484,2.73828 1.0899,3.35937 l 7.1367,3.61719 c 1.2383,0.62109 2.7383,0.12891 3.3633,-1.10156 0.6289,-1.23047 0.1328,-2.73828 -1.1016,-3.35938 z m -16.0586,-8.13281 -7.1367,-3.61328 c -1.2383,-0.625 -2.7383,-0.13281 -3.3633,1.10156 -0.6289,1.23047 -0.1172,2.73438 1.1016,3.35938 l 7.1406,3.61328 c 1.2344,0.625 2.7344,0.13281 3.3477,-1.10156 0.6406,-1.23047 0.1445,-2.73438 -1.0899,-3.35938 z m -16.0586,-8.13281 -7.1367,-3.61328 c -1.2383,-0.6211 -2.7383,-0.12891 -3.3633,1.10156 -0.625,1.23437 -0.1328,2.73828 1.1055,3.35937 l 7.1367,3.61719 c 1.2383,0.6211 2.7383,0.12891 3.3633,-1.10156 0.625,-1.23438 0.1328,-2.73828 -1.1055,-3.36328 z m -16.0547,-8.12891 -7.1406,-3.61328 c -1.2344,-0.625 -2.7344,-0.13281 -3.3633,1.10156 -0.6093,1.23047 -0.1289,2.73438 1.1055,3.35938 l 7.1367,3.61328 c 1.2383,0.625 2.7383,0.13281 3.3633,-1.10156 0.6133,-1.23047 0.1328,-2.73438 -1.1016,-3.35938 z m -16.0585,-8.13281 -7.1368,-3.61328 c -1.2382,-0.6211 -2.7382,-0.12891 -3.3632,1.10156 -0.629,1.23438 -0.1329,2.73828 1.1015,3.35938 l 7.1406,3.61328 c 1.2188,0.625 2.7188,0.13281 3.3633,-1.09766 0.6094,-1.23437 0.1133,-2.73828 -1.1054,-3.36328 z m -16.0586,-8.12891 -7.1368,-3.61328 c -1.2382,-0.625 -2.7539,-0.1289 -3.3632,1.10156 -0.625,1.23047 -0.1329,2.73438 1.0898,3.35938 l 7.1523,3.61328 c 1.2227,0.625 2.7383,0.13281 3.3477,-1.10156 0.625,-1.23047 0.1328,-2.73438 -1.0898,-3.35938 z m -16.0704,-8.13281 -7.1406,-3.61328 c -1.2187,-0.62109 -2.7187,-0.12891 -3.3476,1.10156 -0.625,1.23438 -0.1289,2.73828 1.0898,3.35938 l 7.1367,3.61718 c 1.2383,0.6211 2.7539,0.12891 3.3633,-1.10156 0.6289,-1.23437 0.1328,-2.73828 -1.1016,-3.36328 z m -16.0585,-8.12891 -7.1368,-3.61328 c -1.2226,-0.625 -2.7226,-0.1289 -3.3632,1.10157 -0.6133,1.23046 -0.1172,2.73437 1.1015,3.35937 l 7.1406,3.61328 c 1.2344,0.625 2.7344,0.12891 3.3633,-1.10156 0.625,-1.23047 0.1289,-2.73438 -1.1054,-3.35938 z m -16.0586,-8.1289 -7.1368,-3.61719 c -1.2382,-0.625 -2.7382,-0.12891 -3.3632,1.10156 -0.6094,1.23438 -0.1329,2.73828 1.1211,3.35938 l 7.121,3.61719 c 1.2383,0.62109 2.7383,0.1289 3.3633,-1.10157 0.625,-1.23437 0.1328,-2.73828 -1.1054,-3.35937 z m -16.0547,-8.13281 -7.1407,-3.61329 c -1.2343,-0.625 -2.7343,-0.13281 -3.3437,1.10157 -0.6445,1.23047 -0.1484,2.73437 1.0859,3.35937 l 7.1368,3.61328 c 1.2382,0.625 2.7382,0.12891 3.3632,-1.10156 0.6289,-1.23047 0.1328,-2.73437 -1.1015,-3.35937 z m -16.0586,-8.12891 -7.1367,-3.61719 c -1.2383,-0.62109 -2.7383,-0.1289 -3.3633,1.10156 -0.6289,1.23438 -0.1172,2.73829 1.1015,3.35938 l 7.1407,3.61719 c 1.2343,0.62109 2.7343,0.1289 3.3632,-1.10157 0.625,-1.23437 0.1329,-2.73437 -1.1054,-3.35937 z m -16.0586,-8.13281 -7.1367,-3.61328 c -1.2188,-0.625 -2.7383,-0.12891 -3.3633,1.09765 -0.625,1.23438 -0.1328,2.73828 1.1055,3.36328 l 7.1367,3.61328 c 1.2383,0.625 2.7383,0.12891 3.3633,-1.10156 0.6289,-1.23047 0.1328,-2.73437 -1.1055,-3.35937 z m -16.0547,-8.12891 -7.1406,-3.61719 c -1.2344,-0.62109 -2.7344,-0.1289 -3.3633,1.10157 -0.6094,1.23437 -0.1289,2.73828 1.1055,3.36328 l 7.1406,3.61328 c 1.2344,0.62109 2.7344,0.1289 3.3633,-1.10156 0.6093,-1.23438 0.1289,-2.73829 -1.1055,-3.35938 z m -16.0586,-8.13281 -7.1367,-3.61328 c -1.2383,-0.625 -2.7383,-0.13282 -3.3633,1.10156 -0.6289,1.23047 -0.1328,2.73437 1.1055,3.35937 l 7.1367,3.61329 c 1.2187,0.625 2.7187,0.1289 3.3633,-1.10157 0.6093,-1.23047 0.1133,-2.73437 -1.1055,-3.35937 z m -16.0586,-8.12891 -7.1367,-3.61328 c -1.2344,-0.625 -2.7383,-0.13281 -3.3633,1.09766 -0.625,1.23047 -0.1328,2.73828 1.1055,3.35937 l 7.1367,3.61328 c 1.2227,0.625 2.7383,0.13282 3.3477,-1.09765 0.625,-1.23438 0.1328,-2.73828 -1.0899,-3.35938 z m -16.0547,-8.13281 -7.1562,-3.61328 c -1.2188,-0.625 -2.7188,-0.13281 -3.3477,1.10156 -0.625,1.23047 -0.1289,2.73438 1.0899,3.35938 l 7.1367,3.61328 c 1.2383,0.625 2.7539,0.13281 3.3633,-1.10157 0.6289,-1.23046 0.1328,-2.73437 -1.086,-3.35937 z m -16.0742,-8.12891 -1.8789,-0.95703 c -1.2383,-0.62109 -2.7383,-0.1289 -3.3477,1.10156 -0.6406,1.23047 -0.1328,2.73438 1.0899,3.35938 l 1.8789,0.95312 c 1.2344,0.625 2.7344,0.13282 3.3633,-1.10156 0.625,-1.23047 0.1328,-2.73437 -1.1055,-3.35547"
       id="path138" />
    <path
       style="fill:#28388c;fill-opacity:1;fill-rule:nonzero;stroke:none"
       d="m 1608.6836,1428.8203 7.7617,1.9297 c 1.3438,0.3398 2.7031,-0.4805 3.0391,-1.8203 0.3242,-1.3399 -0.4883,-2.6875 -1.8203,-3.0313 l -7.7618,-1.9375 c -1.3437,-0.332 -2.7031,0.4883 -3.0273,1.8282 -0.3477,1.332 0.4766,2.6914 1.8086,3.0312 z m 17.4687,4.3594 7.7618,1.9297 c 1.332,0.3398 2.6914,-0.4805 3.0273,-1.8203 0.3359,-1.3399 -0.4766,-2.6875 -1.8242,-3.0313 l -7.7578,-1.9375 c -1.3321,-0.332 -2.7071,0.4805 -3.0274,1.8203 -0.3359,1.3399 0.4766,2.6992 1.8203,3.0391 z m 17.4571,4.3516 7.7734,1.9375 c 1.332,0.3398 2.6914,-0.4805 3.0274,-1.8204 0.3359,-1.3398 -0.4766,-2.6992 -1.8204,-3.0273 l -7.7617,-1.9414 c -1.332,-0.3281 -2.6914,0.4805 -3.0429,1.8203 -0.3204,1.3398 0.4921,2.6992 1.8242,3.0313 z m 17.4687,4.3593 7.7617,1.9375 c 1.3438,0.3438 2.7032,-0.4804 3.0235,-1.8164 0.3515,-1.3437 -0.4766,-2.6992 -1.8047,-3.0312 l -7.7617,-1.9414 c -1.3438,-0.3282 -2.7031,0.4804 -3.0391,1.8203 -0.3359,1.3398 0.4883,2.6992 1.8203,3.0312 z m 17.4688,4.3594 7.7617,1.9414 c 1.3281,0.3281 2.6875,-0.4805 3.0391,-1.8203 0.3203,-1.3398 -0.4922,-2.6992 -1.8204,-3.0313 l -7.7773,-1.9414 c -1.3437,-0.3281 -2.6875,0.4805 -3.0234,1.8204 -0.336,1.3398 0.4765,2.7031 1.8203,3.0312 z m 17.4687,4.3594 7.7617,1.9414 c 1.3282,0.3281 2.6875,-0.4805 3.0235,-1.8203 0.3242,-1.3399 -0.4766,-2.6992 -1.8203,-3.0313 l -7.7617,-1.9414 c -1.3438,-0.3281 -2.7032,0.4805 -3.0235,1.8242 -0.3515,1.336 0.4766,2.6993 1.8203,3.0274 z m 17.4532,4.3594 7.7617,1.9414 c 1.3476,0.3281 2.7031,-0.4805 3.0273,-1.8204 0.336,-1.3398 -0.4765,-2.6992 -1.8203,-3.0312 l -7.7617,-1.9375 c -1.332,-0.332 -2.6914,0.4805 -3.0274,1.8203 -0.3203,1.3399 0.4766,2.6992 1.8204,3.0274 z m 17.4726,4.3593 7.7578,1.9414 c 1.3477,0.3321 2.6914,-0.4804 3.0274,-1.8203 0.3359,-1.3398 -0.4766,-2.6992 -1.8203,-3.0312 l -7.7618,-1.9375 c -1.332,-0.3399 -2.6914,0.4804 -3.0273,1.8203 -0.3359,1.3398 0.4766,2.6992 1.8242,3.0273 z m 17.4531,4.3633 7.7618,1.9375 c 1.3437,0.332 2.7031,-0.4805 3.039,-1.8203 0.336,-1.3398 -0.4883,-2.6992 -1.8203,-3.0273 l -7.7617,-1.9415 c -1.3438,-0.3398 -2.7031,0.4805 -3.0274,1.8204 -0.3359,1.3398 0.4766,2.6914 1.8086,3.0312 z m 17.4688,4.3594 7.7617,1.9375 c 1.3438,0.332 2.6914,-0.4805 3.0391,-1.8164 0.3242,-1.3438 -0.4883,-2.7031 -1.8203,-3.043 l -7.7735,-1.9297 c -1.332,-0.3398 -2.6914,0.4805 -3.0273,1.8203 -0.336,1.3399 0.4765,2.6914 1.8203,3.0313 z m 17.4687,4.3594 7.7618,1.9296 c 1.332,0.3399 2.7031,-0.4804 3.0273,-1.8203 0.3359,-1.332 -0.4766,-2.6875 -1.8242,-3.0312 l -7.7578,-1.9297 c -1.3321,-0.3398 -2.7032,0.4805 -3.0274,1.8203 -0.3359,1.3399 0.4766,2.6914 1.8203,3.0313 z m 17.4571,4.3593 7.7617,1.9297 c 1.3437,0.3399 2.7031,-0.4804 3.039,-1.8203 0.336,-1.3398 -0.4921,-2.6875 -1.8203,-3.0273 l -7.7617,-1.9336 c -1.3476,-0.336 -2.6914,0.4804 -3.039,1.8242 -0.3243,1.3359 0.4882,2.6875 1.8203,3.0273 z m 17.4687,4.3594 7.7617,1.9297 c 1.3438,0.3398 2.7032,-0.4805 3.0235,-1.8203 0.3359,-1.3399 -0.4766,-2.6875 -1.8047,-3.0274 l -7.7617,-1.9414 c -1.3438,-0.3281 -2.7032,0.4883 -3.0391,1.8203 -0.3359,1.3399 0.4883,2.6993 1.8203,3.0391 z m 17.4688,4.3594 7.7617,1.9336 c 1.3281,0.3359 2.6875,-0.4805 3.0234,-1.8203 0.336,-1.3438 -0.4765,-2.6914 -1.8203,-3.0313 l -7.7617,-1.9414 c -1.3438,-0.3281 -2.7031,0.4805 -3.0234,1.8203 -0.336,1.3399 0.4765,2.7031 1.8203,3.0391 z m 17.4531,4.3515 7.7773,1.9415 c 1.3321,0.3398 2.6875,-0.4805 3.0235,-1.8204 0.3242,-1.3398 -0.4727,-2.6992 -1.8203,-3.0312 l -7.7618,-1.9414 c -1.3437,-0.3281 -2.7031,0.4805 -3.039,1.8242 -0.336,1.3359 0.4922,2.6992 1.8203,3.0273 z m 17.4726,4.3594 7.7579,1.9414 c 1.3476,0.3399 2.7031,-0.4804 3.0273,-1.8203 0.3516,-1.3398 -0.4766,-2.6992 -1.8203,-3.0312 l -7.7617,-1.9375 c -1.3321,-0.3321 -2.6914,0.4765 -3.0274,1.8203 -0.3359,1.3359 0.4766,2.6992 1.8242,3.0273 z m 17.4532,4.3594 7.7734,1.9414 c 1.332,0.3281 2.6914,-0.4805 3.0274,-1.8203 0.3359,-1.3399 -0.4766,-2.6992 -1.8204,-3.0313 l -7.7617,-1.9375 c -1.3437,-0.332 -2.6914,0.4766 -3.039,1.8204 -0.3243,1.3398 0.4882,2.6992 1.8203,3.0273 z m 17.4687,4.3594 7.7617,1.9414 c 1.3438,0.332 2.7032,-0.4805 3.0391,-1.8203 0.3242,-1.3399 -0.4883,-2.6993 -1.8203,-3.0274 l -7.7617,-1.9414 c -1.3438,-0.3281 -2.7032,0.4805 -3.0274,1.8203 -0.3476,1.3399 0.4766,2.6992 1.8086,3.0274 z m 17.4688,4.3633 7.7617,1.9375 c 1.332,0.332 2.6914,-0.4805 3.0273,-1.8204 0.336,-1.3398 -0.4765,-2.6992 -1.8242,-3.0273 l -7.7578,-1.9414 c -1.332,-0.3281 -2.6914,0.4805 -3.0273,1.8203 -0.336,1.3398 0.4765,2.6992 1.8203,3.0313 z m 17.4687,4.3593 7.7617,1.9414 c 1.3321,0.3282 2.6914,-0.4804 3.0274,-1.8242 0.3359,-1.3398 -0.4766,-2.6992 -1.8203,-3.0273 l -7.7617,-1.9414 c -1.3321,-0.3399 -2.7032,0.4804 -3.0274,1.8203 -0.3359,1.3398 0.4766,2.6992 1.8203,3.0312 z m 17.4571,4.3594 7.7617,1.9414 c 1.3437,0.3281 2.7031,-0.4805 3.0234,-1.8203 0.3516,-1.3398 -0.4766,-2.7031 -1.8203,-3.0313 l -7.7461,-1.9414 c -1.3437,-0.3359 -2.7031,0.4805 -3.0391,1.8204 -0.3242,1.3398 0.4883,2.6914 1.8204,3.0312 z m 17.4687,4.3594 7.7617,1.9414 c 1.3438,0.3281 2.6875,-0.4805 3.0235,-1.8203 0.3359,-1.3399 -0.4766,-2.6992 -1.8047,-3.0391 l -7.7774,-1.9336 c -1.3281,-0.3359 -2.6875,0.4805 -3.0234,1.8242 -0.3359,1.336 0.4766,2.6875 1.8203,3.0274 z m 17.4688,4.3594 7.7617,1.9335 c 1.3281,0.336 2.6875,-0.4804 3.0234,-1.8242 0.3359,-1.3398 -0.4766,-2.6875 -1.8203,-3.0273 l -7.7617,-1.9297 c -1.3438,-0.3398 -2.7031,0.4766 -3.0235,1.8203 -0.3515,1.3399 0.4766,2.6875 1.8204,3.0274 z m 17.4531,4.3593 7.7617,1.9336 c 1.3477,0.3399 2.7031,-0.4804 3.0391,-1.8203 0.3242,-1.3398 -0.4883,-2.6914 -1.8204,-3.0312 l -7.7734,-1.9297 c -1.332,-0.3399 -2.6914,0.4804 -3.0273,1.8203 -0.3203,1.3398 0.4765,2.6875 1.8203,3.0273 z m 17.4726,4.3594 7.7578,1.9336 c 1.3477,0.3398 2.7071,-0.4805 3.0274,-1.8203 0.3359,-1.3399 -0.4766,-2.6914 -1.8203,-3.0313 l -7.7617,-1.9414 c -1.3321,-0.3281 -2.6914,0.4922 -3.0274,1.8203 -0.3359,1.3399 0.4766,2.7032 1.8242,3.0391 z m 17.4532,4.3516 7.7617,1.9414 c 1.3437,0.3398 2.7031,-0.4805 3.039,-1.8203 0.336,-1.3399 -0.4882,-2.6914 -1.8203,-3.0313 l -7.7617,-1.9414 c -1.3437,-0.3281 -2.7031,0.4805 -3.0391,1.8242 -0.3242,1.336 0.4883,2.6992 1.8204,3.0274 z m 17.4687,4.3593 7.7617,1.9414 c 1.3438,0.3399 2.6914,-0.4804 3.0391,-1.8203 0.3242,-1.3398 -0.4883,-2.6992 -1.8203,-3.0273 l -7.7617,-1.9414 c -1.3438,-0.332 -2.7032,0.4805 -3.0391,1.8203 -0.3359,1.3398 0.4883,2.6992 1.8203,3.0273 z m 17.4688,4.3594 7.7617,1.9414 c 1.332,0.3321 2.6914,-0.4804 3.0273,-1.8203 0.336,-1.3398 -0.4765,-2.6992 -1.8242,-3.0273 l -7.7578,-1.9414 c -1.332,-0.3282 -2.7031,0.4804 -3.0274,1.8203 -0.3359,1.3398 0.4766,2.6992 1.8204,3.0273 z m 17.457,4.3633 7.7734,1.9375 c 1.3321,0.332 2.6914,-0.4766 3.0274,-1.8203 0.3359,-1.336 -0.4766,-2.6992 -1.8203,-3.0274 l -7.7618,-1.9414 c -1.3476,-0.3281 -2.7031,0.4805 -3.039,1.8203 -0.3242,1.3399 0.4883,2.6993 1.8203,3.0313 z m 17.4687,4.3594 7.7618,1.9414 c 1.3437,0.3281 2.7031,-0.4805 3.0234,-1.8203 0.3359,-1.3399 -0.4766,-2.7032 -1.8047,-3.0313 l -7.7617,-1.9414 c -1.3438,-0.3281 -2.7031,0.4805 -3.0391,1.8203 -0.3359,1.3399 0.4883,2.6992 1.8203,3.0313 z m 17.4688,4.3593 7.7617,1.9415 c 1.3281,0.3281 2.6875,-0.4805 3.0234,-1.8204 0.336,-1.3398 -0.4765,-2.7031 -1.8203,-3.0312 l -7.7617,-1.9414 c -1.3437,-0.3281 -2.6875,0.4805 -3.0234,1.8203 -0.336,1.3398 0.4765,2.6992 1.8203,3.0312 z m 17.4687,4.3594 7.7618,1.9414 c 1.332,0.3282 2.6875,-0.4804 3.0234,-1.8203 0.3242,-1.3398 -0.4727,-2.6992 -1.8203,-3.0312 l -7.7617,-1.9414 c -1.3438,-0.336 -2.7032,0.4804 -3.0235,1.8242 -0.3515,1.3398 0.4766,2.6992 1.8203,3.0273 z m 17.4571,4.3594 7.7578,1.9414 c 1.3476,0.3281 2.7031,-0.4805 3.0273,-1.8203 0.336,-1.3399 -0.4765,-2.6992 -1.8203,-3.0274 l -7.7617,-1.9414 c -1.332,-0.3398 -2.6914,0.4805 -3.0273,1.8204 -0.336,1.3398 0.4765,2.6875 1.8242,3.0273 z m 17.4531,4.3594 7.7734,1.9414 c 1.3477,0.332 2.6914,-0.4883 3.0274,-1.8203 0.3359,-1.3399 -0.4766,-2.6993 -1.8203,-3.0391 l -7.7618,-1.9297 c -1.332,-0.3398 -2.6914,0.4805 -3.039,1.8203 -0.3242,1.3399 0.4883,2.6875 1.8203,3.0274 z m 17.4687,4.3633 7.7618,1.9296 c 1.3437,0.3399 2.7031,-0.4804 3.039,-1.8203 0.336,-1.3398 -0.4883,-2.6914 -1.8203,-3.0312 l -7.7617,-1.9297 c -1.3438,-0.3399 -2.7031,0.4805 -3.0391,1.8203 -0.3359,1.3398 0.4883,2.6914 1.8203,3.0313 z m 17.4688,4.3593 7.7617,1.9297 c 1.332,0.3399 2.6914,-0.4805 3.0391,-1.8203 0.3242,-1.3398 -0.4883,-2.6914 -1.836,-3.0312 l -7.7578,-1.9297 c -1.3476,-0.3399 -2.6914,0.4804 -3.0273,1.8203 -0.336,1.332 0.4765,2.6914 1.8203,3.0312 z m 17.4687,4.3594 7.7618,1.9297 c 1.332,0.3398 2.6914,-0.4805 3.0273,-1.8203 0.3359,-1.3399 -0.4766,-2.6914 -1.8203,-3.0313 l -7.7617,-1.9375 c -1.3321,-0.332 -2.7031,0.4805 -3.0274,1.8203 -0.3359,1.3399 0.4766,2.6993 1.8203,3.0391 z m 17.4571,4.3516 7.7617,1.9375 c 1.3437,0.3398 2.7031,-0.4805 3.0234,-1.8203 0.3516,-1.3399 -0.4765,-2.6875 -1.8203,-3.0274 l -7.7461,-1.9414 c -1.3437,-0.332 -2.7031,0.4805 -3.039,1.8203 -0.3243,1.3399 0.4882,2.6992 1.8203,3.0313 z m 17.4687,4.3593 7.7617,1.9375 c 1.3438,0.3399 2.6875,-0.4804 3.0235,-1.8203 0.3359,-1.3398 -0.4766,-2.6992 -1.8047,-3.0273 l -7.7617,-1.9414 c -1.3438,-0.3281 -2.7031,0.4804 -3.0391,1.8203 -0.3359,1.3398 0.4883,2.6992 1.8203,3.0312"
       id="path140" />
    <path
       style="fill:#28388c;fill-opacity:1;fill-rule:nonzero;stroke:none"
       d="m 2049.7344,730.03516 3.0078,7.41015 c 0.5156,1.28125 1.9766,1.89453 3.2578,1.375 1.2695,-0.51953 1.8867,-1.97656 1.3711,-3.2539 l -3.0078,-7.41407 c -0.5156,-1.27734 -1.9766,-1.89453 -3.2578,-1.375 -1.2852,0.51953 -1.8867,1.98047 -1.3711,3.25782 z m 6.7656,16.67578 3.0078,7.41406 c 0.5313,1.27734 1.9922,1.89453 3.2617,1.37109 1.2813,-0.51562 1.9024,-1.97656 1.3711,-3.2539 l -3.0078,-7.41407 c -0.5156,-1.27734 -1.9609,-1.89453 -3.2461,-1.375 -1.2812,0.52344 -1.9023,1.97657 -1.3867,3.25782 z m 6.7852,16.67578 3.0078,7.41406 c 0.5156,1.27734 1.9765,1.89453 3.2422,1.375 1.2851,-0.51953 1.9023,-1.98047 1.3867,-3.25781 l -3.0078,-7.41016 c -0.5157,-1.28125 -1.9766,-1.89453 -3.2578,-1.3789 -1.2852,0.51953 -1.8868,1.98046 -1.3711,3.25781 z m 6.7656,16.67578 3.0078,7.41406 c 0.5312,1.27735 1.9922,1.89453 3.2617,1.375 1.2813,-0.51953 1.8867,-1.97656 1.3711,-3.25781 l -3.0078,-7.41016 c -0.5195,-1.28125 -1.9766,-1.89843 -3.2461,-1.375 -1.2812,0.51953 -1.9023,1.97657 -1.3867,3.25391 z m 6.7695,16.67969 3.0235,7.41015 c 0.5156,1.27735 1.9726,1.89453 3.2421,1.375 1.2852,-0.51953 1.9024,-1.97656 1.3868,-3.25781 l -3.0079,-7.41016 c -0.5156,-1.28125 -1.9765,-1.89453 -3.2578,-1.375 -1.2851,0.51954 -1.8867,1.97657 -1.3867,3.25782 z m 6.7813,16.67578 3.0078,7.41015 c 0.5156,1.27735 1.9765,1.89454 3.2578,1.375 1.2851,-0.51953 1.8906,-1.97656 1.375,-3.25781 l -3.0117,-7.41015 c -0.5157,-1.28125 -1.9727,-1.89454 -3.2422,-1.375 -1.2813,0.51953 -1.9024,1.97656 -1.3867,3.25781 z m 6.7695,16.67578 3.0234,7.41016 c 0.5157,1.28125 1.9727,1.89453 3.2422,1.375 1.2813,-0.51954 1.9024,-1.97657 1.3867,-3.25782 l -3.0078,-7.41015 c -0.5156,-1.27735 -1.9765,-1.89453 -3.2578,-1.375 -1.2851,0.51953 -1.9023,1.97656 -1.3867,3.25781 z m 6.7812,16.67578 3.0079,7.41016 c 0.5156,1.28125 1.9765,1.89843 3.2578,1.3789 1.2851,-0.52343 1.8906,-1.98047 1.3711,-3.25781 l -3.0078,-7.41406 c -0.5157,-1.27735 -1.9727,-1.89453 -3.2579,-1.375 -1.2656,0.51953 -1.8867,1.98047 -1.3711,3.25781 z m 6.7696,16.67578 3.0078,7.41406 c 0.5312,1.27735 1.9883,1.89454 3.2578,1.3711 1.2813,-0.51563 1.9023,-1.97656 1.3867,-3.25391 l -3.0078,-7.41406 c -0.5156,-1.27734 -1.9766,-1.89453 -3.2578,-1.375 -1.2852,0.52344 -1.9023,1.98047 -1.3867,3.25781 z m 6.7812,16.67578 3.0078,7.41016 c 0.5157,1.28125 1.9766,1.89844 3.2579,1.37891 1.2851,-0.51954 1.8867,-1.98047 1.371,-3.25782 l -3.0078,-7.41015 c -0.5156,-1.28125 -1.9726,-1.89453 -3.2578,-1.37891 -1.2812,0.51953 -1.8867,1.98047 -1.3711,3.25781 z m 6.7696,16.67578 3.0078,7.41407 c 0.5312,1.27734 1.9883,1.89453 3.2578,1.375 1.2812,-0.51953 1.9023,-1.97657 1.3867,-3.25782 l -3.0078,-7.41015 c -0.5156,-1.28125 -1.9766,-1.89844 -3.2617,-1.375 -1.2813,0.51953 -1.8985,1.97656 -1.3828,3.2539 z m 6.7812,16.67969 3.0078,7.41016 c 0.5156,1.27734 1.9766,1.89453 3.2578,1.375 1.2852,-0.51953 1.8868,-1.97656 1.3711,-3.25781 l -3.0078,-7.41016 c -0.5156,-1.28125 -1.9765,-1.89453 -3.2578,-1.375 -1.2812,0.51953 -1.8867,1.97656 -1.3711,3.25781 z m 6.7695,16.67578 3.0079,7.41016 c 0.5273,1.28125 1.9882,1.89453 3.2578,1.375 1.2812,-0.51953 1.9023,-1.97656 1.3867,-3.25391 l -3.0078,-7.41406 c -0.5196,-1.28125 -1.9922,-1.89453 -3.2617,-1.375 -1.2813,0.51953 -1.9024,1.97656 -1.3829,3.25781 z m 6.7813,16.67578 3.0078,7.41016 c 0.5156,1.28125 1.9766,1.89453 3.2578,1.375 1.2695,-0.51953 1.8867,-1.97656 1.3711,-3.25781 l -3.0078,-7.41016 c -0.5156,-1.27734 -1.9766,-1.89453 -3.2578,-1.375 -1.2813,0.51953 -1.8867,1.97656 -1.3711,3.25781 z m 6.7656,16.67579 3.0117,7.41015 c 0.5157,1.28125 1.9883,1.89453 3.2578,1.37891 1.2813,-0.51953 1.9024,-1.98047 1.3868,-3.25781 l -3.0235,-7.41407 c -0.5156,-1.27734 -1.9765,-1.89453 -3.2461,-1.375 -1.2812,0.51953 -1.9023,1.97657 -1.3867,3.25782 z m 6.7852,16.67578 3.0078,7.41406 c 0.5156,1.27734 1.9765,1.89453 3.2578,1.375 1.2695,-0.51953 1.8867,-1.98047 1.3711,-3.25781 l -3.0078,-7.41016 c -0.5156,-1.28125 -1.9766,-1.89844 -3.2578,-1.37891 -1.2852,0.52344 -1.8868,1.98047 -1.3711,3.25782 z m 6.7656,16.67578 3.0078,7.41793 c 0.5195,1.2774 1.9766,1.8907 3.2617,1.3672 1.2813,-0.5195 1.8867,-1.9804 1.3828,-3.2578 l -3.0195,-7.40624 c -0.5156,-1.28125 -1.9766,-1.89453 -3.2461,-1.375 -1.2812,0.51563 -1.9023,1.97656 -1.3867,3.25391 z m 6.7852,16.67573 3.0078,7.4102 c 0.5156,1.2813 1.9765,1.8984 3.2422,1.3828 1.2851,-0.5234 1.9023,-1.9805 1.3867,-3.2617 l -3.0078,-7.4102 c -0.5157,-1.2812 -1.9766,-1.8984 -3.2579,-1.3789 -1.2851,0.5196 -1.8867,1.9766 -1.371,3.2578 z m 6.7656,16.6797 3.0078,7.4102 c 0.5156,1.2812 1.9766,1.8906 3.2617,1.3711 1.2813,-0.5195 1.8867,-1.9688 1.3711,-3.25 l -3.0078,-7.4102 c -0.5195,-1.2812 -1.9766,-1.8984 -3.2461,-1.3789 -1.2813,0.5196 -1.9023,1.9805 -1.3867,3.2578 z m 6.7851,16.6719 3.0078,7.418 c 0.5157,1.2695 1.9766,1.8906 3.2422,1.3711 1.2852,-0.5196 1.9024,-1.9805 1.3868,-3.2578 L 2183.0859,1045 c -0.5156,-1.2773 -1.9765,-1.8906 -3.2578,-1.3672 -1.2851,0.5195 -1.8867,1.9688 -1.3711,3.25 z m 6.7657,16.6797 3.0078,7.4102 c 0.5156,1.2773 1.9765,1.8984 3.2578,1.3789 1.2851,-0.5196 1.8906,-1.9805 1.375,-3.2618 l -3.0117,-7.4062 c -0.5157,-1.2813 -1.9727,-1.9023 -3.2422,-1.3828 -1.2813,0.5234 -1.9024,1.9805 -1.3867,3.2617 z m 6.7851,16.6797 3.0078,7.4101 c 0.5157,1.2813 1.9727,1.8907 3.2422,1.3711 1.2813,-0.5234 1.9024,-1.9726 1.3867,-3.25 l -3.0078,-7.4218 c -0.5156,-1.2696 -1.9765,-1.8907 -3.2578,-1.3711 -1.2851,0.5234 -1.8906,1.9804 -1.3711,3.2617 z m 6.7656,16.668 3.0079,7.4101 c 0.5156,1.2813 1.9765,1.9024 3.2578,1.3828 1.2851,-0.5195 1.8906,-1.9804 1.3711,-3.2617 l -3.0079,-7.4101 c -0.5156,-1.2774 -1.9726,-1.8907 -3.2421,-1.3672 -1.2813,0.5156 -1.9024,1.9687 -1.3868,3.2461 z m 6.7696,16.6796 3.0234,7.4141 c 0.5156,1.2774 1.9609,1.8984 3.2422,1.3789 1.2812,-0.5195 1.9023,-1.9805 1.3867,-3.2617 l -3.0078,-7.4102 c -0.5312,-1.2812 -1.9922,-1.8984 -3.2578,-1.3789 -1.2852,0.5196 -1.9024,1.9805 -1.3867,3.2578 z m 6.7812,16.6836 3.0078,7.4063 c 0.5157,1.2812 1.9766,1.8906 3.2578,1.3711 1.2852,-0.5195 1.8868,-1.9766 1.3711,-3.25 l -3.0078,-7.418 c -0.5156,-1.2812 -1.9726,-1.8906 -3.2578,-1.3711 -1.2656,0.5196 -1.8867,1.9805 -1.3711,3.2617 z m 6.7696,16.668 3.0078,7.4102 c 0.5156,1.2812 1.9726,1.9023 3.2578,1.3789 1.2812,-0.5196 1.9023,-1.9805 1.3867,-3.2578 l -3.0078,-7.4102 c -0.5313,-1.2812 -1.9922,-1.8906 -3.2617,-1.3789 -1.2813,0.5195 -1.8985,1.9766 -1.3828,3.2578 z m 6.7812,16.6797 3.0078,7.4102 c 0.5156,1.2812 1.9766,1.9023 3.2578,1.3789 1.2852,-0.5196 1.8867,-1.9805 1.3711,-3.2579 l -3.0078,-7.4101 c -0.5156,-1.2813 -1.9766,-1.9024 -3.2578,-1.3789 -1.2813,0.5195 -1.8867,1.9805 -1.3711,3.2578 z m 6.7695,16.6797 3.0078,7.4101 c 0.5157,1.2813 1.9727,1.8907 3.2579,1.3711 1.2812,-0.5195 1.9023,-1.9804 1.3867,-3.2617 l -3.0078,-7.4062 c -0.5313,-1.2813 -1.9922,-1.8907 -3.2618,-1.3711 -1.2812,0.5195 -1.9023,1.9765 -1.3828,3.2578 z m 6.7813,16.6719 3.0078,7.4101 c 0.5156,1.2813 1.9766,1.8985 3.2578,1.3789 1.2852,-0.5195 1.8867,-1.9804 1.3711,-3.2617 l -3.0078,-7.4062 c -0.5156,-1.2813 -1.9766,-1.9024 -3.2578,-1.3829 -1.2813,0.5196 -1.8867,1.9805 -1.3711,3.2618 z m 6.7656,16.6796 3.0117,7.4102 c 0.5157,1.2773 1.9727,1.8906 3.2578,1.3672 1.2813,-0.5078 1.9024,-1.9688 1.3868,-3.2461 l -3.0079,-7.4141 c -0.5312,-1.2773 -1.9921,-1.8984 -3.2617,-1.3789 -1.2812,0.5196 -1.9023,1.9805 -1.3867,3.2617 z m 6.7852,16.668 3.0078,7.4219 c 0.5156,1.2773 1.9765,1.8906 3.2578,1.3672 1.2695,-0.5156 1.8867,-1.9766 1.3711,-3.2578 l -3.0078,-7.4102 c -0.5157,-1.2812 -1.9766,-1.8906 -3.2578,-1.3711 -1.2852,0.5195 -1.8868,1.9805 -1.3711,3.25 z m 6.7656,16.6797 3.0078,7.4102 c 0.5195,1.2812 1.9766,1.9023 3.2617,1.3828 1.2813,-0.5235 1.9024,-1.9805 1.3828,-3.2617 l -3.0195,-7.4102 c -0.5156,-1.2813 -1.9766,-1.8984 -3.2461,-1.3789 -1.2812,0.5195 -1.9023,1.9805 -1.3867,3.2578 z m 6.7851,16.6836 3.0079,7.4062 c 0.5156,1.2813 1.9765,1.8907 3.2578,1.3711 1.2695,-0.5195 1.8867,-1.9687 1.3711,-3.25 l -3.0078,-7.4101 c -0.5313,-1.2774 -1.9922,-1.8985 -3.2579,-1.3789 -1.2851,0.5195 -1.9023,1.9804 -1.3711,3.2617 z m 6.7657,16.668 3.0078,7.4218 c 0.5156,1.2696 1.9765,1.8868 3.2617,1.3672 1.2813,-0.5195 1.8867,-1.9804 1.3828,-3.2578 l -3.0195,-7.4101 c -0.5195,-1.2813 -1.9766,-1.8907 -3.2617,-1.3711 -1.2657,0.5195 -1.8868,1.9687 -1.3711,3.25 z m 6.7851,16.6797 3.0078,7.4101 c 0.5157,1.2774 1.9766,1.8984 3.2422,1.3789 1.2852,-0.5195 1.9024,-1.9805 1.3867,-3.2578 l -3.0078,-7.4102 c -0.5312,-1.2812 -1.9922,-1.9023 -3.2578,-1.3828 -1.2851,0.5235 -1.9023,1.9805 -1.3711,3.2618 z m 6.7657,16.6796 3.0078,7.4102 c 0.5156,1.2812 1.9765,1.8906 3.2578,1.3711 1.2851,-0.5195 1.8906,-1.9727 1.375,-3.25 l -3.0078,-7.4219 c -0.5196,-1.2695 -1.9766,-1.8867 -3.2618,-1.3711 -1.2656,0.5235 -1.8867,1.9805 -1.371,3.2617 z m 6.7851,16.6719 3.0078,7.4063 c 0.5156,1.2812 1.961,1.9023 3.2422,1.3828 1.2813,-0.5196 1.9024,-1.9805 1.3867,-3.2617 l -3.0078,-7.4102 c -0.5312,-1.2773 -1.9922,-1.8906 -3.2578,-1.3672 -1.2852,0.5195 -1.9023,1.9688 -1.3711,3.25 z m 6.7656,16.6797 3.0078,7.4102 c 0.5157,1.2773 1.9766,1.8984 3.2579,1.3789 1.2851,-0.5196 1.8906,-1.9805 1.3711,-3.2618 l -3.0079,-7.4101 c -0.5156,-1.2774 -1.9726,-1.8984 -3.2578,-1.3789 -1.2656,0.5195 -1.8867,1.9805 -1.3711,3.2617 z m 6.7852,16.6797 3.0078,7.4101 c 0.5156,1.2774 1.9609,1.8868 3.2422,1.3672 1.2812,-0.5195 1.9023,-1.9765 1.3867,-3.25 l -3.0078,-7.4179 c -0.5313,-1.2813 -1.9922,-1.8907 -3.2578,-1.3711 -1.2852,0.5195 -1.9024,1.9804 -1.3711,3.2617 z m 6.7656,16.668 3.0078,7.4101 c 0.5157,1.2813 1.9766,1.8985 3.2578,1.3828 1.2852,-0.5234 1.8868,-1.9804 1.3711,-3.2617 l -3.0078,-7.4101 c -0.5156,-1.2813 -1.9726,-1.8907 -3.2578,-1.379 -1.2656,0.5196 -1.8867,1.9766 -1.3711,3.2579 z m 6.7695,16.6796 3.0196,7.4102 c 0.5195,1.2813 1.9648,1.9023 3.2461,1.3789 1.2812,-0.5195 1.9023,-1.9805 1.3867,-3.2578 l -3.0078,-7.4102 c -0.5313,-1.2812 -1.9922,-1.8984 -3.2617,-1.3789 -1.2813,0.5196 -1.8985,1.9805 -1.3829,3.2578 z m 6.7813,16.6719 3.0078,7.418 c 0.5156,1.2812 1.9766,1.8906 3.2578,1.3711 1.2852,-0.5195 1.8867,-1.9805 1.3711,-3.2617 l -3.0078,-7.4063 c -0.5312,-1.2812 -1.9883,-1.8906 -3.2578,-1.3711 -1.2695,0.5196 -1.9024,1.9805 -1.3711,3.25 z m 6.7695,16.6797 3.0078,7.4102 c 0.5157,1.2812 1.9727,1.8984 3.2579,1.3789 1.2812,-0.5196 1.9023,-1.9805 1.3867,-3.2617 l -3.0078,-7.4063 c -0.5313,-1.2812 -1.9922,-1.9023 -3.2735,-1.3828 -1.2695,0.5234 -1.8906,1.9805 -1.3711,3.2617 z m 6.7813,16.6797 3.0078,7.4102 c 0.5156,1.2812 1.9766,1.8906 3.2578,1.371 1.2852,-0.5234 1.8867,-1.9726 1.3711,-3.25 l -3.0078,-7.4101 c -0.5313,-1.2813 -1.9883,-1.9024 -3.2578,-1.3828 -1.2813,0.5195 -1.9024,1.9804 -1.3711,3.2617 z m 6.7695,16.668 3.0078,7.4218 c 0.5156,1.2696 1.9727,1.8907 3.2578,1.3711 1.2813,-0.5195 1.9024,-1.9804 1.3868,-3.2617 l -3.0079,-7.4101 c -0.5312,-1.2774 -1.9921,-1.8907 -3.2734,-1.3711 -1.2695,0.5234 -1.8906,1.9726 -1.3711,3.25 z m 6.7813,16.6797 3.0078,7.4101 c 0.5156,1.2813 1.9765,1.9024 3.2578,1.3828 1.2812,-0.5195 1.8867,-1.9804 1.3711,-3.2617 l -3.0078,-7.4102 c -0.5313,-1.2812 -1.9883,-1.8984 -3.2578,-1.3789 -1.2813,0.5196 -1.9024,1.9805 -1.3711,3.2579 z m 6.7656,16.6835 3.0078,7.4063 c 0.5195,1.2812 1.9766,1.8906 3.2617,1.3711 1.2813,-0.5195 1.9024,-1.9688 1.3828,-3.25 l -3.0078,-7.418 c -0.5273,-1.2695 -1.9883,-1.8906 -3.2734,-1.3711 -1.2656,0.5196 -1.8867,1.9805 -1.3711,3.2617 z m 6.7851,16.668 3.0079,7.4102 c 0.5156,1.2812 1.9765,1.9023 3.2578,1.3789 1.2695,-0.5196 1.8867,-1.9805 1.3711,-3.2578 l -3.0079,-7.4102 c -0.5312,-1.2812 -1.9921,-1.8906 -3.2578,-1.3711 -1.2851,0.5195 -1.9023,1.9688 -1.3711,3.25 z m 6.7657,16.6797 3.0078,7.4102 c 0.5195,1.2812 1.9765,1.8984 3.2617,1.3789 1.2812,-0.5196 1.9023,-1.9766 1.3828,-3.2578 l -3.0195,-7.4102 c -0.5196,-1.2813 -1.9766,-1.9023 -3.2617,-1.3789 -1.2657,0.5195 -1.8868,1.9805 -1.3711,3.2578 z m 6.7851,16.6797 3.0078,7.4101 c 0.5157,1.2813 1.9766,1.8907 3.2578,1.3711 1.2696,-0.5195 1.8868,-1.9687 1.3711,-3.25 l -3.0078,-7.4218 c -0.5312,-1.2696 -1.9922,-1.8868 -3.2578,-1.3711 -1.2851,0.5234 -1.9023,1.9804 -1.3711,3.2617 z m 6.7656,16.6719 3.0079,7.4101 c 0.5156,1.2774 1.9765,1.8985 3.2617,1.3789 1.2812,-0.5195 1.8867,-1.9804 1.3711,-3.2617 l -3.0078,-7.4101 c -0.5313,-1.2774 -1.9766,-1.8868 -3.2618,-1.3672 -1.2656,0.5195 -1.9023,1.9687 -1.3711,3.25 z m 6.7852,16.6797 3.0078,7.4101 c 0.5156,1.2774 1.9727,1.8984 3.2422,1.3789 1.2813,-0.5195 1.9023,-1.9805 1.3867,-3.2617 l -3.0078,-7.4102 c -0.5312,-1.2773 -1.9922,-1.8984 -3.2578,-1.3789 -1.2852,0.5196 -1.9023,1.9805 -1.3711,3.2618"
       id="path142" />
    <path
       style="fill:#28388c;fill-opacity:1;fill-rule:nonzero;stroke:none"
       d="m 2457.3594,1595.5703 4.8359,-6.3711 c 0.836,-1.0976 0.625,-2.6679 -0.4805,-3.5 -1.1015,-0.8398 -2.6796,-0.6289 -3.5,0.4688 l -4.8359,6.3828 c -0.8398,1.0976 -0.625,2.6601 0.4766,3.5 1.1015,0.8281 2.664,0.6172 3.5039,-0.4805 z m 10.8867,-14.3398 4.8359,-6.3711 c 0.8203,-1.1016 0.625,-2.668 -0.4765,-3.5 -1.1016,-0.8399 -2.6836,-0.6211 -3.5196,0.4804 l -4.8203,6.3711 c -0.8398,1.0977 -0.625,2.668 0.4766,3.5 1.0859,0.8399 2.6641,0.6172 3.5039,-0.4804 z m 10.8711,-14.3321 4.8516,-6.3671 c 0.8398,-1.1016 0.6093,-2.6719 -0.4922,-3.5118 -1.1055,-0.8281 -2.6641,-0.6211 -3.4883,0.4805 l -4.8516,6.3711 c -0.8242,1.0977 -0.6094,2.668 0.4766,3.5078 1.1015,0.832 2.6797,0.6211 3.5039,-0.4805 z m 10.8867,-14.3398 4.8516,-6.3672 c 0.8242,-1.1016 0.6093,-2.6719 -0.4766,-3.5039 -1.1016,-0.8359 -2.6797,-0.6172 -3.5195,0.4805 l -4.836,6.3711 c -0.8398,1.1015 -0.6093,2.6718 0.4922,3.5 1.086,0.8398 2.6485,0.6211 3.4883,-0.4805 z m 10.8867,-14.3281 4.836,-6.3789 c 0.8398,-1.0938 0.625,-2.6602 -0.4766,-3.5 -1.1016,-0.8321 -2.6641,-0.6211 -3.5039,0.4804 l -4.8359,6.3672 c -0.836,1.1016 -0.625,2.6719 0.4765,3.5117 1.1055,0.8282 2.6641,0.6172 3.5039,-0.4804 z m 10.8867,-14.3399 4.836,-6.3711 c 0.8398,-1.1015 0.625,-2.6718 -0.4766,-3.5 -1.1015,-0.8398 -2.664,-0.6211 -3.5039,0.4805 l -4.8359,6.3711 c -0.836,1.0977 -0.6211,2.6602 0.4804,3.5 1.1016,0.8281 2.6641,0.6172 3.5,-0.4805 z m 10.8907,-14.3398 4.832,-6.3711 c 0.8398,-1.0977 0.625,-2.6602 -0.4766,-3.5 -1.1015,-0.8281 -2.6796,-0.6172 -3.5039,0.4805 l -4.832,6.3711 c -0.8398,1.0976 -0.625,2.6679 0.4766,3.5 1.1015,0.8398 2.664,0.621 3.5039,-0.4805 z m 10.8867,-14.332 4.8359,-6.3711 c 0.836,-1.0977 0.625,-2.668 -0.4804,-3.5079 -1.1016,-0.832 -2.6641,-0.621 -3.5196,0.4805 l -4.8164,6.3789 c -0.8398,1.1016 -0.625,2.6602 0.4766,3.5 1.1015,0.8321 2.664,0.6211 3.5039,-0.4804 z m 10.8711,-14.3399 4.8515,-6.3672 c 0.836,-1.1015 0.6055,-2.6719 -0.496,-3.5 -1.0821,-0.8437 -2.6641,-0.6211 -3.4844,0.4805 l -4.8516,6.3672 c -0.8242,1.1015 -0.6094,2.6719 0.4922,3.5 1.0859,0.8398 2.6641,0.6211 3.4883,-0.4805 z m 10.9023,-14.3281 4.836,-6.3711 c 0.8203,-1.0977 0.625,-2.6719 -0.4766,-3.5117 -1.1016,-0.8282 -2.6836,-0.6172 -3.5195,0.4804 l -4.8203,6.3711 c -0.8555,1.1016 -0.625,2.6719 0.4765,3.5118 1.1016,0.8281 2.6485,0.6171 3.5039,-0.4805 z m 10.8711,-14.3438 4.836,-6.3672 c 0.8398,-1.1015 0.625,-2.6679 -0.4766,-3.5 -1.1016,-0.8398 -2.6641,-0.621 -3.5039,0.4805 l -4.8359,6.3672 c -0.8204,1.1016 -0.625,2.6719 0.4765,3.5 1.1016,0.8438 2.6836,0.625 3.5039,-0.4805 z m 10.8867,-14.3281 4.8516,-6.3789 c 0.8242,-1.1016 0.6094,-2.6602 -0.4922,-3.5 -1.1015,-0.832 -2.664,-0.6211 -3.4883,0.4805 l -4.8515,6.3711 c -0.836,1.0976 -0.6055,2.6679 0.4765,3.5078 1.1016,0.832 2.6641,0.6211 3.5039,-0.4805 z m 10.8868,-14.3398 4.8359,-6.3672 c 0.8398,-1.1016 0.625,-2.6719 -0.4766,-3.5 -1.1015,-0.8399 -2.664,-0.6211 -3.5039,0.4765 l -4.8359,6.3711 c -0.8359,1.1016 -0.625,2.6602 0.4805,3.5 1.1015,0.8321 2.664,0.6211 3.5,-0.4804 z m 10.8906,-14.3399 4.832,-6.3711 c 0.8399,-1.0976 0.625,-2.6601 -0.4765,-3.5 -1.1016,-0.8281 -2.6641,-0.6172 -3.504,0.4805 l -4.832,6.3711 c -0.8398,1.1016 -0.625,2.6719 0.4766,3.5 1.1015,0.8398 2.664,0.6211 3.5039,-0.4805 z m 10.8867,-14.3281 4.832,-6.3711 c 0.8399,-1.1016 0.6094,-2.668 -0.4765,-3.5117 -1.1016,-0.8281 -2.6641,-0.6172 -3.5,0.4805 l -4.836,6.3828 c -0.8398,1.0898 -0.625,2.6562 0.4766,3.4961 1.1016,0.832 2.6641,0.6211 3.5039,-0.4766 z m 10.8867,-14.3398 4.836,-6.3711 c 0.8203,-1.1016 0.625,-2.6719 -0.4766,-3.5 -1.1055,-0.8399 -2.6836,-0.6211 -3.5039,0.4804 l -4.8359,6.3711 c -0.8399,1.0977 -0.625,2.668 0.4765,3.5 1.1016,0.8399 2.6641,0.6172 3.5039,-0.4804 z m 10.8867,-14.3321 4.8204,-6.3672 c 0.8554,-1.1015 0.625,-2.6718 -0.4766,-3.5117 -1.1055,-0.8281 -2.6484,-0.6211 -3.4883,0.4805 l -4.8516,6.3672 c -0.8242,1.1015 -0.6093,2.6718 0.4766,3.5117 1.1016,0.8281 2.6797,0.6211 3.5195,-0.4805 z m 10.8711,-14.3398 4.8516,-6.3711 c 0.8242,-1.0977 0.6094,-2.668 -0.4922,-3.5 -1.0859,-0.8399 -2.6641,-0.6172 -3.4883,0.4805 l -4.8515,6.371 c -0.8399,1.1016 -0.6094,2.668 0.4922,3.5 1.0859,0.8399 2.664,0.6211 3.4882,-0.4804 z m 10.9024,-14.3281 4.8203,-6.3829 c 0.8398,-1.0976 0.625,-2.6601 -0.4766,-3.5 -1.1015,-0.8281 -2.664,-0.6171 -3.5039,0.4805 l -4.8359,6.3711 c -0.836,1.1016 -0.625,2.668 0.4765,3.5117 1.1016,0.8281 2.6641,0.6172 3.5196,-0.4804 z m 10.8711,-14.3399 4.8359,-6.3711 c 0.8399,-1.1015 0.625,-2.6719 -0.4766,-3.5 -1.1015,-0.8398 -2.664,-0.6211 -3.5039,0.4688 l -4.8359,6.3828 c -0.8359,1.0976 -0.625,2.6562 0.4805,3.5 1.1015,0.8281 2.6797,0.6172 3.5,-0.4805 z m 10.8906,-14.3398 4.832,-6.3711 c 0.8399,-1.1016 0.625,-2.6719 -0.4765,-3.5 -1.1016,-0.8321 -2.6641,-0.6211 -3.5039,0.4804 l -4.8321,6.3672 c -0.8398,1.1016 -0.625,2.6719 0.4766,3.5 1.1016,0.8399 2.6641,0.6211 3.5039,-0.4765"
       id="path144" />
    <path
       style="fill:#28388c;fill-opacity:1;fill-rule:nonzero;stroke:none"
       d="m 2572.4453,197.22266 -162.0703,359.57421 6.3945,2.87891 162.0547,-359.57812"
       id="path146" />
    <path
       style="fill:#28388c;fill-opacity:1;fill-rule:nonzero;stroke:none"
       d="M 1602.9375,1425.5391 1838.1172,1336 l 839.7226,108.5391 0.8868,-6.9375 -841.4649,-108.7696 -236.8164,90.1563 2.4922,6.5508"
       id="path148" />
    <path
       style="fill:#3f4599;fill-opacity:1;fill-rule:nonzero;stroke:none"
       d="m 2683.9063,289.54687 -3.7383,-3.01171 -1.3516,-1.16016 0.3945,-0.44141 0.066,0.0469 3.6055,-4.14063 1.4492,-1.6289 -0.4257,10.33593"
       id="path150" />
    <path
       style="fill:#3d4294;fill-opacity:1;fill-rule:nonzero;stroke:none"
       d="m 2680.1758,286.53125 -1.3985,-1.11328 0.051,-0.0469 1.3477,1.16016"
       id="path152" />
    <path
       style="fill:#28388c;fill-opacity:1;fill-rule:nonzero;stroke:none"
       d="m 2679.2773,284.98047 -0.066,-0.0469 3.6719,-4.09375 -3.6055,4.14063"
       id="path154" />
    <path
       style="fill:#28388a;fill-opacity:1;fill-rule:nonzero;stroke:none"
       d="m 2684.5156,117.67969 c 0.543,122.76953 0.8086,245.53515 1.0039,368.30468 l 0.2149,368.29688 -0.051,184.14845 -0.2617,184.1523 -0.6914,368.2891 -0.035,7.0977 -7.1172,0.019 c -215.3359,0.5312 -430.6562,0.8203 -645.9922,0.8437 -215.3359,-0.012 -430.6601,-0.1718 -645.9882,-0.6836 l -323,-1.0078 c -107.66411,-0.4414 -215.32817,-0.7812 -322.99223,-1.4414 l -161.5,-0.8789 -161.4961,-1.1211 c -107.66406,-0.7773 -215.33203,-1.6875 -322.996089,-2.8594 107.664059,-1.1679 215.332029,-2.0703 322.996089,-2.8593 l 161.4961,-1.1094 161.5,-0.8906 c 107.66406,-0.6602 215.32812,-1 322.99223,-1.4414 l 323,-1.0078 c 215.3281,-0.5118 430.6523,-0.6602 645.9882,-0.6797 215.336,0.027 430.6563,0.3203 645.9922,0.8398 l -7.1523,7.1172 2.7695,-368.2891 1.4688,-184.1367 1.6953,-184.14452 3.6758,-368.28125 c 1.3515,-122.76172 2.7812,-245.51953 4.4804,-368.27734"
       id="path156" />
  </g>
</svg>
